InterAlia-Thin.ufo
<glyph name="numbersign" format="2">
  <advance height="2479" width="1297"/>
  <unicode hex="0023"/>
  <outline>
    <contour>
      <point x="765" y="0" type="line"/>
      <point x="812" y="0" type="line"/>
      <point x="1056" y="1489" type="line"/>
      <point x="1009" y="1489" type="line"/>
    </contour>
    <contour>
      <point x="47" y="463" type="line"/>
      <point x="1158" y="463" type="line"/>
      <point x="1167" y="509" type="line"/>
      <point x="55" y="509" type="line"/>
    </contour>
    <contour>
      <point x="241" y="0" type="line"/>
      <point x="288" y="0" type="line"/>
      <point x="532" y="1489" type="line"/>
      <point x="486" y="1489" type="line"/>
    </contour>
    <contour>
      <point x="131" y="980" type="line"/>
      <point x="1242" y="980" type="line"/>
      <point x="1251" y="1027" type="line"/>
      <point x="140" y="1027" type="line"/>
    </contour>
  </outline>
</glyph>
<glyph name="dollar" format="2">
  <advance height="2479" width="1254"/>
  <unicode hex="0024"/>
  <anchor x="628" y="-23" name="bottom"/>
  <anchor x="628" y="0" name="cedilla"/>
  <anchor x="628" y="1676" name="top"/>
  <outline>
    <contour>
      <point x="605" y="-186" type="line"/>
      <point x="652" y="-186" type="line"/>
      <point x="652" y="1676" type="line"/>
      <point x="605" y="1676" type="line"/>
    </contour>
    <component base="S"/>
  </outline>
</glyph>
<glyph name="ampersand" format="2">
  <advance height="2479" width="1196"/>
  <unicode hex="0026"/>
  <outline>
    <contour>
      <point x="550" y="-20" type="curve" smooth="yes"/>
      <point x="695" y="-20"/>
      <point x="844" y="44"/>
      <point x="943" y="148" type="curve" smooth="yes"/>
      <point x="955" y="161"/>
      <point x="967" y="176"/>
      <point x="977" y="192" type="curve" smooth="yes"/>
      <point x="1041" y="282"/>
      <point x="1094" y="410"/>
      <point x="1114" y="535" type="curve"/>
      <point x="1068" y="541" type="line"/>
      <point x="1017" y="241"/>
      <point x="841" y="33"/>
      <point x="550" y="26" type="curve" smooth="yes"/>
      <point x="340" y="29"/>
      <point x="177" y="180"/>
      <point x="177" y="372" type="curve" smooth="yes"/>
      <point x="177" y="492"/>
      <point x="239" y="576"/>
      <point x="416" y="713" type="curve" smooth="yes"/>
      <point x="634" y="876" type="line" smooth="yes"/>
      <point x="785" y="995"/>
      <point x="847" y="1088"/>
      <point x="847" y="1207" type="curve" smooth="yes"/>
      <point x="847" y="1382"/>
      <point x="721" y="1510"/>
      <point x="553" y="1510" type="curve" smooth="yes"/>
      <point x="381" y="1510"/>
      <point x="236" y="1364"/>
      <point x="236" y="1196" type="curve" smooth="yes"/>
      <point x="236" y="1082"/>
      <point x="308" y="995"/>
      <point x="445" y="823" type="curve" smooth="yes"/>
      <point x="1097" y="0" type="line"/>
      <point x="1155" y="0" type="line"/>
      <point x="480" y="852" type="line" smooth="yes"/>
      <point x="343" y="1024"/>
      <point x="282" y="1100"/>
      <point x="282" y="1196" type="curve" smooth="yes"/>
      <point x="282" y="1338"/>
      <point x="407" y="1463"/>
      <point x="553" y="1463" type="curve" smooth="yes"/>
      <point x="695" y="1463"/>
      <point x="800" y="1356"/>
      <point x="800" y="1207" type="curve" smooth="yes"/>
      <point x="800" y="1102"/>
      <point x="745" y="1023"/>
      <point x="605" y="913" type="curve" smooth="yes"/>
      <point x="387" y="751" type="line" smooth="yes"/>
      <point x="198" y="605"/>
      <point x="131" y="506"/>
      <point x="131" y="372" type="curve" smooth="yes"/>
      <point x="131" y="154"/>
      <point x="314" y="-20"/>
    </contour>
  </outline>
</glyph>
<glyph name="parenleft" format="2">
  <advance height="2479" width="646"/>
  <unicode hex="0028"/>
  <outline>
    <contour>
      <point x="239" y="628" type="curve" smooth="yes"/>
      <point x="239" y="317"/>
      <point x="314" y="-3"/>
      <point x="454" y="-303" type="curve"/>
      <point x="503" y="-303" type="line"/>
      <point x="360" y="-3"/>
      <point x="285" y="314"/>
      <point x="285" y="628" type="curve" smooth="yes"/>
      <point x="285" y="940"/>
      <point x="359" y="1258"/>
      <point x="503" y="1559" type="curve"/>
      <point x="454" y="1559" type="line"/>
      <point x="314" y="1263"/>
      <point x="239" y="943"/>
    </contour>
  </outline>
</glyph>
<glyph name="hyphen" format="2">
  <advance height="2479" width="899"/>
  <unicode hex="002D"/>
  <outline>
    <contour>
      <point x="727" y="662" type="line"/>
      <point x="172" y="662" type="line"/>
      <point x="172" y="615" type="line"/>
      <point x="727" y="615" type="line"/>
    </contour>
  </outline>
</glyph>
<glyph name="one" format="2">
  <advance height="2479" width="835"/>
  <unicode hex="0031"/>
  <outline>
    <contour>
      <point x="521" y="1489" type="line"/>
      <point x="457" y="1489" type="line"/>
      <point x="145" y="1283" type="line"/>
      <point x="145" y="1228" type="line"/>
      <point x="465" y="1440" type="line"/>
      <point x="474" y="1440" type="line"/>
      <point x="474" y="0" type="line"/>
      <point x="521" y="0" type="line"/>
    </contour>
  </outline>
</glyph>
<glyph name="two" format="2">
  <advance height="2479" width="1271"/>
  <unicode hex="0032"/>
  <anchor x="815" y="745" name="cross"/>
  <outline>
    <contour>
      <point x="189" y="0" type="line"/>
      <point x="1088" y="0" type="line"/>
      <point x="1088" y="47" type="line"/>
      <point x="262" y="47" type="line"/>
      <point x="262" y="52" type="line"/>
      <point x="701" y="573" type="line" smooth="yes"/>
      <point x="930" y="844"/>
      <point x="1001" y="961"/>
      <point x="1001" y="1126" type="curve" smooth="yes"/>
      <point x="1001" y="1347"/>
      <point x="835" y="1510"/>
      <point x="611" y="1510" type="curve" smooth="yes"/>
      <point x="378" y="1510"/>
      <point x="215" y="1333"/>
      <point x="215" y="1117" type="curve"/>
      <point x="262" y="1117" type="line"/>
      <point x="262" y="1307"/>
      <point x="404" y="1463"/>
      <point x="611" y="1463" type="curve" smooth="yes"/>
      <point x="809" y="1463"/>
      <point x="954" y="1321"/>
      <point x="954" y="1126" type="curve" smooth="yes"/>
      <point x="954" y="977"/>
      <point x="890" y="867"/>
      <point x="666" y="602" type="curve" smooth="yes"/>
      <point x="189" y="38" type="line"/>
    </contour>
  </outline>
</glyph>
<glyph name="five" format="2">
  <advance height="2479" width="1169"/>
  <unicode hex="0035"/>
  <outline>
    <contour>
      <point x="564" y="-20" type="curve" smooth="yes"/>
      <point x="822" y="-20"/>
      <point x="1005" y="186"/>
      <point x="1007" y="463" type="curve" smooth="yes"/>
      <point x="1008" y="751"/>
      <point x="801" y="940"/>
      <point x="561" y="940" type="curve" smooth="yes"/>
      <point x="442" y="940"/>
      <point x="342" y="895"/>
      <point x="268" y="826" type="curve"/>
      <point x="262" y="826" type="line"/>
      <point x="337" y="1443" type="line"/>
      <point x="957" y="1443" type="line"/>
      <point x="957" y="1489" type="line"/>
      <point x="297" y="1489" type="line"/>
      <point x="209" y="785" type="line"/>
      <point x="279" y="774" type="line"/>
      <point x="348" y="844"/>
      <point x="444" y="893"/>
      <point x="561" y="893" type="curve" smooth="yes"/>
      <point x="775" y="893"/>
      <point x="959" y="727"/>
      <point x="960" y="463" type="curve" smooth="yes"/>
      <point x="961" y="215"/>
      <point x="799" y="26"/>
      <point x="564" y="26" type="curve" smooth="yes"/>
      <point x="356" y="26"/>
      <point x="217" y="169"/>
      <point x="218" y="372" type="curve"/>
      <point x="172" y="372" type="line"/>
      <point x="170" y="143"/>
      <point x="333" y="-20"/>
    </contour>
  </outline>
</glyph>
<glyph name="seven" format="2">
  <advance height="2479" width="1121"/>
  <unicode hex="0037"/>
  <outline>
    <contour>
      <point x="224" y="0" type="line"/>
      <point x="276" y="0" type="line"/>
      <point x="983" y="1443" type="line"/>
      <point x="983" y="1489" type="line"/>
      <point x="119" y="1489" type="line"/>
      <point x="119" y="1443" type="line"/>
      <point x="928" y="1443" type="line"/>
      <point x="928" y="1437" type="line"/>
    </contour>
  </outline>
</glyph>
<glyph name="question" format="2">
  <advance height="2479" width="980"/>
  <unicode hex="003F"/>
  <outline>
    <contour>
      <point x="425" y="442" type="line"/>
      <point x="471" y="442" type="line"/>
      <point x="471" y="544" type="line" smooth="yes"/>
      <point x="471" y="662"/>
      <point x="510" y="723"/>
      <point x="649" y="823" type="curve" smooth="yes"/>
      <point x="807" y="937"/>
      <point x="864" y="1023"/>
      <point x="864" y="1146" type="curve" smooth="yes"/>
      <point x="864" y="1356"/>
      <point x="699" y="1510"/>
      <point x="486" y="1510" type="curve" smooth="yes"/>
      <point x="263" y="1510"/>
      <point x="96" y="1341"/>
      <point x="96" y="1117" type="curve"/>
      <point x="143" y="1117" type="line"/>
      <point x="143" y="1315"/>
      <point x="288" y="1463"/>
      <point x="486" y="1463" type="curve" smooth="yes"/>
      <point x="673" y="1463"/>
      <point x="817" y="1331"/>
      <point x="817" y="1146" type="curve" smooth="yes"/>
      <point x="817" y="1041"/>
      <point x="770" y="965"/>
      <point x="623" y="861" type="curve" smooth="yes"/>
      <point x="473" y="756"/>
      <point x="425" y="678"/>
      <point x="425" y="544" type="curve" smooth="yes"/>
    </contour>
    <component base="period" xOffset="189"/>
  </outline>
</glyph>
<glyph name="D" format="2">
  <advance height="2479" width="1463"/>
  <unicode hex="0044"/>
  <anchor x="591" y="0" name="bottom"/>
  <anchor x="256" y="756" name="cross"/>
  <anchor x="631" y="1676" name="top"/>
  <outline>
    <contour>
      <point x="623" y="0" type="line" smooth="yes"/>
      <point x="1060" y="0"/>
      <point x="1313" y="275"/>
      <point x="1315" y="751" type="curve" smooth="yes"/>
      <point x="1316" y="1214"/>
      <point x="1071" y="1489"/>
      <point x="660" y="1489" type="curve" smooth="yes"/>
      <point x="256" y="1489" type="line"/>
      <point x="256" y="1443" type="line"/>
      <point x="660" y="1443" type="line" smooth="yes"/>
      <point x="1047" y="1443"/>
      <point x="1267" y="1185"/>
      <point x="1268" y="751" type="curve" smooth="yes"/>
      <point x="1270" y="309"/>
      <point x="1036" y="47"/>
      <point x="623" y="47" type="curve" smooth="yes"/>
      <point x="256" y="47" type="line"/>
      <point x="256" y="0" type="line"/>
    </contour>
    <contour>
      <point x="279" y="1489" type="line"/>
      <point x="233" y="1489" type="line"/>
      <point x="233" y="0" type="line"/>
      <point x="279" y="0" type="line"/>
    </contour>
  </outline>
</glyph>
<glyph name="G" format="2">
  <advance height="2479" width="1513"/>
  <unicode hex="0047"/>
  <anchor x="756" y="0" name="bottom"/>
  <anchor x="756" y="1676" name="top"/>
  <outline>
    <contour>
      <point x="1289" y="1024" type="curve"/>
      <point x="1335" y="1024" type="line"/>
      <point x="1300" y="1236"/>
      <point x="1113" y="1510"/>
      <point x="765" y="1510" type="curve" smooth="yes"/>
      <point x="396" y="1510"/>
      <point x="148" y="1203"/>
      <point x="148" y="745" type="curve" smooth="yes"/>
      <point x="148" y="289"/>
      <point x="393" y="-20"/>
      <point x="771" y="-20" type="curve" smooth="yes"/>
      <point x="1105" y="-20"/>
      <point x="1347" y="221"/>
      <point x="1347" y="628" type="curve" smooth="yes"/>
      <point x="1347" y="675" type="line"/>
      <point x="785" y="675" type="line"/>
      <point x="785" y="628" type="line"/>
      <point x="1321" y="628" type="line"/>
      <point x="1300" y="646" type="line"/>
      <point x="1306" y="256"/>
      <point x="1082" y="26"/>
      <point x="771" y="26" type="curve" smooth="yes"/>
      <point x="419" y="26"/>
      <point x="195" y="319"/>
      <point x="195" y="745" type="curve" smooth="yes"/>
      <point x="195" y="1175"/>
      <point x="423" y="1463"/>
      <point x="765" y="1463" type="curve" smooth="yes"/>
      <point x="1071" y="1463"/>
      <point x="1253" y="1227"/>
    </contour>
  </outline>
</glyph>
<glyph name="J" format="2">
  <advance height="2479" width="1065"/>
  <unicode hex="004A"/>
  <anchor x="809" y="884" name="cross"/>
  <anchor x="809" y="1676" name="top"/>
  <outline>
    <contour>
      <point x="785" y="1489" type="line"/>
      <point x="785" y="396" type="line" smooth="yes"/>
      <point x="784" y="119"/>
      <point x="634" y="26"/>
      <point x="471" y="26" type="curve" smooth="yes"/>
      <point x="294" y="26"/>
      <point x="156" y="134"/>
      <point x="157" y="279" type="curve"/>
      <point x="111" y="279" type="line"/>
      <point x="109" y="108"/>
      <point x="266" y="-20"/>
      <point x="471" y="-20" type="curve" smooth="yes"/>
      <point x="662" y="-20"/>
      <point x="831" y="93"/>
      <point x="832" y="396" type="curve" smooth="yes"/>
      <point x="832" y="1489" type="line"/>
    </contour>
  </outline>
</glyph>
<glyph name="K" format="2">
  <advance height="2479" width="1263"/>
  <unicode hex="004B"/>
  <anchor x="634" y="0" name="bottom"/>
  <anchor x="637" y="1676" name="top"/>
  <outline>
    <contour>
      <point x="233" y="0" type="line"/>
      <point x="279" y="0" type="line"/>
      <point x="279" y="486" type="line"/>
      <point x="503" y="733" type="line"/>
      <point x="1123" y="0" type="line"/>
      <point x="1184" y="0" type="line"/>
      <point x="535" y="768" type="line"/>
      <point x="1193" y="1489" type="line"/>
      <point x="1129" y="1489" type="line"/>
      <point x="285" y="561" type="line"/>
      <point x="279" y="561" type="line"/>
      <point x="279" y="1489" type="line"/>
      <point x="233" y="1489" type="line"/>
    </contour>
  </outline>
</glyph>
<glyph name="M" format="2">
  <advance height="2479" width="1769"/>
  <unicode hex="004D"/>
  <anchor x="884" y="0" name="bottom"/>
  <anchor x="1536" y="0" name="right"/>
  <anchor x="884" y="1676" name="top"/>
  <outline>
    <contour>
      <point x="233" y="1489" type="line"/>
      <point x="233" y="0" type="line"/>
      <point x="279" y="0" type="line"/>
      <point x="279" y="1344" type="line"/>
      <point x="285" y="1344" type="line"/>
      <point x="861" y="0" type="line"/>
      <point x="908" y="0" type="line"/>
      <point x="1484" y="1344" type="line"/>
      <point x="1489" y="1344" type="line"/>
      <point x="1489" y="0" type="line"/>
      <point x="1536" y="0" type="line"/>
      <point x="1536" y="1489" type="line"/>
      <point x="1495" y="1489" type="line"/>
      <point x="887" y="70" type="line"/>
      <point x="881" y="70" type="line"/>
      <point x="273" y="1489" type="line"/>
    </contour>
  </outline>
</glyph>
<glyph name="O" format="2">
  <advance height="2479" width="1530"/>
  <unicode hex="004F"/>
  <anchor x="765" y="0" name="bottom"/>
  <anchor x="800" y="0" name="ogonek"/>
  <anchor x="221" y="1489" name="tonos"/>
  <anchor x="765" y="1676" name="top"/>
  <outline>
    <contour>
      <point x="1382" y="745" type="curve" smooth="yes"/>
      <point x="1382" y="1200"/>
      <point x="1132" y="1510"/>
      <point x="765" y="1510" type="curve" smooth="yes"/>
      <point x="398" y="1510"/>
      <point x="148" y="1199"/>
      <point x="148" y="745" type="curve" smooth="yes"/>
      <point x="148" y="291"/>
      <point x="397" y="-20"/>
      <point x="765" y="-20" type="curve" smooth="yes"/>
      <point x="1132" y="-20"/>
      <point x="1382" y="289"/>
    </contour>
    <contour>
      <point x="1335" y="745" type="curve" smooth="yes"/>
      <point x="1336" y="317"/>
      <point x="1104" y="26"/>
      <point x="765" y="26" type="curve" smooth="yes"/>
      <point x="423" y="26"/>
      <point x="195" y="320"/>
      <point x="195" y="745" type="curve" smooth="yes"/>
      <point x="195" y="1175"/>
      <point x="428" y="1463"/>
      <point x="765" y="1463" type="curve" smooth="yes"/>
      <point x="1104" y="1463"/>
      <point x="1335" y="1172"/>
    </contour>
  </outline>
</glyph>
<glyph name="P" format="2">
  <advance height="2479" width="1242"/>
  <unicode hex="0050"/>
  <anchor x="189" y="1489" name="tonos"/>
  <anchor x="637" y="1676" name="top"/>
  <outline>
    <contour>
      <point x="233" y="0" type="line"/>
      <point x="279" y="0" type="line"/>
      <point x="279" y="1443" type="line"/>
      <point x="669" y="1443" type="line" smooth="yes"/>
      <point x="892" y="1443"/>
      <point x="1050" y="1281"/>
      <point x="1050" y="1053" type="curve" smooth="yes"/>
      <point x="1050" y="826"/>
      <point x="892" y="666"/>
      <point x="669" y="666" type="curve" smooth="yes"/>
      <point x="256" y="666" type="line"/>
      <point x="256" y="620" type="line"/>
      <point x="669" y="620" type="line" smooth="yes"/>
      <point x="919" y="620"/>
      <point x="1097" y="799"/>
      <point x="1097" y="1053" type="curve" smooth="yes"/>
      <point x="1097" y="1308"/>
      <point x="919" y="1489"/>
      <point x="669" y="1489" type="curve" smooth="yes"/>
      <point x="233" y="1489" type="line"/>
    </contour>
  </outline>
</glyph>
<glyph name="Q" format="2">
  <advance height="2479" width="1530"/>
  <unicode hex="0051"/>
  <anchor x="765" y="0" name="bottom"/>
  <anchor x="800" y="0" name="ogonek"/>
  <anchor x="221" y="1489" name="tonos"/>
  <anchor x="765" y="1676" name="top"/>
  <outline>
    <contour>
      <point x="823" y="465" type="line"/>
      <point x="1082" y="122" type="line"/>
      <point x="1091" y="111" type="line"/>
      <point x="1280" y="-140" type="line"/>
      <point x="1338" y="-140" type="line"/>
      <point x="1132" y="134" type="line"/>
      <point x="1123" y="145" type="line"/>
      <point x="881" y="465" type="line"/>
    </contour>
    <component base="O"/>
  </outline>
</glyph>
<glyph name="S" format="2">
  <advance height="2479" width="1254"/>
  <unicode hex="0053"/>
  <anchor x="628" y="-23" name="bottom"/>
  <anchor x="628" y="0" name="cedilla"/>
  <anchor x="628" y="1676" name="top"/>
  <outline>
    <contour>
      <point x="1030" y="1117" type="curve"/>
      <point x="1076" y="1117" type="line"/>
      <point x="1062" y="1347"/>
      <point x="889" y="1513"/>
      <point x="634" y="1513" type="curve" smooth="yes"/>
      <point x="380" y="1513"/>
      <point x="192" y="1348"/>
      <point x="192" y="1129" type="curve" smooth="yes"/>
      <point x="192" y="956"/>
      <point x="307" y="836"/>
      <point x="541" y="762" type="curve" smooth="yes"/>
      <point x="710" y="710" type="line" smooth="yes"/>
      <point x="951" y="635"/>
      <point x="1050" y="538"/>
      <point x="1050" y="378" type="curve" smooth="yes"/>
      <point x="1050" y="167"/>
      <point x="879" y="23"/>
      <point x="623" y="23" type="curve" smooth="yes"/>
      <point x="377" y="23"/>
      <point x="218" y="156"/>
      <point x="204" y="349" type="curve"/>
      <point x="157" y="349" type="line"/>
      <point x="172" y="130"/>
      <point x="351" y="-23"/>
      <point x="623" y="-23" type="curve" smooth="yes"/>
      <point x="905" y="-23"/>
      <point x="1097" y="145"/>
      <point x="1097" y="378" type="curve" smooth="yes"/>
      <point x="1097" y="561"/>
      <point x="979" y="677"/>
      <point x="721" y="756" type="curve" smooth="yes"/>
      <point x="553" y="809" type="line" smooth="yes"/>
      <point x="339" y="874"/>
      <point x="239" y="977"/>
      <point x="239" y="1129" type="curve" smooth="yes"/>
      <point x="239" y="1324"/>
      <point x="407" y="1466"/>
      <point x="634" y="1466" type="curve" smooth="yes"/>
      <point x="865" y="1466"/>
      <point x="1015" y="1321"/>
    </contour>
  </outline>
</glyph>
<glyph name="U" format="2">
  <advance height="2479" width="1536"/>
  <unicode hex="0055"/>
  <anchor x="768" y="-23" name="bottom"/>
  <anchor x="831" y="0" name="ogonek"/>
  <anchor x="829" y="0" name="right"/>
  <anchor x="768" y="1676" name="top"/>
  <outline>
    <contour>
      <point x="1257" y="1489" type="line"/>
      <point x="1257" y="503" type="line" smooth="yes"/>
      <point x="1257" y="228"/>
      <point x="1049" y="23"/>
      <point x="768" y="23" type="curve" smooth="yes"/>
      <point x="487" y="23"/>
      <point x="279" y="228"/>
      <point x="279" y="503" type="curve" smooth="yes"/>
      <point x="279" y="1489" type="line"/>
      <point x="233" y="1489" type="line"/>
      <point x="233" y="503" type="line" smooth="yes"/>
      <point x="231" y="202"/>
      <point x="463" y="-23"/>
      <point x="768" y="-23" type="curve" smooth="yes"/>
      <point x="1074" y="-23"/>
      <point x="1303" y="201"/>
      <point x="1303" y="503" type="curve" smooth="yes"/>
      <point x="1303" y="1489" type="line"/>
    </contour>
  </outline>
</glyph>
<glyph name="W" format="2">
  <advance height="2479" width="1821"/>
  <unicode hex="0057"/>
  <anchor x="910" y="12" name="bottom"/>
  <anchor x="910" y="1676" name="top"/>
  <outline>
    <contour>
      <point x="465" y="0" type="line"/>
      <point x="529" y="0" type="line"/>
      <point x="908" y="1417" type="line"/>
      <point x="913" y="1417" type="line"/>
      <point x="1292" y="0" type="line"/>
      <point x="1356" y="0" type="line"/>
      <point x="1766" y="1489" type="line"/>
      <point x="1716" y="1489" type="line"/>
      <point x="1326" y="73" type="line"/>
      <point x="1321" y="73" type="line"/>
      <point x="942" y="1489" type="line"/>
      <point x="878" y="1489" type="line"/>
      <point x="500" y="73" type="line"/>
      <point x="494" y="73" type="line"/>
      <point x="105" y="1489" type="line"/>
      <point x="55" y="1489" type="line"/>
    </contour>
  </outline>
</glyph>
<glyph name="bracketleft" format="2">
  <advance height="2479" width="646"/>
  <unicode hex="005B"/>
  <outline>
    <contour>
      <point x="256" y="-303" type="line"/>
      <point x="512" y="-303" type="line"/>
      <point x="512" y="-256" type="line"/>
      <point x="303" y="-256" type="line"/>
      <point x="303" y="1513" type="line"/>
      <point x="512" y="1513" type="line"/>
      <point x="512" y="1559" type="line"/>
      <point x="256" y="1559" type="line"/>
    </contour>
  </outline>
</glyph>
<glyph name="backslash" format="2">
  <advance height="2479" width="663"/>
  <unicode hex="005C"/>
  <outline>
    <contour>
      <point x="546" y="-224" type="line"/>
      <point x="596" y="-224" type="line"/>
      <point x="116" y="1559" type="line"/>
      <point x="66" y="1559" type="line"/>
    </contour>
  </outline>
</glyph>
<glyph name="underscore" format="2">
  <advance height="2479" width="874"/>
  <unicode hex="005F"/>
  <anchor x="433" y="177" name="_bottom"/>
  <outline>
    <contour>
      <point x="879" y="0" type="line"/>
      <point x="-6" y="0" type="line"/>
      <point x="-6" y="-47" type="line"/>
      <point x="879" y="-47" type="line"/>
    </contour>
  </outline>
</glyph>
<glyph name="grave" format="2">
  <advance height="2479" width="1018"/>
  <unicode hex="0060"/>
  <anchor x="605" y="1303" name="_top"/>
  <anchor x="602" y="1676" name="top"/>
  <outline>
    <contour>
      <point x="583" y="1280" type="line"/>
      <point x="630" y="1280" type="line"/>
      <point x="426" y="1594" type="line"/>
      <point x="368" y="1594" type="line"/>
    </contour>
  </outline>
</glyph>
<glyph name="e" format="2">
  <advance height="2479" width="1181"/>
  <unicode hex="0065"/>
  <anchor x="591" y="0" name="bottom"/>
  <anchor x="593" y="0" name="cedilla"/>
  <anchor x="640" y="0" name="ogonek"/>
  <anchor x="591" y="1303" name="top"/>
  <outline>
    <contour>
      <point x="617" y="-23" type="curve" smooth="yes"/>
      <point x="834" y="-23"/>
      <point x="954" y="113"/>
      <point x="1004" y="198" type="curve"/>
      <point x="966" y="224" type="line"/>
      <point x="925" y="157"/>
      <point x="823" y="23"/>
      <point x="617" y="23" type="curve" smooth="yes"/>
      <point x="335" y="23"/>
      <point x="177" y="268"/>
      <point x="177" y="561" type="curve" smooth="yes"/>
      <point x="177" y="567" type="line" smooth="yes"/>
      <point x="183" y="864"/>
      <point x="364" y="1088"/>
      <point x="593" y="1088" type="curve" smooth="yes"/>
      <point x="820" y="1088"/>
      <point x="1004" y="873"/>
      <point x="1004" y="605" type="curve"/>
      <point x="154" y="605" type="line"/>
      <point x="154" y="559" type="line"/>
      <point x="1050" y="559" type="line"/>
      <point x="1050" y="605" type="line" smooth="yes"/>
      <point x="1050" y="894"/>
      <point x="853" y="1135"/>
      <point x="593" y="1135" type="curve" smooth="yes"/>
      <point x="329" y="1135"/>
      <point x="131" y="884"/>
      <point x="131" y="556" type="curve" smooth="yes"/>
      <point x="131" y="227"/>
      <point x="324" y="-23"/>
    </contour>
  </outline>
</glyph>
<glyph name="g" format="2">
  <advance height="2479" width="1196"/>
  <unicode hex="0067"/>
  <anchor x="561" y="-436" name="bottom"/>
  <anchor x="969" y="559" name="cross"/>
  <anchor x="596" y="1303" name="top"/>
  <outline>
    <contour>
      <point x="576" y="-442" type="curve" smooth="yes"/>
      <point x="834" y="-442"/>
      <point x="992" y="-299"/>
      <point x="992" y="-23" type="curve" smooth="yes"/>
      <point x="992" y="1117" type="line"/>
      <point x="945" y="1117" type="line"/>
      <point x="945" y="832" type="line"/>
      <point x="940" y="832" type="line"/>
      <point x="879" y="1018"/>
      <point x="742" y="1135"/>
      <point x="561" y="1135" type="curve" smooth="yes"/>
      <point x="297" y="1135"/>
      <point x="131" y="887"/>
      <point x="131" y="556" type="curve" smooth="yes"/>
      <point x="131" y="227"/>
      <point x="300" y="0"/>
      <point x="561" y="0" type="curve" smooth="yes"/>
      <point x="727" y="0"/>
      <point x="881" y="93"/>
      <point x="940" y="279" type="curve"/>
      <point x="945" y="279" type="line"/>
      <point x="945" y="-23" type="line" smooth="yes"/>
      <point x="945" y="-274"/>
      <point x="809" y="-396"/>
      <point x="576" y="-396" type="curve" smooth="yes"/>
      <point x="408" y="-396"/>
      <point x="274" y="-332"/>
      <point x="224" y="-201" type="curve"/>
      <point x="180" y="-218" type="line"/>
      <point x="237" y="-367"/>
      <point x="388" y="-442"/>
    </contour>
    <contour>
      <point x="561" y="47" type="curve" smooth="yes"/>
      <point x="326" y="47"/>
      <point x="177" y="253"/>
      <point x="177" y="556" type="curve" smooth="yes"/>
      <point x="177" y="858"/>
      <point x="324" y="1088"/>
      <point x="561" y="1088" type="curve" smooth="yes"/>
      <point x="799" y="1088"/>
      <point x="945" y="858"/>
      <point x="945" y="556" type="curve" smooth="yes"/>
      <point x="945" y="242"/>
      <point x="794" y="47"/>
    </contour>
  </outline>
</glyph>
<glyph name="h" format="2">
  <advance height="2479" width="1164"/>
  <unicode hex="0068"/>
  <anchor x="582" y="0" name="bottom"/>
  <anchor x="221" y="-6" name="cedilla"/>
  <anchor x="221" y="1324" name="cross"/>
  <anchor x="221" y="1676" name="top"/>
  <outline>
    <contour>
      <point x="244" y="751" type="line" smooth="yes"/>
      <point x="244" y="945"/>
      <point x="387" y="1085"/>
      <point x="585" y="1085" type="curve" smooth="yes"/>
      <point x="783" y="1085"/>
      <point x="919" y="948"/>
      <point x="919" y="751" type="curve" smooth="yes"/>
      <point x="919" y="0" type="line"/>
      <point x="966" y="0" type="line"/>
      <point x="966" y="751" type="line" smooth="yes"/>
      <point x="966" y="975"/>
      <point x="809" y="1132"/>
      <point x="585" y="1132" type="curve" smooth="yes"/>
      <point x="431" y="1132"/>
      <point x="303" y="1056"/>
      <point x="250" y="940" type="curve"/>
      <point x="244" y="940" type="line"/>
      <point x="244" y="1489" type="line"/>
      <point x="198" y="1489" type="line"/>
      <point x="198" y="0" type="line"/>
      <point x="244" y="0" type="line"/>
    </contour>
  </outline>
</glyph>
<glyph name="o" format="2">
  <advance height="2479" width="1187"/>
  <unicode hex="006F"/>
  <anchor x="593" y="0" name="bottom"/>
  <anchor x="643" y="0" name="ogonek"/>
  <anchor x="593" y="1303" name="top"/>
  <outline>
    <contour>
      <point x="593" y="-23" type="curve" smooth="yes"/>
      <point x="857" y="-23"/>
      <point x="1056" y="226"/>
      <point x="1056" y="556" type="curve" smooth="yes"/>
      <point x="1056" y="884"/>
      <point x="856" y="1135"/>
      <point x="593" y="1135" type="curve" smooth="yes"/>
      <point x="330" y="1135"/>
      <point x="131" y="885"/>
      <point x="131" y="556" type="curve" smooth="yes"/>
      <point x="131" y="226"/>
      <point x="330" y="-23"/>
    </contour>
    <contour>
      <point x="593" y="23" type="curve" smooth="yes"/>
      <point x="356" y="23"/>
      <point x="177" y="252"/>
      <point x="177" y="556" type="curve" smooth="yes"/>
      <point x="177" y="857"/>
      <point x="358" y="1088"/>
      <point x="593" y="1088" type="curve" smooth="yes"/>
      <point x="830" y="1088"/>
      <point x="1009" y="858"/>
      <point x="1009" y="556" type="curve" smooth="yes"/>
      <point x="1009" y="252"/>
      <point x="831" y="23"/>
    </contour>
  </outline>
</glyph>
<glyph name="p" format="2">
  <advance height="2479" width="1190"/>
  <unicode hex="0070"/>
  <anchor x="221" y="-419" name="bottom"/>
  <anchor x="1152" y="-506" name="bottom0315"/>
  <anchor x="221" y="-163" name="cross"/>
  <anchor x="628" y="1303" name="top"/>
  <outline>
    <contour>
      <point x="198" y="-419" type="line"/>
      <point x="244" y="-419" type="line"/>
      <point x="244" y="279" type="line"/>
      <point x="250" y="279" type="line"/>
      <point x="308" y="93"/>
      <point x="451" y="-23"/>
      <point x="628" y="-23" type="curve" smooth="yes"/>
      <point x="890" y="-23"/>
      <point x="1059" y="227"/>
      <point x="1059" y="556" type="curve" smooth="yes"/>
      <point x="1059" y="886"/>
      <point x="892" y="1135"/>
      <point x="628" y="1135" type="curve" smooth="yes"/>
      <point x="449" y="1135"/>
      <point x="311" y="1017"/>
      <point x="250" y="832" type="curve"/>
      <point x="244" y="832" type="line"/>
      <point x="244" y="1117" type="line"/>
      <point x="198" y="1117" type="line"/>
    </contour>
    <contour>
      <point x="244" y="556" type="curve" smooth="yes"/>
      <point x="244" y="858"/>
      <point x="391" y="1088"/>
      <point x="628" y="1088" type="curve" smooth="yes"/>
      <point x="865" y="1088"/>
      <point x="1012" y="858"/>
      <point x="1012" y="556" type="curve" smooth="yes"/>
      <point x="1012" y="253"/>
      <point x="864" y="23"/>
      <point x="628" y="23" type="curve" smooth="yes"/>
      <point x="393" y="23"/>
      <point x="244" y="253"/>
    </contour>
  </outline>
</glyph>
<glyph name="s" format="2">
  <advance height="2479" width="1009"/>
  <unicode hex="0073"/>
  <anchor x="515" y="0" name="bottom"/>
  <anchor x="512" y="0" name="cedilla"/>
  <anchor x="518" y="1303" name="top"/>
  <outline>
    <contour>
      <point x="867" y="881" type="line"/>
      <point x="812" y="1049"/>
      <point x="696" y="1135"/>
      <point x="524" y="1135" type="curve" smooth="yes"/>
      <point x="320" y="1135"/>
      <point x="177" y="1016"/>
      <point x="177" y="841" type="curve" smooth="yes"/>
      <point x="177" y="701"/>
      <point x="268" y="601"/>
      <point x="439" y="559" type="curve" smooth="yes"/>
      <point x="614" y="515" type="line" smooth="yes"/>
      <point x="757" y="479"/>
      <point x="829" y="398"/>
      <point x="829" y="282" type="curve" smooth="yes"/>
      <point x="829" y="127"/>
      <point x="697" y="23"/>
      <point x="503" y="23" type="curve" smooth="yes"/>
      <point x="326" y="23"/>
      <point x="216" y="109"/>
      <point x="183" y="268" type="curve"/>
      <point x="137" y="256" type="line"/>
      <point x="175" y="78"/>
      <point x="305" y="-23"/>
      <point x="503" y="-23" type="curve" smooth="yes"/>
      <point x="722" y="-23"/>
      <point x="876" y="100"/>
      <point x="876" y="282" type="curve" smooth="yes"/>
      <point x="876" y="420"/>
      <point x="789" y="521"/>
      <point x="625" y="561" type="curve" smooth="yes"/>
      <point x="451" y="605" type="line" smooth="yes"/>
      <point x="299" y="643"/>
      <point x="224" y="724"/>
      <point x="224" y="841" type="curve" smooth="yes"/>
      <point x="224" y="989"/>
      <point x="345" y="1088"/>
      <point x="524" y="1088" type="curve" smooth="yes"/>
      <point x="677" y="1088"/>
      <point x="775" y="1015"/>
      <point x="820" y="870" type="curve"/>
    </contour>
  </outline>
</glyph>
<glyph name="w" format="2">
  <advance height="2479" width="1617"/>
  <unicode hex="0077"/>
  <anchor x="809" y="0" name="bottom"/>
  <anchor x="809" y="1303" name="top"/>
  <outline>
    <contour>
      <point x="436" y="0" type="line"/>
      <point x="500" y="0" type="line"/>
      <point x="806" y="1030" type="line"/>
      <point x="812" y="1030" type="line"/>
      <point x="1117" y="0" type="line"/>
      <point x="1181" y="0" type="line"/>
      <point x="1513" y="1117" type="line"/>
      <point x="1463" y="1117" type="line"/>
      <point x="1152" y="64" type="line"/>
      <point x="1146" y="64" type="line"/>
      <point x="832" y="1117" type="line"/>
      <point x="785" y="1117" type="line"/>
      <point x="471" y="64" type="line"/>
      <point x="465" y="64" type="line"/>
      <point x="154" y="1117" type="line"/>
      <point x="105" y="1117" type="line"/>
    </contour>
  </outline>
</glyph>
<glyph name="x" format="2">
  <advance height="2479" width="1024"/>
  <unicode hex="0078"/>
  <anchor x="512" y="0" name="bottom"/>
  <anchor x="512" y="559" name="cross"/>
  <anchor x="890" y="6" name="cyrtic"/>
  <anchor x="785" y="0" name="right"/>
  <anchor x="512" y="1303" name="top"/>
  <outline>
    <contour>
      <point x="183" y="1117" type="line"/>
      <point x="128" y="1117" type="line"/>
      <point x="484" y="559" type="line"/>
      <point x="128" y="0" type="line"/>
      <point x="183" y="0" type="line"/>
      <point x="512" y="516" type="line"/>
      <point x="841" y="0" type="line"/>
      <point x="896" y="0" type="line"/>
      <point x="540" y="559" type="line"/>
      <point x="896" y="1117" type="line"/>
      <point x="841" y="1117" type="line"/>
      <point x="512" y="601" type="line"/>
    </contour>
  </outline>
</glyph>
<glyph name="asciitilde" format="2">
  <advance height="2479" width="1303"/>
  <unicode hex="007E"/>
  <outline>
    <contour>
      <point x="192" y="489" type="curve"/>
      <point x="239" y="483" type="line"/>
      <point x="252" y="577"/>
      <point x="338" y="644"/>
      <point x="454" y="643" type="curve" smooth="yes"/>
      <point x="539" y="642"/>
      <point x="595" y="604"/>
      <point x="655" y="564" type="curve" smooth="yes"/>
      <point x="713" y="525"/>
      <point x="772" y="484"/>
      <point x="858" y="483" type="curve" smooth="yes"/>
      <point x="981" y="482"/>
      <point x="1081" y="561"/>
      <point x="1111" y="675" type="curve"/>
      <point x="1065" y="687" type="line"/>
      <point x="1041" y="594"/>
      <point x="960" y="529"/>
      <point x="858" y="529" type="curve" smooth="yes"/>
      <point x="787" y="530"/>
      <point x="738" y="564"/>
      <point x="681" y="602" type="curve" smooth="yes"/>
      <point x="621" y="642"/>
      <point x="553" y="689"/>
      <point x="454" y="689" type="curve" smooth="yes"/>
      <point x="316" y="690"/>
      <point x="209" y="607"/>
    </contour>
  </outline>
</glyph>
<glyph name="currency" format="2">
  <advance height="2479" width="1395"/>
  <unicode hex="00A4"/>
  <outline>
    <contour>
      <point x="694" y="-20" type="curve" smooth="yes"/>
      <point x="1023" y="-20"/>
      <point x="1274" y="253"/>
      <point x="1274" y="608" type="curve" smooth="yes"/>
      <point x="1274" y="963"/>
      <point x="1023" y="1233"/>
      <point x="694" y="1233" type="curve" smooth="yes"/>
      <point x="369" y="1233"/>
      <point x="116" y="963"/>
      <point x="116" y="608" type="curve" smooth="yes"/>
      <point x="116" y="253"/>
      <point x="369" y="-20"/>
    </contour>
    <contour>
      <point x="694" y="26" type="curve" smooth="yes"/>
      <point x="396" y="26"/>
      <point x="163" y="279"/>
      <point x="163" y="608" type="curve" smooth="yes"/>
      <point x="163" y="938"/>
      <point x="397" y="1187"/>
      <point x="694" y="1187" type="curve" smooth="yes"/>
      <point x="993" y="1187"/>
      <point x="1229" y="938"/>
      <point x="1228" y="608" type="curve" smooth="yes"/>
      <point x="1226" y="279"/>
      <point x="995" y="26"/>
    </contour>
    <contour>
      <point x="1110" y="1004" type="line"/>
      <point x="1284" y="1184" type="line"/>
      <point x="1254" y="1217" type="line"/>
      <point x="1079" y="1037" type="line"/>
    </contour>
    <contour>
      <point x="1254" y="0" type="line"/>
      <point x="1284" y="33" type="line"/>
      <point x="1110" y="214" type="line"/>
      <point x="1079" y="180" type="line"/>
    </contour>
    <contour>
      <point x="135" y="0" type="line"/>
      <point x="310" y="180" type="line"/>
      <point x="279" y="214" type="line"/>
      <point x="105" y="33" type="line"/>
    </contour>
    <contour>
      <point x="279" y="1004" type="line"/>
      <point x="310" y="1037" type="line"/>
      <point x="135" y="1217" type="line"/>
      <point x="105" y="1184" type="line"/>
    </contour>
  </outline>
</glyph>
<glyph name="yen" format="2">
  <advance height="2479" width="1071"/>
  <unicode hex="00A5"/>
  <outline>
    <contour>
      <point x="96" y="1489" type="line"/>
      <point x="44" y="1489" type="line"/>
      <point x="506" y="643" type="line"/>
      <point x="559" y="643" type="line"/>
    </contour>
    <contour>
      <point x="512" y="643" type="line"/>
      <point x="564" y="643" type="line"/>
      <point x="1027" y="1489" type="line"/>
      <point x="975" y="1489" type="line"/>
    </contour>
    <contour>
      <point x="559" y="692" type="line"/>
      <point x="512" y="692" type="line"/>
      <point x="512" y="0" type="line"/>
      <point x="559" y="0" type="line"/>
    </contour>
    <contour>
      <point x="908" y="666" type="line"/>
      <point x="163" y="666" type="line"/>
      <point x="163" y="620" type="line"/>
      <point x="908" y="620" type="line"/>
    </contour>
    <contour>
      <point x="908" y="489" type="line"/>
      <point x="163" y="489" type="line"/>
      <point x="163" y="442" type="line"/>
      <point x="908" y="442" type="line"/>
    </contour>
  </outline>
</glyph>
<glyph name="section" format="2">
  <advance height="2479" width="1085"/>
  <unicode hex="00A7"/>
  <outline>
    <contour>
      <point x="867" y="1190" type="line"/>
      <point x="855" y="1376"/>
      <point x="733" y="1510"/>
      <point x="544" y="1510" type="curve" smooth="yes"/>
      <point x="355" y="1510"/>
      <point x="221" y="1370"/>
      <point x="221" y="1199" type="curve" smooth="yes"/>
      <point x="221" y="1082"/>
      <point x="282" y="1009"/>
      <point x="384" y="940" type="curve"/>
      <point x="384" y="934" type="line"/>
      <point x="230" y="943"/>
      <point x="134" y="838"/>
      <point x="134" y="704" type="curve" smooth="yes"/>
      <point x="134" y="573"/>
      <point x="227" y="492"/>
      <point x="477" y="346" type="curve" smooth="yes"/>
      <point x="602" y="273" type="line" smooth="yes"/>
      <point x="800" y="157"/>
      <point x="847" y="96"/>
      <point x="847" y="0" type="curve" smooth="yes"/>
      <point x="847" y="-160"/>
      <point x="713" y="-256"/>
      <point x="541" y="-256" type="curve" smooth="yes"/>
      <point x="358" y="-256"/>
      <point x="236" y="-143"/>
      <point x="224" y="23" type="curve"/>
      <point x="177" y="23" type="line"/>
      <point x="189" y="-172"/>
      <point x="337" y="-303"/>
      <point x="541" y="-303" type="curve" smooth="yes"/>
      <point x="745" y="-303"/>
      <point x="893" y="-186"/>
      <point x="893" y="0" type="curve" smooth="yes"/>
      <point x="893" y="96"/>
      <point x="852" y="166"/>
      <point x="695" y="271" type="curve"/>
      <point x="695" y="273" type="line"/>
      <point x="836" y="273"/>
      <point x="951" y="367"/>
      <point x="951" y="497" type="curve" smooth="yes"/>
      <point x="951" y="669"/>
      <point x="777" y="756"/>
      <point x="617" y="852" type="curve" smooth="yes"/>
      <point x="495" y="925" type="line" smooth="yes"/>
      <point x="372" y="998"/>
      <point x="268" y="1056"/>
      <point x="268" y="1199" type="curve" smooth="yes"/>
      <point x="268" y="1344"/>
      <point x="378" y="1463"/>
      <point x="544" y="1463" type="curve" smooth="yes"/>
      <point x="713" y="1463"/>
      <point x="812" y="1341"/>
      <point x="820" y="1190" type="curve"/>
    </contour>
    <contour>
      <point x="905" y="497" type="curve" smooth="yes"/>
      <point x="905" y="367"/>
      <point x="771" y="303"/>
      <point x="625" y="314" type="curve"/>
      <point x="495" y="390" type="line" smooth="yes"/>
      <point x="276" y="516"/>
      <point x="180" y="591"/>
      <point x="180" y="710" type="curve" smooth="yes"/>
      <point x="180" y="823"/>
      <point x="265" y="911"/>
      <point x="448" y="899" type="curve"/>
      <point x="599" y="809" type="line" smooth="yes"/>
      <point x="742" y="724"/>
      <point x="905" y="640"/>
    </contour>
  </outline>
</glyph>
<glyph name="copyright" format="2">
  <advance height="2479" width="1873"/>
  <unicode hex="00A9"/>
  <outline>
    <contour>
      <point x="525" y="745" type="curve" smooth="yes"/>
      <point x="525" y="506"/>
      <point x="719" y="313"/>
      <point x="957" y="313" type="curve" smooth="yes"/>
      <point x="1129" y="313"/>
      <point x="1263" y="413"/>
      <point x="1318" y="559" type="curve"/>
      <point x="1265" y="559" type="line"/>
      <point x="1215" y="439"/>
      <point x="1103" y="359"/>
      <point x="957" y="359" type="curve" smooth="yes"/>
      <point x="745" y="359"/>
      <point x="572" y="532"/>
      <point x="572" y="745" type="curve" smooth="yes"/>
      <point x="572" y="959"/>
      <point x="745" y="1130"/>
      <point x="957" y="1130" type="curve" smooth="yes"/>
      <point x="1103" y="1130"/>
      <point x="1215" y="1050"/>
      <point x="1265" y="931" type="curve"/>
      <point x="1318" y="931" type="line"/>
      <point x="1263" y="1076"/>
      <point x="1129" y="1177"/>
      <point x="957" y="1177" type="curve" smooth="yes"/>
      <point x="719" y="1177"/>
      <point x="525" y="983"/>
    </contour>
    <component base="whiteCircle"/>
  </outline>
</glyph>
<glyph name="ordfeminine" format="2">
  <advance height="2479" width="739"/>
  <unicode hex="00AA"/>
  <outline>
    <contour>
      <point x="563" y="861" type="line"/>
      <point x="561" y="810"/>
      <point x="568" y="755"/>
      <point x="583" y="710" type="curve"/>
      <point x="633" y="710" type="line"/>
      <point x="616" y="761"/>
      <point x="609" y="817"/>
      <point x="609" y="887" type="curve" smooth="yes"/>
      <point x="609" y="1201" type="line"/>
      <point x="608" y="1391"/>
      <point x="537" y="1478"/>
      <point x="381" y="1478" type="curve" smooth="yes"/>
      <point x="226" y="1478"/>
      <point x="124" y="1388"/>
      <point x="118" y="1248" type="curve"/>
      <point x="164" y="1244" type="line"/>
      <point x="174" y="1367"/>
      <point x="248" y="1431"/>
      <point x="381" y="1431" type="curve" smooth="yes"/>
      <point x="505" y="1431"/>
      <point x="561" y="1361"/>
      <point x="563" y="1201" type="curve"/>
    </contour>
    <contour>
      <point x="572" y="1126" type="line"/>
      <point x="400" y="1126" type="line" smooth="yes"/>
      <point x="208" y="1126"/>
      <point x="106" y="1049"/>
      <point x="105" y="905" type="curve" smooth="yes"/>
      <point x="105" y="777"/>
      <point x="190" y="692"/>
      <point x="319" y="692" type="curve" smooth="yes"/>
      <point x="409" y="692"/>
      <point x="484" y="729"/>
      <point x="585" y="823" type="curve"/>
      <point x="567" y="854" type="line"/>
      <point x="492" y="777"/>
      <point x="406" y="737"/>
      <point x="319" y="739" type="curve" smooth="yes"/>
      <point x="216" y="740"/>
      <point x="152" y="804"/>
      <point x="153" y="905" type="curve" smooth="yes"/>
      <point x="152" y="1022"/>
      <point x="236" y="1082"/>
      <point x="400" y="1082" type="curve" smooth="yes"/>
      <point x="572" y="1082" type="line"/>
    </contour>
  </outline>
</glyph>
<glyph name="logicalnot" format="2">
  <advance height="2479" width="1023"/>
  <unicode hex="00AC"/>
  <outline>
    <contour>
      <point x="919" y="806" type="line"/>
      <point x="108" y="806" type="line"/>
      <point x="108" y="759" type="line"/>
      <point x="919" y="759" type="line"/>
    </contour>
    <contour>
      <point x="919" y="785" type="line"/>
      <point x="873" y="785" type="line"/>
      <point x="873" y="375" type="line"/>
      <point x="919" y="375" type="line"/>
    </contour>
  </outline>
</glyph>
<glyph name="registered" format="2">
  <advance height="2479" width="1373"/>
  <unicode hex="00AE"/>
  <outline>
    <contour>
      <point x="502" y="666" type="line"/>
      <point x="548" y="666" type="line"/>
      <point x="548" y="1156" type="line"/>
      <point x="730" y="1156" type="line" smooth="yes"/>
      <point x="815" y="1156"/>
      <point x="857" y="1114"/>
      <point x="857" y="1043" type="curve" smooth="yes"/>
      <point x="857" y="972"/>
      <point x="815" y="927"/>
      <point x="730" y="927" type="curve" smooth="yes"/>
      <point x="527" y="927" type="line"/>
      <point x="527" y="880" type="line"/>
      <point x="732" y="880" type="line" smooth="yes"/>
      <point x="842" y="880"/>
      <point x="903" y="950"/>
      <point x="903" y="1043" type="curve" smooth="yes"/>
      <point x="903" y="1136"/>
      <point x="842" y="1203"/>
      <point x="732" y="1203" type="curve" smooth="yes"/>
      <point x="502" y="1203" type="line"/>
    </contour>
    <contour>
      <point x="793" y="908" type="line"/>
      <point x="742" y="908" type="line"/>
      <point x="871" y="666" type="line"/>
      <point x="925" y="666" type="line"/>
    </contour>
    <contour>
      <point x="687" y="346" type="curve" smooth="yes"/>
      <point x="1008" y="346"/>
      <point x="1268" y="607"/>
      <point x="1268" y="928" type="curve" smooth="yes"/>
      <point x="1268" y="1249"/>
      <point x="1008" y="1510"/>
      <point x="687" y="1510" type="curve" smooth="yes"/>
      <point x="365" y="1510"/>
      <point x="105" y="1249"/>
      <point x="105" y="928" type="curve" smooth="yes"/>
      <point x="105" y="607"/>
      <point x="365" y="346"/>
    </contour>
    <contour>
      <point x="687" y="393" type="curve" smooth="yes"/>
      <point x="391" y="393"/>
      <point x="151" y="632"/>
      <point x="151" y="928" type="curve" smooth="yes"/>
      <point x="151" y="1224"/>
      <point x="391" y="1463"/>
      <point x="687" y="1463" type="curve" smooth="yes"/>
      <point x="983" y="1463"/>
      <point x="1222" y="1224"/>
      <point x="1222" y="928" type="curve" smooth="yes"/>
      <point x="1222" y="632"/>
      <point x="983" y="393"/>
    </contour>
  </outline>
</glyph>
<glyph name="twosuperior" format="2">
  <advance height="2479" width="844"/>
  <unicode hex="00B2"/>
  <anchor x="547" y="1196" name="cross"/>
  <outline>
    <contour>
      <point x="122" y="745" type="line"/>
      <point x="724" y="745" type="line"/>
      <point x="724" y="788" type="line"/>
      <point x="189" y="788" type="line"/>
      <point x="189" y="791" type="line"/>
      <point x="471" y="1082" type="line" smooth="yes"/>
      <point x="628" y="1245"/>
      <point x="675" y="1318"/>
      <point x="675" y="1417" type="curve" smooth="yes"/>
      <point x="675" y="1548"/>
      <point x="561" y="1649"/>
      <point x="407" y="1649" type="curve" smooth="yes"/>
      <point x="250" y="1649"/>
      <point x="137" y="1545"/>
      <point x="137" y="1408" type="curve"/>
      <point x="183" y="1408" type="line"/>
      <point x="183" y="1519"/>
      <point x="273" y="1609"/>
      <point x="407" y="1609" type="curve" smooth="yes"/>
      <point x="535" y="1609"/>
      <point x="628" y="1527"/>
      <point x="628" y="1417" type="curve" smooth="yes"/>
      <point x="628" y="1324"/>
      <point x="579" y="1257"/>
      <point x="442" y="1114" type="curve" smooth="yes"/>
      <point x="122" y="780" type="line"/>
    </contour>
  </outline>
</glyph>
<glyph name="acute" format="2">
  <advance height="2479" width="1018"/>
  <unicode hex="00B4"/>
  <anchor x="506" y="1303" name="_top"/>
  <anchor x="509" y="1676" name="top"/>
  <outline>
    <contour>
      <point x="481" y="1280" type="line"/>
      <point x="528" y="1280" type="line"/>
      <point x="743" y="1594" type="line"/>
      <point x="685" y="1594" type="line"/>
    </contour>
  </outline>
</glyph>
<glyph name="micro" format="2">
  <advance height="2479" width="1155"/>
  <unicode hex="00B5"/>
  <outline>
    <contour>
      <point x="192" y="-433" type="line"/>
      <point x="239" y="-433" type="line"/>
      <point x="239" y="177" type="line"/>
      <point x="244" y="177" type="line"/>
      <point x="297" y="61"/>
      <point x="425" y="-15"/>
      <point x="579" y="-15" type="curve" smooth="yes"/>
      <point x="733" y="-15"/>
      <point x="861" y="61"/>
      <point x="913" y="177" type="curve"/>
      <point x="919" y="177" type="line"/>
      <point x="919" y="0" type="line"/>
      <point x="966" y="0" type="line"/>
      <point x="966" y="1117" type="line"/>
      <point x="919" y="1117" type="line"/>
      <point x="919" y="367" type="line" smooth="yes"/>
      <point x="919" y="172"/>
      <point x="777" y="32"/>
      <point x="579" y="32" type="curve" smooth="yes"/>
      <point x="381" y="32"/>
      <point x="239" y="172"/>
      <point x="239" y="367" type="curve" smooth="yes"/>
      <point x="239" y="1117" type="line"/>
      <point x="192" y="1117" type="line"/>
    </contour>
  </outline>
</glyph>
<glyph name="cedilla" format="2">
  <advance height="2479" width="419"/>
  <unicode hex="00B8"/>
  <anchor x="214" y="0" name="_cedilla"/>
  <outline>
    <contour>
      <point x="191" y="6" type="line"/>
      <point x="170" y="-96" type="line"/>
      <point x="276" y="-94"/>
      <point x="331" y="-137"/>
      <point x="332" y="-221" type="curve" smooth="yes"/>
      <point x="331" y="-292"/>
      <point x="289" y="-325"/>
      <point x="180" y="-329" type="curve"/>
      <point x="182" y="-375" type="line"/>
      <point x="310" y="-371"/>
      <point x="377" y="-324"/>
      <point x="378" y="-221" type="curve" smooth="yes"/>
      <point x="377" y="-131"/>
      <point x="326" y="-68"/>
      <point x="227" y="-52" type="curve"/>
      <point x="237" y="6" type="line"/>
    </contour>
  </outline>
</glyph>
<glyph name="ordmasculine" format="2">
  <advance height="2479" width="800"/>
  <unicode hex="00BA"/>
  <outline>
    <contour>
      <point x="87" y="1046" type="line" smooth="yes"/>
      <point x="87" y="824"/>
      <point x="203" y="695"/>
      <point x="399" y="695" type="curve" smooth="yes"/>
      <point x="599" y="696"/>
      <point x="713" y="823"/>
      <point x="713" y="1046" type="curve" smooth="yes"/>
      <point x="713" y="1130" type="line" smooth="yes"/>
      <point x="713" y="1349"/>
      <point x="598" y="1478"/>
      <point x="401" y="1478" type="curve" smooth="yes"/>
      <point x="203" y="1478"/>
      <point x="87" y="1350"/>
      <point x="87" y="1130" type="curve" smooth="yes"/>
    </contour>
    <contour>
      <point x="131" y="1130" type="line" smooth="yes"/>
      <point x="131" y="1320"/>
      <point x="232" y="1434"/>
      <point x="401" y="1434" type="curve" smooth="yes"/>
      <point x="568" y="1434"/>
      <point x="669" y="1319"/>
      <point x="669" y="1130" type="curve" smooth="yes"/>
      <point x="669" y="1046" type="line" smooth="yes"/>
      <point x="669" y="852"/>
      <point x="569" y="738"/>
      <point x="399" y="739" type="curve" smooth="yes"/>
      <point x="231" y="740"/>
      <point x="131" y="855"/>
      <point x="131" y="1046" type="curve" smooth="yes"/>
    </contour>
  </outline>
</glyph>
<glyph name="multiply" format="2">
  <advance height="2479" width="1303"/>
  <unicode hex="00D7"/>
  <outline>
    <contour>
      <point x="1045" y="155" type="line"/>
      <point x="1079" y="188" type="line"/>
      <point x="258" y="1009" type="line"/>
      <point x="225" y="975" type="line"/>
    </contour>
    <contour>
      <point x="258" y="155" type="line"/>
      <point x="1079" y="975" type="line"/>
      <point x="1045" y="1009" type="line"/>
      <point x="225" y="188" type="line"/>
    </contour>
  </outline>
</glyph>
<glyph name="Oslash" format="2">
  <advance height="2479" width="1530"/>
  <unicode hex="00D8"/>
  <anchor x="765" y="0" name="bottom"/>
  <anchor x="800" y="0" name="ogonek"/>
  <anchor x="221" y="1489" name="tonos"/>
  <anchor x="765" y="1676" name="top"/>
  <outline>
    <contour>
      <point x="282" y="-35" type="line"/>
      <point x="1286" y="1498" type="line"/>
      <point x="1248" y="1524" type="line"/>
      <point x="244" y="-9" type="line"/>
    </contour>
    <component base="O"/>
  </outline>
</glyph>
<glyph name="ae" format="2">
  <advance height="2479" width="1888"/>
  <unicode hex="00E6"/>
  <anchor x="945" y="1303" name="top"/>
  <outline>
    <contour>
      <point x="1324" y="-23" type="curve" smooth="yes"/>
      <point x="1542" y="-23"/>
      <point x="1661" y="113"/>
      <point x="1711" y="198" type="curve"/>
      <point x="1673" y="224" type="line"/>
      <point x="1632" y="157"/>
      <point x="1530" y="23"/>
      <point x="1324" y="23" type="curve" smooth="yes"/>
      <point x="1041" y="23"/>
      <point x="884" y="268"/>
      <point x="884" y="561" type="curve" smooth="yes"/>
      <point x="884" y="567" type="line" smooth="yes"/>
      <point x="890" y="864"/>
      <point x="1071" y="1088"/>
      <point x="1300" y="1088" type="curve" smooth="yes"/>
      <point x="1527" y="1088"/>
      <point x="1711" y="873"/>
      <point x="1711" y="605" type="curve"/>
      <point x="870" y="605" type="line"/>
      <point x="870" y="559" type="line"/>
      <point x="1757" y="559" type="line"/>
      <point x="1757" y="605" type="line" smooth="yes"/>
      <point x="1757" y="893"/>
      <point x="1559" y="1135"/>
      <point x="1300" y="1135" type="curve" smooth="yes"/>
      <point x="1112" y="1135"/>
      <point x="958" y="1008"/>
      <point x="884" y="817" type="curve"/>
      <point x="870" y="335" type="line"/>
      <point x="937" y="122"/>
      <point x="1100" y="-23"/>
    </contour>
    <contour>
      <point x="477" y="23" type="curve" smooth="yes"/>
      <point x="311" y="23"/>
      <point x="183" y="134"/>
      <point x="183" y="303" type="curve" smooth="yes"/>
      <point x="183" y="445"/>
      <point x="276" y="535"/>
      <point x="576" y="570" type="curve" smooth="yes"/>
      <point x="704" y="585"/>
      <point x="803" y="605"/>
      <point x="858" y="646" type="curve"/>
      <point x="858" y="477" type="line" smooth="yes"/>
      <point x="858" y="207"/>
      <point x="689" y="23"/>
    </contour>
    <contour>
      <point x="477" y="-23" type="curve" smooth="yes"/>
      <point x="646" y="-23"/>
      <point x="829" y="81"/>
      <point x="896" y="349" type="curve"/>
      <point x="905" y="349" type="line"/>
      <point x="905" y="803" type="line" smooth="yes"/>
      <point x="905" y="992"/>
      <point x="768" y="1135"/>
      <point x="541" y="1135" type="curve" smooth="yes"/>
      <point x="367" y="1135"/>
      <point x="221" y="1047"/>
      <point x="169" y="908" type="curve"/>
      <point x="212" y="890" type="line"/>
      <point x="259" y="1015"/>
      <point x="384" y="1088"/>
      <point x="541" y="1088" type="curve" smooth="yes"/>
      <point x="733" y="1088"/>
      <point x="858" y="975"/>
      <point x="858" y="803" type="curve" smooth="yes"/>
      <point x="858" y="736" type="line" smooth="yes"/>
      <point x="858" y="649"/>
      <point x="713" y="631"/>
      <point x="559" y="614" type="curve" smooth="yes"/>
      <point x="215" y="573"/>
      <point x="137" y="454"/>
      <point x="137" y="303" type="curve" smooth="yes"/>
      <point x="137" y="93"/>
      <point x="294" y="-23"/>
    </contour>
  </outline>
</glyph>
<glyph name="idotless" format="2">
  <advance height="2479" width="454"/>
  <unicode hex="0131"/>
  <anchor x="227" y="0" name="bottom"/>
  <anchor x="227" y="582" name="cross"/>
  <anchor x="250" y="0" name="ogonek"/>
  <anchor x="227" y="1303" name="top"/>
  <outline>
    <contour>
      <point x="204" y="0" type="line"/>
      <point x="250" y="0" type="line"/>
      <point x="250" y="1117" type="line"/>
      <point x="204" y="1117" type="line"/>
    </contour>
  </outline>
</glyph>
<glyph name="Tonesix" format="2">
  <advance height="2479" width="1290"/>
  <unicode hex="0184"/>
  <outline>
    <contour>
      <point x="401" y="1489" type="line"/>
      <point x="16" y="1489" type="line"/>
      <point x="16" y="1443" type="line"/>
      <point x="401" y="1443" type="line"/>
    </contour>
    <contour>
      <point x="381" y="777" type="line"/>
      <point x="381" y="730" type="line"/>
      <point x="913" y="730" type="line" smooth="yes"/>
      <point x="1137" y="730"/>
      <point x="1284" y="602"/>
      <point x="1283" y="407" type="curve" smooth="yes"/>
      <point x="1282" y="180"/>
      <point x="1146" y="47"/>
      <point x="913" y="47" type="curve" smooth="yes"/>
      <point x="401" y="47" type="line"/>
      <point x="401" y="1489" type="line"/>
      <point x="355" y="1489" type="line"/>
      <point x="355" y="0" type="line"/>
      <point x="913" y="0" type="line" smooth="yes"/>
      <point x="1170" y="0"/>
      <point x="1329" y="155"/>
      <point x="1329" y="404" type="curve" smooth="yes"/>
      <point x="1329" y="631"/>
      <point x="1166" y="777"/>
      <point x="913" y="777" type="curve" smooth="yes"/>
    </contour>
  </outline>
</glyph>
<glyph name="Chook" format="2">
  <advance height="2479" width="1444"/>
  <unicode hex="0187"/>
  <anchor x="765" y="0" name="cedilla"/>
  <anchor x="765" y="1676" name="top"/>
  <outline>
    <contour>
      <point x="1335" y="1024" type="line" name="hr00"/>
      <point x="1335" y="1271" type="line" smooth="yes"/>
      <point x="1335" y="1393"/>
      <point x="1370" y="1440"/>
      <point x="1462" y="1440" type="curve" smooth="yes"/>
      <point x="1476" y="1440"/>
      <point x="1489" y="1439"/>
      <point x="1498" y="1437" type="curve"/>
      <point x="1498" y="1484" type="line"/>
      <point x="1489" y="1486"/>
      <point x="1476" y="1487"/>
      <point x="1462" y="1487" type="curve" smooth="yes"/>
      <point x="1343" y="1487"/>
      <point x="1289" y="1419"/>
      <point x="1289" y="1271" type="curve" smooth="yes"/>
      <point x="1289" y="1024" type="line"/>
    </contour>
    <component base="C"/>
  </outline>
</glyph>
<glyph name="chook" format="2">
  <advance height="2479" width="1185"/>
  <unicode hex="0188"/>
  <anchor x="588" y="0" name="cedilla"/>
  <anchor x="588" y="1303" name="top"/>
  <outline>
    <contour>
      <point x="998" y="791" type="line" name="hr00"/>
      <point x="998" y="963" type="line" smooth="yes"/>
      <point x="998" y="1086"/>
      <point x="1033" y="1132"/>
      <point x="1136" y="1132" type="curve" smooth="yes"/>
      <point x="1155" y="1132"/>
      <point x="1182" y="1130"/>
      <point x="1207" y="1127" type="curve"/>
      <point x="1207" y="1174" type="line"/>
      <point x="1183" y="1177"/>
      <point x="1156" y="1178"/>
      <point x="1136" y="1178" type="curve" smooth="yes"/>
      <point x="1008" y="1178"/>
      <point x="951" y="1113"/>
      <point x="951" y="963" type="curve" smooth="yes"/>
      <point x="951" y="791" type="line"/>
    </contour>
    <component base="c"/>
  </outline>
</glyph>
<glyph name="Dtopbar" format="2">
  <advance height="2479" width="1365"/>
  <unicode hex="018B"/>
  <outline>
    <contour>
      <point x="573" y="0" type="curve" smooth="yes"/>
      <point x="1132" y="0" type="line"/>
      <point x="1132" y="1489" type="line"/>
      <point x="323" y="1489" type="line"/>
      <point x="323" y="1443" type="line"/>
      <point x="1085" y="1443" type="line"/>
      <point x="1085" y="777" type="line"/>
      <point x="573" y="777" type="line" smooth="yes"/>
      <point x="321" y="777"/>
      <point x="157" y="630"/>
      <point x="157" y="404" type="curve" smooth="yes"/>
      <point x="157" y="156"/>
      <point x="316" y="0"/>
    </contour>
    <contour>
      <point x="573" y="47" type="line" smooth="yes"/>
      <point x="340" y="47"/>
      <point x="204" y="180"/>
      <point x="204" y="407" type="curve" smooth="yes"/>
      <point x="204" y="602"/>
      <point x="349" y="730"/>
      <point x="573" y="730" type="curve" smooth="yes"/>
      <point x="1085" y="730" type="line"/>
      <point x="1085" y="47" type="line"/>
    </contour>
  </outline>
</glyph>
<glyph name="deltaturned" format="2">
  <advance height="2479" width="1129"/>
  <unicode hex="018D"/>
  <outline>
    <contour>
      <point x="545" y="-448" type="curve" smooth="yes"/>
      <point x="756" y="-448"/>
      <point x="881" y="-347"/>
      <point x="881" y="-177" type="curve" smooth="yes"/>
      <point x="881" y="-47"/>
      <point x="802" y="41"/>
      <point x="618" y="118" type="curve"/>
      <point x="618" y="121" type="line"/>
      <point x="868" y="177"/>
      <point x="998" y="368"/>
      <point x="998" y="620" type="curve" smooth="yes"/>
      <point x="998" y="900"/>
      <point x="845" y="1132"/>
      <point x="564" y="1132" type="curve" smooth="yes"/>
      <point x="282" y="1132"/>
      <point x="131" y="902"/>
      <point x="131" y="620" type="curve" smooth="yes"/>
      <point x="131" y="369"/>
      <point x="268" y="215"/>
      <point x="522" y="111" type="curve" smooth="yes"/>
      <point x="760" y="13"/>
      <point x="835" y="-55"/>
      <point x="835" y="-173" type="curve" smooth="yes"/>
      <point x="835" y="-319"/>
      <point x="732" y="-401"/>
      <point x="547" y="-401" type="curve" smooth="yes"/>
      <point x="449" y="-401"/>
      <point x="360" y="-381"/>
      <point x="276" y="-339" type="curve"/>
      <point x="276" y="-388" type="line"/>
      <point x="349" y="-426"/>
      <point x="448" y="-448"/>
    </contour>
    <contour>
      <point x="541" y="150" type="curve"/>
      <point x="306" y="252"/>
      <point x="177" y="385"/>
      <point x="177" y="620" type="curve" smooth="yes"/>
      <point x="177" y="872"/>
      <point x="309" y="1085"/>
      <point x="564" y="1085" type="curve" smooth="yes"/>
      <point x="823" y="1085"/>
      <point x="951" y="870"/>
      <point x="951" y="620" type="curve" smooth="yes"/>
      <point x="951" y="352"/>
      <point x="800" y="188"/>
    </contour>
  </outline>
</glyph>
<glyph name="Eopen" format="2">
  <advance height="2479" width="1187"/>
  <unicode hex="0190"/>
  <outline>
    <contour>
      <point x="589" y="-23" type="curve" smooth="yes"/>
      <point x="871" y="-23"/>
      <point x="1049" y="148"/>
      <point x="1079" y="372" type="curve"/>
      <point x="1033" y="372" type="line"/>
      <point x="1004" y="172"/>
      <point x="846" y="23"/>
      <point x="591" y="23" type="curve" smooth="yes"/>
      <point x="328" y="23"/>
      <point x="169" y="181"/>
      <point x="169" y="380" type="curve" smooth="yes"/>
      <point x="169" y="593"/>
      <point x="353" y="745"/>
      <point x="637" y="745" type="curve" smooth="yes"/>
      <point x="733" y="745" type="line"/>
      <point x="733" y="775" type="line"/>
      <point x="476" y="775" type="line"/>
      <point x="247" y="719"/>
      <point x="122" y="569"/>
      <point x="122" y="380" type="curve" smooth="yes"/>
      <point x="122" y="151"/>
      <point x="304" y="-23"/>
    </contour>
    <contour>
      <point x="486" y="767" type="curve"/>
      <point x="733" y="767" type="line"/>
      <point x="733" y="791" type="line"/>
      <point x="637" y="791" type="line" smooth="yes"/>
      <point x="371" y="791"/>
      <point x="198" y="929"/>
      <point x="198" y="1133" type="curve" smooth="yes"/>
      <point x="198" y="1325"/>
      <point x="349" y="1463"/>
      <point x="588" y="1463" type="curve" smooth="yes"/>
      <point x="825" y="1463"/>
      <point x="954" y="1321"/>
      <point x="983" y="1117" type="curve"/>
      <point x="1030" y="1117" type="line"/>
      <point x="1001" y="1347"/>
      <point x="851" y="1510"/>
      <point x="588" y="1510" type="curve" smooth="yes"/>
      <point x="324" y="1510"/>
      <point x="151" y="1351"/>
      <point x="151" y="1133" type="curve" smooth="yes"/>
      <point x="151" y="961"/>
      <point x="259" y="817"/>
    </contour>
  </outline>
</glyph>
<glyph name="florin" format="2">
  <advance height="2479" width="608"/>
  <unicode hex="0192"/>
  <outline>
    <contour>
      <point x="525" y="1073" type="line"/>
      <point x="327" y="1073" type="line"/>
      <point x="327" y="1300" type="line" smooth="yes"/>
      <point x="327" y="1431"/>
      <point x="426" y="1510"/>
      <point x="537" y="1510" type="curve" smooth="yes"/>
      <point x="566" y="1510"/>
      <point x="588" y="1505"/>
      <point x="611" y="1497" type="curve"/>
      <point x="625" y="1540" type="line"/>
      <point x="598" y="1551"/>
      <point x="572" y="1556"/>
      <point x="537" y="1556" type="curve" smooth="yes"/>
      <point x="400" y="1556"/>
      <point x="281" y="1457"/>
      <point x="281" y="1300" type="curve" smooth="yes"/>
      <point x="281" y="1073" type="line"/>
      <point x="83" y="1073" type="line"/>
      <point x="83" y="1027" type="line"/>
      <point x="281" y="1027" type="line"/>
      <point x="281" y="-163" type="line" smooth="yes"/>
      <point x="281" y="-294"/>
      <point x="182" y="-372"/>
      <point x="71" y="-372" type="curve" smooth="yes"/>
      <point x="42" y="-372"/>
      <point x="20" y="-368"/>
      <point x="-4" y="-359" type="curve"/>
      <point x="-19" y="-403" type="line"/>
      <point x="10" y="-413"/>
      <point x="36" y="-419"/>
      <point x="71" y="-419" type="curve" smooth="yes"/>
      <point x="208" y="-419"/>
      <point x="327" y="-320"/>
      <point x="327" y="-163" type="curve" smooth="yes"/>
      <point x="327" y="1027" type="line"/>
      <point x="525" y="1027" type="line"/>
    </contour>
  </outline>
</glyph>
<glyph name="Mturned" format="2">
  <advance height="2479" width="1827"/>
  <unicode hex="019C"/>
  <outline>
    <contour>
      <point x="585" y="-23" type="curve" smooth="yes"/>
      <point x="780" y="-23"/>
      <point x="937" y="134"/>
      <point x="922" y="358" type="curve"/>
      <point x="890" y="358" type="line"/>
      <point x="890" y="160"/>
      <point x="753" y="23"/>
      <point x="585" y="23" type="curve" smooth="yes"/>
      <point x="387" y="23"/>
      <point x="279" y="160"/>
      <point x="279" y="358" type="curve" smooth="yes"/>
      <point x="279" y="1489" type="line"/>
      <point x="233" y="1489" type="line"/>
      <point x="233" y="358" type="line" smooth="yes"/>
      <point x="233" y="134"/>
      <point x="361" y="-23"/>
    </contour>
    <contour>
      <point x="1242" y="-23" type="curve" smooth="yes"/>
      <point x="1437" y="-23"/>
      <point x="1594" y="134"/>
      <point x="1580" y="358" type="curve"/>
      <point x="1548" y="358" type="line"/>
      <point x="1548" y="160"/>
      <point x="1411" y="23"/>
      <point x="1242" y="23" type="curve" smooth="yes"/>
      <point x="1044" y="23"/>
      <point x="937" y="160"/>
      <point x="937" y="358" type="curve" smooth="yes"/>
      <point x="937" y="1489" type="line"/>
      <point x="890" y="1489" type="line"/>
      <point x="890" y="358" type="line" smooth="yes"/>
      <point x="890" y="134"/>
      <point x="1018" y="-23"/>
    </contour>
    <contour>
      <point x="1548" y="0" type="line"/>
      <point x="1594" y="0" type="line"/>
      <point x="1594" y="1489" type="line"/>
      <point x="1548" y="1489" type="line"/>
    </contour>
  </outline>
</glyph>
<glyph name="Nhookleft" format="2">
  <advance height="2479" width="1529"/>
  <unicode hex="019D"/>
  <anchor x="737" y="0" name="bottom"/>
  <anchor x="1246" y="0" name="right"/>
  <anchor x="737" y="1676" name="top"/>
  <outline>
    <contour>
      <point x="179" y="0" type="line"/>
      <point x="179" y="-169" type="line" smooth="yes"/>
      <point x="179" y="-304"/>
      <point x="128" y="-369"/>
      <point x="23" y="-369" type="curve" smooth="yes"/>
      <point x="1" y="-369"/>
      <point x="-16" y="-367"/>
      <point x="-29" y="-364" type="curve"/>
      <point x="-29" y="-410" type="line"/>
      <point x="-15" y="-414"/>
      <point x="6" y="-416"/>
      <point x="28" y="-416" type="curve" smooth="yes"/>
      <point x="156" y="-416"/>
      <point x="225" y="-329"/>
      <point x="225" y="-169" type="curve" smooth="yes"/>
      <point x="225" y="0" type="line"/>
    </contour>
    <component base="N" xOffset="-54"/>
  </outline>
</glyph>
<glyph name="ohorn" format="2">
  <advance height="2479" width="1155"/>
  <unicode hex="01A1"/>
  <anchor x="593" y="0" name="bottom"/>
  <anchor x="643" y="0" name="ogonek"/>
  <anchor x="593" y="1303" name="top"/>
  <outline>
    <contour>
      <point x="1069" y="1220" type="line"/>
      <point x="1069" y="1069"/>
      <point x="1027" y="999"/>
      <point x="897" y="988" type="curve"/>
      <point x="897" y="941" type="line"/>
      <point x="1055" y="953"/>
      <point x="1116" y="1047"/>
      <point x="1116" y="1220" type="curve"/>
    </contour>
    <component base="o"/>
  </outline>
</glyph>
<glyph name="Oi" format="2">
  <advance height="2479" width="1581"/>
  <unicode hex="01A2"/>
  <outline>
    <contour>
      <point x="1126" y="785" type="line"/>
      <point x="1079" y="785" type="line"/>
      <point x="1079" y="185" type="line"/>
      <point x="1017" y="90"/>
      <point x="881" y="26"/>
      <point x="739" y="26" type="curve" smooth="yes"/>
      <point x="439" y="26"/>
      <point x="196" y="294"/>
      <point x="195" y="672" type="curve" smooth="yes"/>
      <point x="195" y="714" type="line"/>
      <point x="148" y="714" type="line"/>
      <point x="148" y="672" type="line" smooth="yes"/>
      <point x="148" y="269"/>
      <point x="415" y="-20"/>
      <point x="736" y="-20" type="curve" smooth="yes"/>
      <point x="897" y="-20"/>
      <point x="1044" y="51"/>
      <point x="1126" y="173" type="curve"/>
    </contour>
    <contour>
      <point x="1126" y="1331" type="line"/>
      <point x="1034" y="1444"/>
      <point x="890" y="1510"/>
      <point x="736" y="1510" type="curve" smooth="yes"/>
      <point x="400" y="1510"/>
      <point x="148" y="1199"/>
      <point x="148" y="787" type="curve" smooth="yes"/>
      <point x="148" y="701" type="line"/>
      <point x="195" y="701" type="line"/>
      <point x="195" y="787" type="line" smooth="yes"/>
      <point x="195" y="1175"/>
      <point x="428" y="1463"/>
      <point x="736" y="1463" type="curve" smooth="yes"/>
      <point x="874" y="1463"/>
      <point x="1007" y="1405"/>
      <point x="1079" y="1308" type="curve"/>
      <point x="1079" y="671" type="line"/>
      <point x="1126" y="671" type="line"/>
    </contour>
    <contour>
      <point x="1348" y="1489" type="line"/>
      <point x="1281" y="1489" type="line"/>
      <point x="1089" y="1338" type="line"/>
      <point x="1089" y="1279" type="line"/>
      <point x="1302" y="1446" type="line"/>
      <point x="1302" y="-419" type="line"/>
      <point x="1348" y="-419" type="line"/>
    </contour>
  </outline>
</glyph>
<glyph name="Phook" format="2">
  <advance height="2479" width="1361"/>
  <unicode hex="01A4"/>
  <anchor x="308" y="1489" name="tonos"/>
  <anchor x="756" y="1676" name="top"/>
  <outline>
    <contour>
      <point x="172" y="1228" type="line"/>
      <point x="172" y="1254" type="line" smooth="yes"/>
      <point x="172" y="1391"/>
      <point x="215" y="1443"/>
      <point x="326" y="1443" type="curve" smooth="yes"/>
      <point x="454" y="1443" type="line" name="hr00"/>
      <point x="454" y="1489" type="line"/>
      <point x="323" y="1489" type="line" smooth="yes"/>
      <point x="195" y="1489"/>
      <point x="126" y="1416"/>
      <point x="125" y="1280" type="curve" smooth="yes"/>
      <point x="125" y="1228" type="line"/>
    </contour>
    <component base="P" xOffset="119"/>
  </outline>
</glyph>
<glyph name="phook" format="2">
  <advance height="2479" width="1201"/>
  <unicode hex="01A5"/>
  <anchor x="221" y="-419" name="bottom"/>
  <anchor x="1152" y="-506" name="bottom0315"/>
  <anchor x="221" y="-163" name="cross"/>
  <anchor x="628" y="1303" name="top"/>
  <outline>
    <contour>
      <point x="239" y="1117" type="line"/>
      <point x="239" y="1268"/>
      <point x="274" y="1306"/>
      <point x="377" y="1306" type="curve" smooth="yes"/>
      <point x="396" y="1306"/>
      <point x="423" y="1305"/>
      <point x="448" y="1302" type="curve"/>
      <point x="448" y="1348" type="line"/>
      <point x="423" y="1351"/>
      <point x="396" y="1353"/>
      <point x="377" y="1353" type="curve" smooth="yes"/>
      <point x="249" y="1353"/>
      <point x="192" y="1295"/>
      <point x="192" y="1117" type="curve"/>
    </contour>
    <component base="p"/>
  </outline>
</glyph>
<glyph name="Thook" format="2">
  <advance height="2479" width="1257"/>
  <unicode hex="01AC"/>
  <outline>
    <contour>
      <point x="454" y="1489" type="line"/>
      <point x="323" y="1489" type="line" smooth="yes"/>
      <point x="195" y="1489"/>
      <point x="126" y="1416"/>
      <point x="125" y="1280" type="curve" smooth="yes"/>
      <point x="125" y="1228" type="line"/>
      <point x="172" y="1228" type="line"/>
      <point x="172" y="1254" type="line" smooth="yes"/>
      <point x="172" y="1391"/>
      <point x="215" y="1443"/>
      <point x="326" y="1443" type="curve" smooth="yes"/>
      <point x="454" y="1443" type="line" name="hr00"/>
    </contour>
    <contour>
      <point x="1132" y="1489" type="line"/>
      <point x="372" y="1489" type="line"/>
      <point x="372" y="1443" type="line"/>
      <point x="605" y="1443" type="line"/>
      <point x="605" y="0" type="line"/>
      <point x="652" y="0" type="line"/>
      <point x="652" y="1443" type="line"/>
      <point x="1132" y="1443" type="line"/>
    </contour>
  </outline>
</glyph>
<glyph name="thook" format="2">
  <advance height="2479" width="713"/>
  <unicode hex="01AD"/>
  <outline>
    <contour>
      <point x="524" y="-20" type="curve" smooth="yes"/>
      <point x="559" y="-20"/>
      <point x="585" y="-14"/>
      <point x="614" y="-3" type="curve"/>
      <point x="599" y="41" type="line"/>
      <point x="574" y="31"/>
      <point x="552" y="26"/>
      <point x="524" y="26" type="curve" smooth="yes"/>
      <point x="412" y="26"/>
      <point x="314" y="105"/>
      <point x="314" y="236" type="curve" smooth="yes"/>
      <point x="314" y="1242" type="line"/>
      <point x="268" y="1242" type="line"/>
      <point x="268" y="236" type="line" smooth="yes"/>
      <point x="268" y="79"/>
      <point x="386" y="-20"/>
    </contour>
    <contour>
      <point x="105" y="1071" type="line"/>
      <point x="547" y="1071" type="line"/>
      <point x="547" y="1117" type="line"/>
      <point x="105" y="1117" type="line"/>
    </contour>
    <contour>
      <point x="268" y="1228" type="line"/>
      <point x="314" y="1228" type="line"/>
      <point x="314" y="1295" type="line" smooth="yes"/>
      <point x="314" y="1418"/>
      <point x="351" y="1463"/>
      <point x="452" y="1463" type="curve" smooth="yes"/>
      <point x="471" y="1463"/>
      <point x="499" y="1462"/>
      <point x="524" y="1459" type="curve"/>
      <point x="524" y="1505" type="line"/>
      <point x="499" y="1508"/>
      <point x="473" y="1510"/>
      <point x="452" y="1510" type="curve" smooth="yes"/>
      <point x="324" y="1510"/>
      <point x="268" y="1446"/>
      <point x="268" y="1295" type="curve"/>
    </contour>
  </outline>
</glyph>
<glyph name="yhook" format="2">
  <advance height="2479" width="1117"/>
  <unicode hex="01B4"/>
  <outline>
    <contour>
      <point x="249" y="-419" type="curve" smooth="yes"/>
      <point x="358" y="-419"/>
      <point x="446" y="-344"/>
      <point x="496" y="-204" type="curve" smooth="yes"/>
      <point x="966" y="1117" type="line" smooth="yes"/>
      <point x="1018" y="1264"/>
      <point x="1059" y="1306"/>
      <point x="1145" y="1306" type="curve" smooth="yes"/>
      <point x="1180" y="1306"/>
      <point x="1212" y="1302"/>
      <point x="1233" y="1292" type="curve"/>
      <point x="1233" y="1338" type="line"/>
      <point x="1213" y="1348"/>
      <point x="1181" y="1353"/>
      <point x="1148" y="1353" type="curve" smooth="yes"/>
      <point x="1037" y="1353"/>
      <point x="980" y="1297"/>
      <point x="916" y="1117" type="curve" smooth="yes"/>
      <point x="538" y="58" type="line"/>
      <point x="532" y="58" type="line"/>
      <point x="154" y="1117" type="line"/>
      <point x="105" y="1117" type="line"/>
      <point x="512" y="-20" type="line"/>
      <point x="452" y="-186" type="line" smooth="yes"/>
      <point x="392" y="-353"/>
      <point x="285" y="-411"/>
      <point x="141" y="-349" type="curve"/>
      <point x="124" y="-390" type="line"/>
      <point x="167" y="-409"/>
      <point x="211" y="-419"/>
    </contour>
  </outline>
</glyph>
<glyph name="Ezh" format="2">
  <advance height="2479" width="1420"/>
  <unicode hex="01B7"/>
  <anchor x="710" y="1676" name="top"/>
  <outline>
    <contour>
      <point x="125" y="73" type="line"/>
      <point x="125" y="-230"/>
      <point x="377" y="-442"/>
      <point x="692" y="-442" type="curve" smooth="yes"/>
      <point x="1055" y="-442"/>
      <point x="1263" y="-157"/>
      <point x="1263" y="144" type="curve" smooth="yes"/>
      <point x="1263" y="492"/>
      <point x="989" y="751"/>
      <point x="588" y="768" type="curve"/>
      <point x="588" y="774" type="line"/>
      <point x="1213" y="1452" type="line"/>
      <point x="1213" y="1489" type="line"/>
      <point x="204" y="1489" type="line"/>
      <point x="204" y="1443" type="line"/>
      <point x="1167" y="1443" type="line"/>
      <point x="1167" y="1470" type="line"/>
      <point x="518" y="768" type="line"/>
      <point x="518" y="721" type="line"/>
      <point x="585" y="721" type="line" smooth="yes"/>
      <point x="956" y="705"/>
      <point x="1216" y="471"/>
      <point x="1216" y="144" type="curve" smooth="yes"/>
      <point x="1216" y="-169"/>
      <point x="994" y="-396"/>
      <point x="692" y="-396" type="curve" smooth="yes"/>
      <point x="398" y="-396"/>
      <point x="172" y="-199"/>
      <point x="172" y="73" type="curve"/>
    </contour>
  </outline>
</glyph>
<glyph name="Ezhreversed" format="2">
  <advance height="2479" width="1420"/>
  <unicode hex="01B8"/>
  <anchor x="710" y="1676" name="top"/>
  <outline>
    <contour>
      <point x="1295" y="73" type="curve"/>
      <point x="1248" y="73" type="line"/>
      <point x="1248" y="-199"/>
      <point x="1022" y="-396"/>
      <point x="727" y="-396" type="curve" smooth="yes"/>
      <point x="425" y="-396"/>
      <point x="204" y="-169"/>
      <point x="204" y="144" type="curve" smooth="yes"/>
      <point x="204" y="471"/>
      <point x="463" y="705"/>
      <point x="835" y="721" type="curve" smooth="yes"/>
      <point x="902" y="721" type="line"/>
      <point x="902" y="768" type="line"/>
      <point x="253" y="1471" type="line"/>
      <point x="253" y="1443" type="line"/>
      <point x="1216" y="1443" type="line"/>
      <point x="1216" y="1489" type="line"/>
      <point x="207" y="1489" type="line"/>
      <point x="207" y="1452" type="line"/>
      <point x="832" y="774" type="line"/>
      <point x="832" y="768" type="line"/>
      <point x="431" y="751"/>
      <point x="157" y="492"/>
      <point x="157" y="144" type="curve" smooth="yes"/>
      <point x="157" y="-157"/>
      <point x="364" y="-442"/>
      <point x="727" y="-442" type="curve" smooth="yes"/>
      <point x="1042" y="-442"/>
      <point x="1295" y="-230"/>
    </contour>
  </outline>
</glyph>
<glyph name="Tonefive" format="2">
  <advance height="2479" width="1142"/>
  <unicode hex="01BC"/>
  <outline>
    <contour>
      <point x="303" y="1489" type="line"/>
      <point x="61" y="1489" type="line"/>
      <point x="61" y="1443" type="line"/>
      <point x="303" y="1443" type="line"/>
    </contour>
    <component base="five" xOffset="-35"/>
  </outline>
</glyph>
<glyph name="wynn" format="2">
  <advance height="2479" width="1097"/>
  <unicode hex="01BF"/>
  <outline>
    <contour>
      <point x="212" y="-164" type="line"/>
      <point x="642" y="-43"/>
      <point x="966" y="316"/>
      <point x="966" y="695" type="curve" smooth="yes"/>
      <point x="966" y="951"/>
      <point x="818" y="1135"/>
      <point x="591" y="1135" type="curve" smooth="yes"/>
      <point x="351" y="1135"/>
      <point x="211" y="929"/>
      <point x="211" y="569" type="curve"/>
      <point x="244" y="569" type="line"/>
      <point x="244" y="899"/>
      <point x="370" y="1088"/>
      <point x="587" y="1088" type="curve" smooth="yes"/>
      <point x="788" y="1088"/>
      <point x="919" y="924"/>
      <point x="919" y="695" type="curve" smooth="yes"/>
      <point x="919" y="345"/>
      <point x="615" y="6"/>
      <point x="212" y="-118" type="curve"/>
    </contour>
    <contour>
      <point x="198" y="-419" type="line"/>
      <point x="244" y="-419" type="line"/>
      <point x="244" y="807" type="line"/>
      <point x="250" y="848" type="line"/>
      <point x="244" y="848" type="line"/>
      <point x="244" y="1117" type="line"/>
      <point x="198" y="1117" type="line"/>
    </contour>
  </outline>
</glyph>
<glyph name="clickdental" format="2">
  <advance height="2479" width="381"/>
  <unicode hex="01C0"/>
  <outline>
    <contour>
      <point x="215" y="1516" type="line"/>
      <point x="169" y="1516" type="line"/>
      <point x="169" y="0" type="line"/>
      <point x="215" y="0" type="line"/>
    </contour>
  </outline>
</glyph>
<glyph name="Gstroke" format="2">
  <advance height="2479" width="1513"/>
  <unicode hex="01E4"/>
  <anchor x="756" y="0" name="bottom"/>
  <anchor x="756" y="1676" name="top"/>
  <outline>
    <contour>
      <point x="1455" y="407" type="line"/>
      <point x="785" y="407" type="line"/>
      <point x="785" y="361" type="line"/>
      <point x="1455" y="361" type="line"/>
    </contour>
    <component base="G"/>
  </outline>
</glyph>
<glyph name="Wynn" format="2">
  <advance height="2479" width="1245"/>
  <unicode hex="01F7"/>
  <outline>
    <contour>
      <point x="247" y="-113" type="line"/>
      <point x="759" y="1"/>
      <point x="1097" y="393"/>
      <point x="1097" y="887" type="curve" smooth="yes"/>
      <point x="1097" y="1258"/>
      <point x="907" y="1510"/>
      <point x="628" y="1510" type="curve" smooth="yes"/>
      <point x="504" y="1510"/>
      <point x="356" y="1460"/>
      <point x="246" y="1386" type="curve"/>
      <point x="268" y="1344" type="line"/>
      <point x="372" y="1416"/>
      <point x="511" y="1463"/>
      <point x="625" y="1463" type="curve" smooth="yes"/>
      <point x="878" y="1463"/>
      <point x="1049" y="1231"/>
      <point x="1049" y="890" type="curve" smooth="yes"/>
      <point x="1049" y="426"/>
      <point x="730" y="50"/>
      <point x="247" y="-67" type="curve"/>
    </contour>
    <contour>
      <point x="233" y="-419" type="line"/>
      <point x="279" y="-419" type="line"/>
      <point x="279" y="1489" type="line"/>
      <point x="233" y="1489" type="line"/>
    </contour>
  </outline>
</glyph>
<glyph name="Nlongrightleg" format="2">
  <advance height="2479" width="1318"/>
  <unicode hex="0220"/>
  <outline>
    <contour>
      <point x="1039" y="-419" type="line"/>
      <point x="1085" y="-419" type="line"/>
      <point x="1085" y="1001" type="line" smooth="yes"/>
      <point x="1085" y="1300"/>
      <point x="914" y="1510"/>
      <point x="663" y="1510" type="curve" smooth="yes"/>
      <point x="489" y="1510"/>
      <point x="345" y="1409"/>
      <point x="286" y="1253" type="curve"/>
      <point x="279" y="1253" type="line"/>
      <point x="279" y="1490" type="line"/>
      <point x="233" y="1490" type="line"/>
      <point x="233" y="0" type="line"/>
      <point x="279" y="0" type="line"/>
      <point x="279" y="1001" type="line" smooth="yes"/>
      <point x="279" y="1261"/>
      <point x="440" y="1463"/>
      <point x="663" y="1463" type="curve" smooth="yes"/>
      <point x="885" y="1463"/>
      <point x="1039" y="1265"/>
      <point x="1039" y="1001" type="curve" smooth="yes"/>
    </contour>
  </outline>
</glyph>
<glyph name="zhook" format="2">
  <advance height="2479" width="1041"/>
  <unicode hex="0225"/>
  <outline>
    <contour>
      <point x="925" y="-186" type="line"/>
      <point x="972" y="-186" type="line"/>
      <point x="972" y="-156" type="line" smooth="yes"/>
      <point x="972" y="-29"/>
      <point x="900" y="47"/>
      <point x="774" y="47" type="curve" smooth="yes"/>
      <point x="211" y="47" type="line"/>
      <point x="884" y="1071" type="line"/>
      <point x="884" y="1117" type="line"/>
      <point x="201" y="1117" type="line"/>
      <point x="201" y="1071" type="line"/>
      <point x="829" y="1071" type="line"/>
      <point x="157" y="47" type="line"/>
      <point x="157" y="0" type="line"/>
      <point x="771" y="0" type="line" smooth="yes"/>
      <point x="883" y="0"/>
      <point x="925" y="-52"/>
      <point x="925" y="-182" type="curve" smooth="yes"/>
    </contour>
  </outline>
</glyph>
<glyph name="tcurl" format="2">
  <advance height="2479" width="896"/>
  <unicode hex="0236"/>
  <outline>
    <contour>
      <point x="285" y="1385" type="line"/>
      <point x="285" y="230" type="line" smooth="yes"/>
      <point x="285" y="88"/>
      <point x="399" y="-20"/>
      <point x="544" y="-20" type="curve" smooth="yes"/>
      <point x="686" y="-20"/>
      <point x="797" y="81"/>
      <point x="797" y="207" type="curve" smooth="yes"/>
      <point x="797" y="332"/>
      <point x="686" y="433"/>
      <point x="541" y="433" type="curve" smooth="yes"/>
      <point x="392" y="433"/>
      <point x="277" y="327"/>
      <point x="105" y="26" type="curve"/>
      <point x="145" y="3" type="line"/>
      <point x="310" y="290"/>
      <point x="412" y="387"/>
      <point x="541" y="387" type="curve" smooth="yes"/>
      <point x="659" y="387"/>
      <point x="751" y="306"/>
      <point x="751" y="207" type="curve" smooth="yes"/>
      <point x="751" y="107"/>
      <point x="660" y="26"/>
      <point x="544" y="26" type="curve" smooth="yes"/>
      <point x="423" y="26"/>
      <point x="332" y="113"/>
      <point x="332" y="230" type="curve" smooth="yes"/>
      <point x="332" y="1385" type="line"/>
    </contour>
    <contour>
      <point x="564" y="1117" type="line"/>
      <point x="122" y="1117" type="line"/>
      <point x="122" y="1071" type="line"/>
      <point x="564" y="1071" type="line"/>
    </contour>
  </outline>
</glyph>
<glyph name="cstroke" format="2">
  <advance height="2479" width="1187"/>
  <unicode hex="023C"/>
  <anchor x="621" y="0" name="cedilla"/>
  <anchor x="621" y="1303" name="top"/>
  <outline>
    <contour>
      <point x="1056" y="1489" type="line"/>
      <point x="1007" y="1489" type="line"/>
      <point x="131" y="-419" type="line"/>
      <point x="186" y="-419" type="line"/>
    </contour>
    <component base="c" xOffset="33"/>
  </outline>
</glyph>
<glyph name="Glottalstop" format="2">
  <advance height="2479" width="1178"/>
  <unicode hex="0241"/>
  <outline>
    <contour>
      <point x="564" y="458" type="line"/>
      <point x="847" y="458"/>
      <point x="1033" y="669"/>
      <point x="1033" y="993" type="curve" smooth="yes"/>
      <point x="1033" y="1312"/>
      <point x="853" y="1524"/>
      <point x="582" y="1524" type="curve" smooth="yes"/>
      <point x="365" y="1524"/>
      <point x="201" y="1389"/>
      <point x="166" y="1181" type="curve"/>
      <point x="215" y="1181" type="line"/>
      <point x="246" y="1360"/>
      <point x="391" y="1478"/>
      <point x="580" y="1478" type="curve" smooth="yes"/>
      <point x="825" y="1478"/>
      <point x="986" y="1284"/>
      <point x="986" y="993" type="curve" smooth="yes"/>
      <point x="986" y="697"/>
      <point x="819" y="505"/>
      <point x="564" y="505" type="curve"/>
    </contour>
    <contour>
      <point x="541" y="0" type="line"/>
      <point x="588" y="0" type="line"/>
      <point x="588" y="505" type="line"/>
      <point x="541" y="505" type="line"/>
    </contour>
  </outline>
</glyph>
<glyph name="Ubar" format="2">
  <advance height="2479" width="1480"/>
  <unicode hex="0244"/>
  <anchor x="730" y="-23" name="bottom"/>
  <anchor x="793" y="0" name="ogonek"/>
  <anchor x="791" y="0" name="right"/>
  <anchor x="730" y="1676" name="top"/>
  <outline>
    <contour>
      <point x="1484" y="876" type="line"/>
      <point x="-3" y="876" type="line"/>
      <point x="-3" y="829" type="line"/>
      <point x="1484" y="829" type="line"/>
    </contour>
    <component base="U" xOffset="-38"/>
  </outline>
</glyph>
<glyph name="Vturned" format="2">
  <advance height="2479" width="1263"/>
  <unicode hex="0245"/>
  <outline>
    <contour>
      <point x="67" y="0" type="line"/>
      <point x="116" y="0" type="line"/>
      <point x="628" y="1431" type="line"/>
      <point x="634" y="1431" type="line"/>
      <point x="1146" y="0" type="line"/>
      <point x="1196" y="0" type="line"/>
      <point x="663" y="1489" type="line"/>
      <point x="599" y="1489" type="line"/>
    </contour>
  </outline>
</glyph>
<glyph name="Estroke" format="2">
  <advance height="2479" width="1196"/>
  <unicode hex="0246"/>
  <anchor x="599" y="0" name="bottom"/>
  <anchor x="602" y="0" name="cedilla"/>
  <anchor x="1047" y="0" name="ogonek"/>
  <anchor x="180" y="1489" name="tonos"/>
  <anchor x="634" y="1676" name="top"/>
  <outline>
    <contour>
      <point x="365" y="-189" type="line"/>
      <point x="409" y="-189" type="line"/>
      <point x="948" y="1679" type="line"/>
      <point x="905" y="1679" type="line"/>
    </contour>
    <component base="E"/>
  </outline>
</glyph>
<glyph name="estroke" format="2">
  <advance height="2479" width="1214"/>
  <unicode hex="0247"/>
  <anchor x="624" y="0" name="bottom"/>
  <anchor x="626" y="0" name="cedilla"/>
  <anchor x="673" y="0" name="ogonek"/>
  <anchor x="624" y="1303" name="top"/>
  <outline>
    <contour>
      <point x="1056" y="1489" type="line"/>
      <point x="1007" y="1489" type="line"/>
      <point x="131" y="-419" type="line"/>
      <point x="186" y="-419" type="line"/>
    </contour>
    <component base="e" xOffset="33"/>
  </outline>
</glyph>
<glyph name="Qhooktail" format="2">
  <advance height="2479" width="1530"/>
  <unicode hex="024A"/>
  <outline>
    <contour>
      <point x="1292" y="1489" type="line"/>
      <point x="1245" y="1489" type="line"/>
      <point x="1245" y="1105" type="line"/>
      <point x="1241" y="1105" type="line"/>
      <point x="1156" y="1374"/>
      <point x="994" y="1510"/>
      <point x="765" y="1510" type="curve" smooth="yes"/>
      <point x="399" y="1510"/>
      <point x="148" y="1200"/>
      <point x="148" y="745" type="curve" smooth="yes"/>
      <point x="148" y="292"/>
      <point x="397" y="-20"/>
      <point x="758" y="-20" type="curve" smooth="yes"/>
      <point x="989" y="-20"/>
      <point x="1155" y="118"/>
      <point x="1241" y="381" type="curve"/>
      <point x="1245" y="381" type="line"/>
      <point x="1245" y="-201" type="line" smooth="yes"/>
      <point x="1245" y="-351"/>
      <point x="1301" y="-416"/>
      <point x="1430" y="-416" type="curve" smooth="yes"/>
      <point x="1453" y="-416"/>
      <point x="1479" y="-415"/>
      <point x="1501" y="-412" type="curve"/>
      <point x="1501" y="-365" type="line"/>
      <point x="1480" y="-368"/>
      <point x="1453" y="-369"/>
      <point x="1430" y="-369" type="curve" smooth="yes"/>
      <point x="1328" y="-369"/>
      <point x="1292" y="-324"/>
      <point x="1292" y="-201" type="curve" smooth="yes"/>
    </contour>
    <contour>
      <point x="765" y="26" type="curve" smooth="yes"/>
      <point x="425" y="26"/>
      <point x="195" y="316"/>
      <point x="195" y="745" type="curve" smooth="yes"/>
      <point x="195" y="1172"/>
      <point x="425" y="1463"/>
      <point x="765" y="1463" type="curve" smooth="yes"/>
      <point x="1064" y="1463"/>
      <point x="1249" y="1190"/>
      <point x="1249" y="745" type="curve" smooth="yes"/>
      <point x="1250" y="295"/>
      <point x="1068" y="26"/>
    </contour>
  </outline>
</glyph>
<glyph name="Ystroke" format="2">
  <advance height="2479" width="1249"/>
  <unicode hex="024E"/>
  <anchor x="625" y="0" name="bottom"/>
  <anchor x="628" y="605" name="cross"/>
  <anchor x="652" y="0" name="ogonek"/>
  <anchor x="44" y="1489" name="tonos"/>
  <anchor x="628" y="1676" name="top"/>
  <outline>
    <contour>
      <point x="1257" y="1174" type="line"/>
      <point x="-6" y="1174" type="line"/>
      <point x="-6" y="1127" type="line"/>
      <point x="1257" y="1127" type="line"/>
    </contour>
    <component base="Y"/>
  </outline>
</glyph>
<glyph name="ystroke" format="2">
  <advance height="2479" width="1071"/>
  <unicode hex="024F"/>
  <anchor x="739" y="-86" name="bottom"/>
  <anchor x="560" y="-419" name="ogonek"/>
  <anchor x="535" y="1303" name="top"/>
  <outline>
    <contour>
      <point x="954" y="809" type="line" name="hr00"/>
      <point x="131" y="809" type="line"/>
      <point x="131" y="762" type="line"/>
      <point x="954" y="762" type="line"/>
    </contour>
    <component base="y"/>
  </outline>
</glyph>
<glyph name="bhook" format="2">
  <advance height="2479" width="1225"/>
  <unicode hex="0253"/>
  <outline>
    <contour>
      <point x="663" y="-23" type="curve" smooth="yes"/>
      <point x="928" y="-23"/>
      <point x="1094" y="225"/>
      <point x="1094" y="556" type="curve" smooth="yes"/>
      <point x="1094" y="884"/>
      <point x="925" y="1135"/>
      <point x="663" y="1135" type="curve" smooth="yes"/>
      <point x="486" y="1135"/>
      <point x="343" y="1018"/>
      <point x="285" y="832" type="curve"/>
      <point x="279" y="832" type="line"/>
      <point x="279" y="1295" type="line" smooth="yes"/>
      <point x="279" y="1418"/>
      <point x="316" y="1463"/>
      <point x="417" y="1463" type="curve" smooth="yes"/>
      <point x="436" y="1463"/>
      <point x="464" y="1462"/>
      <point x="489" y="1459" type="curve"/>
      <point x="489" y="1505" type="line"/>
      <point x="464" y="1508"/>
      <point x="438" y="1510"/>
      <point x="417" y="1510" type="curve" smooth="yes"/>
      <point x="289" y="1510"/>
      <point x="233" y="1446"/>
      <point x="233" y="1295" type="curve" smooth="yes"/>
      <point x="233" y="0" type="line"/>
      <point x="279" y="0" type="line"/>
      <point x="279" y="279" type="line"/>
      <point x="285" y="279" type="line"/>
      <point x="346" y="95"/>
      <point x="484" y="-23"/>
    </contour>
    <contour>
      <point x="663" y="23" type="curve" smooth="yes"/>
      <point x="426" y="23"/>
      <point x="279" y="253"/>
      <point x="279" y="556" type="curve" smooth="yes"/>
      <point x="279" y="858"/>
      <point x="428" y="1088"/>
      <point x="663" y="1088" type="curve" smooth="yes"/>
      <point x="899" y="1088"/>
      <point x="1047" y="858"/>
      <point x="1047" y="556" type="curve" smooth="yes"/>
      <point x="1047" y="253"/>
      <point x="900" y="23"/>
    </contour>
  </outline>
</glyph>
<glyph name="ccurl" format="2">
  <advance height="2479" width="1123"/>
  <unicode hex="0255"/>
  <outline>
    <contour>
      <point x="602" y="-23" type="curve"/>
      <point x="602" y="23" type="line"/>
      <point x="351" y="23"/>
      <point x="172" y="245"/>
      <point x="172" y="556" type="curve" smooth="yes"/>
      <point x="172" y="863"/>
      <point x="351" y="1088"/>
      <point x="593" y="1088" type="curve" smooth="yes"/>
      <point x="772" y="1088"/>
      <point x="913" y="969"/>
      <point x="943" y="791" type="curve"/>
      <point x="992" y="791" type="line"/>
      <point x="958" y="992"/>
      <point x="795" y="1135"/>
      <point x="593" y="1135" type="curve" smooth="yes"/>
      <point x="324" y="1135"/>
      <point x="125" y="887"/>
      <point x="125" y="556" type="curve" smooth="yes"/>
      <point x="125" y="220"/>
      <point x="324" y="-23"/>
    </contour>
    <contour>
      <point x="92" y="-23" type="line"/>
      <point x="203" y="169"/>
      <point x="398" y="454"/>
      <point x="649" y="454" type="curve" smooth="yes"/>
      <point x="789" y="454"/>
      <point x="887" y="360"/>
      <point x="887" y="244" type="curve" smooth="yes"/>
      <point x="887" y="118"/>
      <point x="767" y="23"/>
      <point x="602" y="23" type="curve"/>
      <point x="602" y="-23" type="line"/>
      <point x="792" y="-23"/>
      <point x="934" y="90"/>
      <point x="934" y="244" type="curve" smooth="yes"/>
      <point x="934" y="385"/>
      <point x="815" y="500"/>
      <point x="649" y="500" type="curve" smooth="yes"/>
      <point x="375" y="500"/>
      <point x="174" y="207"/>
      <point x="49" y="0" type="curve"/>
    </contour>
  </outline>
</glyph>
<glyph name="ereversed" format="2">
  <advance height="2479" width="1181"/>
  <unicode hex="0258"/>
  <anchor x="591" y="0" name="bottom"/>
  <anchor x="588" y="0" name="cedilla"/>
  <anchor x="541" y="0" name="ogonek"/>
  <anchor x="591" y="1303" name="top"/>
  <outline>
    <contour>
      <point x="564" y="-23" type="curve" smooth="yes"/>
      <point x="857" y="-23"/>
      <point x="1050" y="227"/>
      <point x="1050" y="556" type="curve" smooth="yes"/>
      <point x="1050" y="884"/>
      <point x="852" y="1135"/>
      <point x="588" y="1135" type="curve" smooth="yes"/>
      <point x="328" y="1135"/>
      <point x="131" y="894"/>
      <point x="131" y="605" type="curve" smooth="yes"/>
      <point x="131" y="559" type="line"/>
      <point x="1027" y="559" type="line"/>
      <point x="1027" y="605" type="line"/>
      <point x="177" y="605" type="line"/>
      <point x="177" y="873"/>
      <point x="361" y="1088"/>
      <point x="588" y="1088" type="curve" smooth="yes"/>
      <point x="817" y="1088"/>
      <point x="998" y="864"/>
      <point x="1004" y="567" type="curve" smooth="yes"/>
      <point x="1004" y="561" type="line" smooth="yes"/>
      <point x="1004" y="268"/>
      <point x="846" y="23"/>
      <point x="564" y="23" type="curve" smooth="yes"/>
      <point x="359" y="23"/>
      <point x="256" y="157"/>
      <point x="215" y="224" type="curve"/>
      <point x="177" y="198" type="line"/>
      <point x="227" y="113"/>
      <point x="347" y="-23"/>
    </contour>
  </outline>
</glyph>
<glyph name="hhook" format="2">
  <advance height="2479" width="1164"/>
  <unicode hex="0266"/>
  <anchor x="582" y="0" name="bottom"/>
  <anchor x="585" y="1303" name="top"/>
  <outline>
    <contour>
      <point x="244" y="1094" type="line" name="hr00"/>
      <point x="244" y="1295" type="line" smooth="yes"/>
      <point x="244" y="1417"/>
      <point x="280" y="1463"/>
      <point x="383" y="1463" type="curve" smooth="yes"/>
      <point x="401" y="1463"/>
      <point x="428" y="1462"/>
      <point x="454" y="1459" type="curve"/>
      <point x="454" y="1505" type="line"/>
      <point x="429" y="1508"/>
      <point x="402" y="1510"/>
      <point x="383" y="1510" type="curve" smooth="yes"/>
      <point x="255" y="1510"/>
      <point x="198" y="1445"/>
      <point x="198" y="1295" type="curve" smooth="yes"/>
      <point x="198" y="1094" type="line"/>
    </contour>
    <component base="n"/>
  </outline>
</glyph>
<glyph name="Ismall" format="2">
  <advance height="2479" width="506"/>
  <unicode hex="026A"/>
  <outline>
    <contour>
      <point x="442" y="1117" type="line" name="hr00"/>
      <point x="64" y="1117" type="line"/>
      <point x="64" y="1071" type="line"/>
      <point x="442" y="1071" type="line"/>
    </contour>
    <contour>
      <point x="272" y="1117" type="line"/>
      <point x="225" y="1117" type="line"/>
      <point x="225" y="0" type="line"/>
      <point x="272" y="0" type="line"/>
    </contour>
    <contour>
      <point x="442" y="47" type="line"/>
      <point x="64" y="47" type="line"/>
      <point x="64" y="0" type="line"/>
      <point x="442" y="0" type="line"/>
    </contour>
  </outline>
</glyph>
<glyph name="lbelt" format="2">
  <advance height="2479" width="685"/>
  <unicode hex="026C"/>
  <outline>
    <contour>
      <point x="608" y="678" type="line"/>
      <point x="608" y="724" type="line"/>
      <point x="275" y="723" type="line" smooth="yes"/>
      <point x="157" y="722"/>
      <point x="65" y="804"/>
      <point x="65" y="903" type="curve" smooth="yes"/>
      <point x="65" y="1003"/>
      <point x="156" y="1084"/>
      <point x="243" y="1084" type="curve" smooth="yes"/>
      <point x="364" y="1084"/>
      <point x="426" y="996"/>
      <point x="426" y="880" type="curve" smooth="yes"/>
      <point x="426" y="660" type="line"/>
      <point x="473" y="660" type="line"/>
      <point x="473" y="880" type="line"/>
      <point x="473" y="1022"/>
      <point x="388" y="1130"/>
      <point x="243" y="1130" type="curve" smooth="yes"/>
      <point x="130" y="1130"/>
      <point x="19" y="1029"/>
      <point x="19" y="903" type="curve" smooth="yes"/>
      <point x="19" y="777"/>
      <point x="130" y="676"/>
      <point x="275" y="676" type="curve" smooth="yes"/>
    </contour>
    <contour>
      <point x="473" y="1489" type="line"/>
      <point x="426" y="1489" type="line"/>
      <point x="426" y="0" type="line"/>
      <point x="473" y="0" type="line"/>
    </contour>
  </outline>
</glyph>
<glyph name="lhookretroflex" format="2">
  <advance height="2479" width="428"/>
  <unicode hex="026D"/>
  <anchor x="221" y="0" name="bottom"/>
  <anchor x="221" y="768" name="cross"/>
  <anchor x="381" y="1489" name="raccent"/>
  <anchor x="221" y="1676" name="top"/>
  <outline>
    <contour>
      <point x="244" y="15" type="line" name="hr00"/>
      <point x="198" y="15" type="line"/>
      <point x="198" y="-201" type="line" smooth="yes"/>
      <point x="198" y="-351"/>
      <point x="255" y="-416"/>
      <point x="383" y="-416" type="curve" smooth="yes"/>
      <point x="402" y="-416"/>
      <point x="429" y="-415"/>
      <point x="454" y="-412" type="curve"/>
      <point x="454" y="-365" type="line"/>
      <point x="428" y="-368"/>
      <point x="401" y="-369"/>
      <point x="383" y="-369" type="curve" smooth="yes"/>
      <point x="280" y="-369"/>
      <point x="244" y="-324"/>
      <point x="244" y="-201" type="curve" smooth="yes"/>
    </contour>
    <component base="l"/>
  </outline>
</glyph>
<glyph name="lezh" format="2">
  <advance height="2479" width="1324"/>
  <unicode hex="026E"/>
  <anchor x="256" y="0" name="bottom"/>
  <anchor x="256" y="768" name="cross"/>
  <anchor x="416" y="1489" name="raccent"/>
  <anchor x="256" y="1676" name="top"/>
  <outline>
    <contour>
      <point x="711" y="-442" type="curve" smooth="yes"/>
      <point x="975" y="-442"/>
      <point x="1167" y="-244"/>
      <point x="1167" y="22" type="curve" smooth="yes"/>
      <point x="1167" y="287"/>
      <point x="975" y="461"/>
      <point x="685" y="474" type="curve"/>
      <point x="685" y="480" type="line"/>
      <point x="1162" y="1079" type="line"/>
      <point x="1162" y="1117" type="line"/>
      <point x="274" y="1117" type="line"/>
      <point x="274" y="1071" type="line"/>
      <point x="1092" y="1071" type="line"/>
      <point x="1092" y="1065" type="line"/>
      <point x="624" y="477" type="line"/>
      <point x="624" y="431" type="line"/>
      <point x="627" y="431" type="line" smooth="yes"/>
      <point x="924" y="431"/>
      <point x="1120" y="273"/>
      <point x="1120" y="20" type="curve" smooth="yes"/>
      <point x="1120" y="-217"/>
      <point x="948" y="-396"/>
      <point x="711" y="-396" type="curve" smooth="yes"/>
      <point x="543" y="-396"/>
      <point x="410" y="-332"/>
      <point x="359" y="-201" type="curve"/>
      <point x="316" y="-218" type="line"/>
      <point x="372" y="-367"/>
      <point x="524" y="-442"/>
    </contour>
    <component base="l" xOffset="35"/>
  </outline>
</glyph>
<glyph name="Nsmall" format="2">
  <advance height="2479" width="1234"/>
  <unicode hex="0274"/>
  <outline>
    <contour>
      <point x="1036" y="1117" type="line"/>
      <point x="989" y="1117" type="line"/>
      <point x="989" y="87" type="line"/>
      <point x="983" y="87" type="line"/>
      <point x="244" y="1117" type="line"/>
      <point x="198" y="1117" type="line"/>
      <point x="198" y="0" type="line"/>
      <point x="244" y="0" type="line"/>
      <point x="244" y="1030" type="line"/>
      <point x="250" y="1030" type="line"/>
      <point x="989" y="0" type="line"/>
      <point x="1036" y="0" type="line"/>
    </contour>
  </outline>
</glyph>
<glyph name="omegaclosed-latin" format="2">
  <advance height="2479" width="1414"/>
  <unicode hex="0277"/>
  <outline>
    <contour>
      <point x="708" y="1135" type="line"/>
      <point x="291" y="1134"/>
      <point x="47" y="918"/>
      <point x="47" y="524" type="curve" smooth="yes"/>
      <point x="47" y="200"/>
      <point x="191" y="-17"/>
      <point x="409" y="-20" type="curve" smooth="yes"/>
      <point x="609" y="-23"/>
      <point x="730" y="159"/>
      <point x="730" y="463" type="curve" smooth="yes"/>
      <point x="730" y="643" type="line"/>
      <point x="684" y="643" type="line"/>
      <point x="684" y="448" type="line" smooth="yes"/>
      <point x="684" y="192"/>
      <point x="572" y="26"/>
      <point x="410" y="26" type="curve" smooth="yes"/>
      <point x="225" y="26"/>
      <point x="92" y="241"/>
      <point x="93" y="524" type="curve" smooth="yes"/>
      <point x="95" y="893"/>
      <point x="317" y="1087"/>
      <point x="708" y="1088" type="curve"/>
    </contour>
    <contour>
      <point x="705" y="1088" type="line"/>
      <point x="1097" y="1087"/>
      <point x="1319" y="893"/>
      <point x="1321" y="524" type="curve" smooth="yes"/>
      <point x="1322" y="241"/>
      <point x="1188" y="26"/>
      <point x="1004" y="26" type="curve" smooth="yes"/>
      <point x="841" y="26"/>
      <point x="730" y="192"/>
      <point x="730" y="448" type="curve" smooth="yes"/>
      <point x="730" y="643" type="line"/>
      <point x="684" y="643" type="line"/>
      <point x="684" y="463" type="line" smooth="yes"/>
      <point x="684" y="159"/>
      <point x="805" y="-23"/>
      <point x="1005" y="-20" type="curve" smooth="yes"/>
      <point x="1223" y="-17"/>
      <point x="1367" y="200"/>
      <point x="1367" y="524" type="curve" smooth="yes"/>
      <point x="1367" y="918"/>
      <point x="1123" y="1134"/>
      <point x="705" y="1135" type="curve"/>
    </contour>
  </outline>
</glyph>
<glyph name="rtail" format="2">
  <advance height="2479" width="666"/>
  <unicode hex="027D"/>
  <anchor x="221" y="0" name="bottom"/>
  <anchor x="221" y="535" name="cross"/>
  <anchor x="428" y="1303" name="top"/>
  <outline>
    <contour>
      <point x="404" y="-393" type="curve" smooth="yes"/>
      <point x="416" y="-393"/>
      <point x="431" y="-393"/>
      <point x="442" y="-393" type="curve"/>
      <point x="442" y="-346" type="line"/>
      <point x="431" y="-346"/>
      <point x="416" y="-346"/>
      <point x="404" y="-346" type="curve" smooth="yes"/>
      <point x="311" y="-346"/>
      <point x="244" y="-280"/>
      <point x="244" y="-186" type="curve" smooth="yes"/>
      <point x="244" y="0" type="line"/>
      <point x="198" y="0" type="line"/>
      <point x="198" y="-186" type="line" smooth="yes"/>
      <point x="198" y="-307"/>
      <point x="284" y="-393"/>
    </contour>
    <component base="r"/>
  </outline>
</glyph>
<glyph name="rfishhook" format="2">
  <advance height="2479" width="479"/>
  <unicode hex="027E"/>
  <outline>
    <contour>
      <point x="246" y="0" type="line"/>
      <point x="246" y="922" type="line" smooth="yes"/>
      <point x="246" y="1073"/>
      <point x="281" y="1111"/>
      <point x="384" y="1111" type="curve" smooth="yes"/>
      <point x="403" y="1111"/>
      <point x="430" y="1110"/>
      <point x="455" y="1107" type="curve"/>
      <point x="455" y="1153" type="line"/>
      <point x="431" y="1156"/>
      <point x="404" y="1158"/>
      <point x="384" y="1158" type="curve" smooth="yes"/>
      <point x="256" y="1158"/>
      <point x="199" y="1101"/>
      <point x="199" y="922" type="curve" smooth="yes"/>
      <point x="199" y="0" type="line"/>
    </contour>
  </outline>
</glyph>
<glyph name="Rsmall" format="2">
  <advance height="2479" width="1119"/>
  <unicode hex="0280"/>
  <outline>
    <contour>
      <point x="203" y="0" type="line"/>
      <point x="249" y="0" type="line"/>
      <point x="249" y="1072" type="line"/>
      <point x="578" y="1071" type="line" smooth="yes"/>
      <point x="792" y="1070"/>
      <point x="880" y="1004"/>
      <point x="880" y="826" type="curve" smooth="yes"/>
      <point x="880" y="649"/>
      <point x="789" y="582"/>
      <point x="578" y="582" type="curve" smooth="yes"/>
      <point x="226" y="582" type="line"/>
      <point x="226" y="535" type="line"/>
      <point x="578" y="535" type="line" smooth="yes"/>
      <point x="819" y="535"/>
      <point x="927" y="626"/>
      <point x="927" y="826" type="curve" smooth="yes"/>
      <point x="927" y="1028"/>
      <point x="820" y="1117"/>
      <point x="578" y="1117" type="curve" smooth="yes"/>
      <point x="203" y="1117" type="line"/>
    </contour>
    <contour>
      <point x="963" y="0" type="line"/>
      <point x="1017" y="0" type="line"/>
      <point x="687" y="556" type="line"/>
      <point x="633" y="556" type="line"/>
    </contour>
  </outline>
</glyph>
<glyph name="esh" format="2">
  <advance height="2479" width="654"/>
  <unicode hex="0283"/>
  <outline>
    <contour>
      <point x="61" y="-442" type="curve" smooth="yes"/>
      <point x="199" y="-442"/>
      <point x="317" y="-343"/>
      <point x="317" y="-186" type="curve" smooth="yes"/>
      <point x="317" y="1300" type="line" smooth="yes"/>
      <point x="317" y="1431"/>
      <point x="415" y="1510"/>
      <point x="527" y="1510" type="curve" smooth="yes"/>
      <point x="555" y="1510"/>
      <point x="577" y="1505"/>
      <point x="601" y="1497" type="curve"/>
      <point x="615" y="1540" type="line"/>
      <point x="588" y="1550"/>
      <point x="561" y="1556"/>
      <point x="527" y="1556" type="curve" smooth="yes"/>
      <point x="389" y="1556"/>
      <point x="271" y="1457"/>
      <point x="271" y="1300" type="curve" smooth="yes"/>
      <point x="271" y="-186" type="line" smooth="yes"/>
      <point x="271" y="-316"/>
      <point x="172" y="-396"/>
      <point x="61" y="-396" type="curve" smooth="yes"/>
      <point x="33" y="-396"/>
      <point x="11" y="-391"/>
      <point x="-15" y="-381" type="curve"/>
      <point x="-29" y="-425" type="line"/>
      <point x="0" y="-436"/>
      <point x="26" y="-442"/>
    </contour>
  </outline>
</glyph>
<glyph name="eshsquatreversed" format="2">
  <advance height="2479" width="788"/>
  <unicode hex="0285"/>
  <outline>
    <contour>
      <point x="417" y="112" type="line"/>
      <point x="417" y="879" type="line" smooth="yes"/>
      <point x="417" y="1025"/>
      <point x="308" y="1135"/>
      <point x="161" y="1135" type="curve" smooth="yes"/>
      <point x="125" y="1135"/>
      <point x="84" y="1129"/>
      <point x="58" y="1119" type="curve"/>
      <point x="58" y="1075" type="line"/>
      <point x="93" y="1084"/>
      <point x="132" y="1088"/>
      <point x="161" y="1088" type="curve" smooth="yes"/>
      <point x="282" y="1088"/>
      <point x="371" y="1002"/>
      <point x="371" y="879" type="curve" smooth="yes"/>
      <point x="371" y="112" type="line"/>
    </contour>
    <contour>
      <point x="371" y="527" type="line"/>
      <point x="371" y="-188" type="line" smooth="yes"/>
      <point x="371" y="-335"/>
      <point x="480" y="-444"/>
      <point x="630" y="-444" type="curve" smooth="yes"/>
      <point x="657" y="-444"/>
      <point x="703" y="-441"/>
      <point x="737" y="-432" type="curve"/>
      <point x="737" y="-385" type="line"/>
      <point x="703" y="-393"/>
      <point x="657" y="-397"/>
      <point x="631" y="-397" type="curve" smooth="yes"/>
      <point x="506" y="-397"/>
      <point x="417" y="-308"/>
      <point x="417" y="-188" type="curve" smooth="yes"/>
      <point x="417" y="527" type="line"/>
    </contour>
  </outline>
</glyph>
<glyph name="upsilon-latin" format="2">
  <advance height="2479" width="1187"/>
  <unicode hex="028A"/>
  <outline>
    <contour>
      <point x="593" y="-23" type="curve" smooth="yes"/>
      <point x="872" y="-23"/>
      <point x="1055" y="186"/>
      <point x="1055" y="493" type="curve" smooth="yes"/>
      <point x="1055" y="744"/>
      <point x="932" y="964"/>
      <point x="748" y="1059" type="curve"/>
      <point x="748" y="1071" type="line"/>
      <point x="1056" y="1071" type="line"/>
      <point x="1056" y="1117" type="line"/>
      <point x="701" y="1117" type="line"/>
      <point x="701" y="1044" type="line"/>
      <point x="886" y="946"/>
      <point x="1008" y="732"/>
      <point x="1009" y="495" type="curve" smooth="yes"/>
      <point x="1010" y="216"/>
      <point x="846" y="25"/>
      <point x="595" y="25" type="curve" smooth="yes"/>
      <point x="345" y="25"/>
      <point x="179" y="215"/>
      <point x="177" y="493" type="curve" smooth="yes"/>
      <point x="177" y="732"/>
      <point x="299" y="946"/>
      <point x="486" y="1044" type="curve"/>
      <point x="486" y="1117" type="line"/>
      <point x="131" y="1117" type="line"/>
      <point x="131" y="1071" type="line"/>
      <point x="439" y="1071" type="line"/>
      <point x="439" y="1059" type="line"/>
      <point x="255" y="964"/>
      <point x="132" y="745"/>
      <point x="132" y="495" type="curve" smooth="yes"/>
      <point x="132" y="186"/>
      <point x="315" y="-23"/>
    </contour>
  </outline>
</glyph>
<glyph name="vhook" format="2">
  <advance height="2479" width="1206"/>
  <unicode hex="028B"/>
  <outline>
    <contour>
      <point x="564" y="-20" type="curve" smooth="yes"/>
      <point x="836" y="-20"/>
      <point x="1008" y="228"/>
      <point x="1008" y="620" type="curve" smooth="yes"/>
      <point x="1008" y="903"/>
      <point x="919" y="1135"/>
      <point x="775" y="1135" type="curve" smooth="yes"/>
      <point x="742" y="1135"/>
      <point x="691" y="1121"/>
      <point x="652" y="1107" type="curve"/>
      <point x="662" y="1062" type="line"/>
      <point x="697" y="1074"/>
      <point x="749" y="1088"/>
      <point x="775" y="1088" type="curve" smooth="yes"/>
      <point x="885" y="1088"/>
      <point x="961" y="860"/>
      <point x="961" y="608" type="curve" smooth="yes"/>
      <point x="961" y="252"/>
      <point x="809" y="26"/>
      <point x="563" y="26" type="curve" smooth="yes"/>
      <point x="375" y="26"/>
      <point x="247" y="158"/>
      <point x="246" y="419" type="curve" smooth="yes"/>
      <point x="244" y="1117" type="line"/>
      <point x="199" y="1117" type="line"/>
      <point x="198" y="422" type="line" smooth="yes"/>
      <point x="197" y="137"/>
      <point x="346" y="-20"/>
    </contour>
  </outline>
</glyph>
<glyph name="Ysmall" format="2">
  <advance height="2479" width="943"/>
  <unicode hex="028F"/>
  <outline>
    <contour>
      <point x="448" y="0" type="line"/>
      <point x="495" y="0" type="line"/>
      <point x="495" y="531" type="line"/>
      <point x="890" y="1117" type="line"/>
      <point x="836" y="1117" type="line"/>
      <point x="474" y="585" type="line"/>
      <point x="470" y="585" type="line"/>
      <point x="106" y="1117" type="line"/>
      <point x="52" y="1117" type="line"/>
      <point x="448" y="531" type="line"/>
    </contour>
  </outline>
</glyph>
<glyph name="zretroflexhook" format="2">
  <advance height="2479" width="1105"/>
  <unicode hex="0290"/>
  <anchor x="503" y="0" name="bottom"/>
  <anchor x="521" y="559" name="cross"/>
  <anchor x="521" y="1303" name="top"/>
  <outline>
    <contour>
      <point x="867" y="15" type="line"/>
      <point x="867" y="-201" type="line" smooth="yes"/>
      <point x="867" y="-351"/>
      <point x="924" y="-416"/>
      <point x="1052" y="-416" type="curve" smooth="yes"/>
      <point x="1072" y="-416"/>
      <point x="1098" y="-415"/>
      <point x="1123" y="-412" type="curve"/>
      <point x="1123" y="-365" type="line"/>
      <point x="1097" y="-368"/>
      <point x="1071" y="-369"/>
      <point x="1052" y="-369" type="curve" smooth="yes"/>
      <point x="949" y="-369"/>
      <point x="913" y="-324"/>
      <point x="913" y="-201" type="curve" smooth="yes"/>
      <point x="913" y="15" type="line" name="hr00"/>
    </contour>
    <component base="z"/>
  </outline>
</glyph>
<glyph name="ezhcurl" format="2">
  <advance height="2479" width="1243"/>
  <unicode hex="0293"/>
  <outline>
    <contour>
      <point x="239" y="1117" type="line"/>
      <point x="239" y="1071" type="line"/>
      <point x="953" y="1071" type="line"/>
      <point x="953" y="1065" type="line"/>
      <point x="486" y="492" type="line"/>
      <point x="486" y="445" type="line"/>
      <point x="489" y="445" type="line" smooth="yes"/>
      <point x="830" y="445"/>
      <point x="1015" y="317"/>
      <point x="1015" y="93" type="curve" smooth="yes"/>
      <point x="1015" y="-159"/>
      <point x="793" y="-374"/>
      <point x="532" y="-374" type="curve" smooth="yes"/>
      <point x="355" y="-374"/>
      <point x="239" y="-285"/>
      <point x="239" y="-151" type="curve" smooth="yes"/>
      <point x="239" y="-20"/>
      <point x="332" y="73"/>
      <point x="463" y="73" type="curve" smooth="yes"/>
      <point x="565" y="73"/>
      <point x="668" y="15"/>
      <point x="801" y="-116" type="curve" smooth="yes"/>
      <point x="1020" y="-332" type="line"/>
      <point x="1050" y="-298" type="line"/>
      <point x="839" y="-90" type="line" smooth="yes"/>
      <point x="691" y="56"/>
      <point x="577" y="119"/>
      <point x="465" y="119" type="curve" smooth="yes"/>
      <point x="308" y="119"/>
      <point x="192" y="6"/>
      <point x="192" y="-147" type="curve" smooth="yes"/>
      <point x="192" y="-312"/>
      <point x="327" y="-420"/>
      <point x="532" y="-420" type="curve" smooth="yes"/>
      <point x="820" y="-420"/>
      <point x="1062" y="-186"/>
      <point x="1062" y="93" type="curve" smooth="yes"/>
      <point x="1062" y="329"/>
      <point x="879" y="473"/>
      <point x="547" y="489" type="curve"/>
      <point x="547" y="495" type="line"/>
      <point x="1024" y="1079" type="line"/>
      <point x="1024" y="1117" type="line"/>
    </contour>
  </outline>
</glyph>
<glyph name="glottalstop" format="2">
  <advance height="2479" width="1129"/>
  <unicode hex="0294"/>
  <anchor x="529" y="230" name="cross"/>
  <outline>
    <contour>
      <point x="529" y="458" type="line"/>
      <point x="812" y="458"/>
      <point x="998" y="669"/>
      <point x="998" y="993" type="curve" smooth="yes"/>
      <point x="998" y="1312"/>
      <point x="818" y="1524"/>
      <point x="547" y="1524" type="curve" smooth="yes"/>
      <point x="330" y="1524"/>
      <point x="166" y="1389"/>
      <point x="131" y="1181" type="curve"/>
      <point x="180" y="1181" type="line"/>
      <point x="211" y="1360"/>
      <point x="356" y="1478"/>
      <point x="545" y="1478" type="curve" smooth="yes"/>
      <point x="790" y="1478"/>
      <point x="951" y="1284"/>
      <point x="951" y="993" type="curve" smooth="yes"/>
      <point x="951" y="697"/>
      <point x="784" y="505"/>
      <point x="529" y="505" type="curve"/>
    </contour>
    <contour>
      <point x="506" y="0" type="line"/>
      <point x="553" y="0" type="line"/>
      <point x="553" y="505" type="line"/>
      <point x="506" y="505" type="line"/>
    </contour>
  </outline>
</glyph>
<glyph name="Gsmallhook" format="2">
  <advance height="2479" width="1216"/>
  <unicode hex="029B"/>
  <outline>
    <contour>
      <point x="1028" y="765" type="line" name="hr00"/>
      <point x="1028" y="884" type="line" smooth="yes"/>
      <point x="1028" y="1007"/>
      <point x="1064" y="1053"/>
      <point x="1167" y="1053" type="curve" smooth="yes"/>
      <point x="1185" y="1053"/>
      <point x="1212" y="1052"/>
      <point x="1238" y="1049" type="curve"/>
      <point x="1238" y="1095" type="line"/>
      <point x="1213" y="1098"/>
      <point x="1186" y="1100"/>
      <point x="1167" y="1100" type="curve" smooth="yes"/>
      <point x="1039" y="1100"/>
      <point x="982" y="1035"/>
      <point x="982" y="884" type="curve" smooth="yes"/>
      <point x="982" y="765" type="line"/>
    </contour>
    <component base="Gsmall"/>
  </outline>
</glyph>
<glyph name="qhook" format="2">
  <advance height="2479" width="1240"/>
  <unicode hex="02A0"/>
  <anchor x="969" y="-419" name="bottom"/>
  <anchor x="38" y="-506" name="bottom0315"/>
  <anchor x="969" y="-163" name="cross"/>
  <anchor x="561" y="1303" name="top"/>
  <outline>
    <contour>
      <point x="992" y="1117" type="line"/>
      <point x="992" y="1268"/>
      <point x="1028" y="1306"/>
      <point x="1130" y="1306" type="curve" smooth="yes"/>
      <point x="1149" y="1306"/>
      <point x="1176" y="1305"/>
      <point x="1201" y="1302" type="curve"/>
      <point x="1201" y="1348" type="line"/>
      <point x="1177" y="1351"/>
      <point x="1150" y="1353"/>
      <point x="1130" y="1353" type="curve" smooth="yes"/>
      <point x="1002" y="1353"/>
      <point x="945" y="1295"/>
      <point x="945" y="1117" type="curve"/>
    </contour>
    <contour>
      <point x="992" y="-419" type="line"/>
      <point x="992" y="1117" type="line"/>
      <point x="945" y="1117" type="line"/>
      <point x="945" y="832" type="line"/>
      <point x="940" y="832" type="line"/>
      <point x="879" y="1017"/>
      <point x="741" y="1135"/>
      <point x="561" y="1135" type="curve" smooth="yes"/>
      <point x="297" y="1135"/>
      <point x="131" y="886"/>
      <point x="131" y="556" type="curve" smooth="yes"/>
      <point x="131" y="227"/>
      <point x="300" y="-23"/>
      <point x="561" y="-23" type="curve" smooth="yes"/>
      <point x="739" y="-23"/>
      <point x="881" y="93"/>
      <point x="940" y="279" type="curve"/>
      <point x="945" y="279" type="line"/>
      <point x="945" y="-419" type="line"/>
    </contour>
    <contour>
      <point x="945" y="556" type="curve" smooth="yes"/>
      <point x="945" y="253"/>
      <point x="797" y="23"/>
      <point x="561" y="23" type="curve" smooth="yes"/>
      <point x="326" y="23"/>
      <point x="177" y="253"/>
      <point x="177" y="556" type="curve" smooth="yes"/>
      <point x="177" y="858"/>
      <point x="324" y="1088"/>
      <point x="561" y="1088" type="curve" smooth="yes"/>
      <point x="799" y="1088"/>
      <point x="945" y="858"/>
    </contour>
  </outline>
</glyph>
<glyph name="dzcurl" format="2">
  <advance height="2479" width="2121"/>
  <unicode hex="02A5"/>
  <anchor x="596" y="0" name="bottom"/>
  <anchor x="969" y="1280" name="cross"/>
  <anchor x="1123" y="1489" name="raccent"/>
  <anchor x="576" y="1489" name="top"/>
  <outline>
    <contour>
      <point x="1729" y="0" type="line"/>
      <point x="1824" y="0" type="line"/>
      <point x="1967" y="0"/>
      <point x="2077" y="102"/>
      <point x="2077" y="227" type="curve" smooth="yes"/>
      <point x="2077" y="353"/>
      <point x="1967" y="454"/>
      <point x="1821" y="454" type="curve" smooth="yes"/>
      <point x="1690" y="454"/>
      <point x="1591" y="368"/>
      <point x="1444" y="143" type="curve" smooth="yes"/>
      <point x="1277" y="-115" type="line"/>
      <point x="1316" y="-138" type="line"/>
      <point x="1482" y="116" type="line" smooth="yes"/>
      <point x="1620" y="327"/>
      <point x="1708" y="407"/>
      <point x="1821" y="407" type="curve" smooth="yes"/>
      <point x="1939" y="407"/>
      <point x="2031" y="327"/>
      <point x="2031" y="227" type="curve" smooth="yes"/>
      <point x="2031" y="128"/>
      <point x="1940" y="47"/>
      <point x="1824" y="47" type="curve"/>
      <point x="1729" y="47" type="line"/>
    </contour>
    <contour>
      <point x="1798" y="47" type="line"/>
      <point x="1184" y="47" type="line"/>
      <point x="1856" y="1071" type="line"/>
      <point x="1856" y="1117" type="line"/>
      <point x="969" y="1117" type="line"/>
      <point x="969" y="1071" type="line"/>
      <point x="1802" y="1071" type="line"/>
      <point x="1129" y="47" type="line"/>
      <point x="1129" y="0" type="line"/>
      <point x="1798" y="0" type="line"/>
    </contour>
    <component base="d"/>
  </outline>
</glyph>
<glyph name="ts" format="2">
  <advance height="2479" width="1570"/>
  <unicode hex="02A6"/>
  <outline>
    <contour>
      <point x="513" y="-20" type="curve" smooth="yes"/>
      <point x="645" y="-20"/>
      <point x="724" y="71"/>
      <point x="745" y="256" type="curve"/>
      <point x="697" y="256" type="line"/>
      <point x="676" y="103"/>
      <point x="612" y="26"/>
      <point x="511" y="26" type="curve" smooth="yes"/>
      <point x="409" y="26"/>
      <point x="314" y="103"/>
      <point x="314" y="236" type="curve" smooth="yes"/>
      <point x="314" y="1385" type="line"/>
      <point x="268" y="1385" type="line"/>
      <point x="268" y="236" type="line" smooth="yes"/>
      <point x="268" y="73"/>
      <point x="380" y="-20"/>
    </contour>
    <contour>
      <point x="105" y="1071" type="line"/>
      <point x="547" y="1071" type="line"/>
      <point x="547" y="1117" type="line"/>
      <point x="105" y="1117" type="line"/>
    </contour>
    <contour>
      <point x="1065" y="-23" type="curve" smooth="yes"/>
      <point x="1284" y="-23"/>
      <point x="1437" y="100"/>
      <point x="1437" y="282" type="curve" smooth="yes"/>
      <point x="1437" y="420"/>
      <point x="1351" y="521"/>
      <point x="1187" y="561" type="curve" smooth="yes"/>
      <point x="1012" y="605" type="line" smooth="yes"/>
      <point x="860" y="643"/>
      <point x="785" y="724"/>
      <point x="785" y="841" type="curve" smooth="yes"/>
      <point x="785" y="989"/>
      <point x="907" y="1088"/>
      <point x="1085" y="1088" type="curve" smooth="yes"/>
      <point x="1239" y="1088"/>
      <point x="1336" y="1015"/>
      <point x="1382" y="870" type="curve"/>
      <point x="1428" y="881" type="line"/>
      <point x="1374" y="1049"/>
      <point x="1257" y="1135"/>
      <point x="1085" y="1135" type="curve" smooth="yes"/>
      <point x="881" y="1135"/>
      <point x="739" y="1016"/>
      <point x="739" y="841" type="curve" smooth="yes"/>
      <point x="739" y="701"/>
      <point x="829" y="601"/>
      <point x="1001" y="559" type="curve" smooth="yes"/>
      <point x="1175" y="515" type="line" smooth="yes"/>
      <point x="1319" y="479"/>
      <point x="1391" y="398"/>
      <point x="1391" y="282" type="curve" smooth="yes"/>
      <point x="1391" y="127"/>
      <point x="1259" y="23"/>
      <point x="1065" y="23" type="curve" smooth="yes"/>
      <point x="892" y="23"/>
      <point x="775" y="108"/>
      <point x="745" y="256" type="curve"/>
      <point x="697" y="256" type="line"/>
      <point x="735" y="78"/>
      <point x="866" y="-23"/>
    </contour>
  </outline>
</glyph>
<glyph name="tesh" format="2">
  <advance height="2479" width="983"/>
  <unicode hex="02A7"/>
  <anchor x="436" y="0" name="bottom"/>
  <anchor x="460" y="0" name="cedilla"/>
  <anchor x="455" y="1562" name="raccent"/>
  <anchor x="291" y="1489" name="top"/>
  <outline>
    <contour>
      <point x="532" y="1117" type="line"/>
      <point x="532" y="1071" type="line"/>
      <point x="618" y="1071" type="line"/>
      <point x="618" y="1117" type="line"/>
    </contour>
    <contour>
      <point x="524" y="26" type="curve"/>
      <point x="524" y="-20" type="line"/>
      <point x="559" y="-20"/>
      <point x="585" y="-14"/>
      <point x="614" y="-3" type="curve"/>
      <point x="599" y="41" type="line"/>
      <point x="574" y="31"/>
      <point x="552" y="26"/>
    </contour>
    <component base="t"/>
    <component base="esh" xOffset="329"/>
  </outline>
</glyph>
<glyph name="tccurl" format="2">
  <advance height="2479" width="1661"/>
  <unicode hex="02A8"/>
  <outline>
    <contour>
      <point x="547" y="1117" type="line"/>
      <point x="105" y="1117" type="line"/>
      <point x="105" y="1071" type="line"/>
      <point x="547" y="1071" type="line"/>
    </contour>
    <contour>
      <point x="268" y="1385" type="line"/>
      <point x="268" y="236" type="line" smooth="yes"/>
      <point x="268" y="94"/>
      <point x="384" y="-20"/>
      <point x="529" y="-20" type="curve" smooth="yes"/>
      <point x="680" y="-20"/>
      <point x="778" y="103"/>
      <point x="870" y="218" type="curve" smooth="yes"/>
      <point x="967" y="340"/>
      <point x="1062" y="454"/>
      <point x="1201" y="454" type="curve" smooth="yes"/>
      <point x="1327" y="454"/>
      <point x="1425" y="360"/>
      <point x="1425" y="244" type="curve" smooth="yes"/>
      <point x="1425" y="118"/>
      <point x="1305" y="23"/>
      <point x="1140" y="23" type="curve" smooth="yes"/>
      <point x="889" y="23"/>
      <point x="710" y="245"/>
      <point x="710" y="556" type="curve" smooth="yes"/>
      <point x="710" y="863"/>
      <point x="889" y="1088"/>
      <point x="1132" y="1088" type="curve" smooth="yes"/>
      <point x="1310" y="1088"/>
      <point x="1451" y="969"/>
      <point x="1481" y="791" type="curve"/>
      <point x="1530" y="791" type="line"/>
      <point x="1496" y="992"/>
      <point x="1333" y="1135"/>
      <point x="1132" y="1135" type="curve" smooth="yes"/>
      <point x="863" y="1135"/>
      <point x="663" y="887"/>
      <point x="663" y="556" type="curve" smooth="yes"/>
      <point x="663" y="220"/>
      <point x="863" y="-23"/>
      <point x="1140" y="-23" type="curve" smooth="yes"/>
      <point x="1330" y="-23"/>
      <point x="1472" y="90"/>
      <point x="1472" y="244" type="curve" smooth="yes"/>
      <point x="1472" y="385"/>
      <point x="1353" y="500"/>
      <point x="1201" y="500" type="curve" smooth="yes"/>
      <point x="1039" y="500"/>
      <point x="930" y="369"/>
      <point x="835" y="247" type="curve" smooth="yes"/>
      <point x="742" y="132"/>
      <point x="658" y="26"/>
      <point x="529" y="26" type="curve" smooth="yes"/>
      <point x="409" y="26"/>
      <point x="314" y="119"/>
      <point x="314" y="236" type="curve" smooth="yes"/>
      <point x="314" y="1385" type="line"/>
    </contour>
  </outline>
</glyph>
<glyph name="lzdigraph" format="2">
  <advance height="2479" width="1254"/>
  <unicode hex="02AB"/>
  <outline>
    <contour>
      <point x="1168" y="47" type="line"/>
      <point x="426" y="47" type="line"/>
      <point x="426" y="0" type="line"/>
      <point x="1168" y="0" type="line"/>
    </contour>
    <contour>
      <point x="1139" y="1071" type="line"/>
      <point x="1139" y="1117" type="line"/>
      <point x="1116" y="1117" type="line"/>
      <point x="412" y="47" type="line"/>
      <point x="412" y="0" type="line"/>
      <point x="435" y="0" type="line"/>
    </contour>
    <contour>
      <point x="1129" y="1117" type="line"/>
      <point x="208" y="1117" type="line"/>
      <point x="208" y="1071" type="line"/>
      <point x="1129" y="1071" type="line"/>
    </contour>
    <contour>
      <point x="233" y="1489" type="line"/>
      <point x="186" y="1489" type="line"/>
      <point x="186" y="0" type="line"/>
      <point x="233" y="0" type="line"/>
    </contour>
  </outline>
</glyph>
<glyph name="bidentalpercussive" format="2">
  <advance height="2479" width="1189"/>
  <unicode hex="02AD"/>
  <outline>
    <contour>
      <point x="957" y="582" type="line"/>
      <point x="233" y="582" type="line"/>
      <point x="233" y="535" type="line"/>
      <point x="957" y="535" type="line"/>
    </contour>
    <contour>
      <point x="256" y="582" type="line"/>
      <point x="209" y="582" type="line"/>
      <point x="209" y="0" type="line"/>
      <point x="256" y="0" type="line"/>
    </contour>
    <contour>
      <point x="989" y="582" type="line"/>
      <point x="943" y="582" type="line"/>
      <point x="943" y="0" type="line"/>
      <point x="989" y="0" type="line"/>
    </contour>
    <contour>
      <point x="957" y="1455" type="line"/>
      <point x="233" y="1455" type="line"/>
      <point x="233" y="1408" type="line"/>
      <point x="957" y="1408" type="line"/>
    </contour>
    <contour>
      <point x="256" y="1455" type="line"/>
      <point x="209" y="1455" type="line"/>
      <point x="209" y="879" type="line"/>
      <point x="256" y="879" type="line"/>
    </contour>
    <contour>
      <point x="989" y="1455" type="line"/>
      <point x="943" y="1455" type="line"/>
      <point x="943" y="879" type="line"/>
      <point x="989" y="879" type="line"/>
    </contour>
  </outline>
</glyph>
<glyph name="hturnedfishhook" format="2">
  <advance height="2479" width="1309"/>
  <unicode hex="02AE"/>
  <outline>
    <contour>
      <point x="128" y="1089" type="line"/>
      <point x="154" y="1092"/>
      <point x="180" y="1094"/>
      <point x="199" y="1094" type="curve" smooth="yes"/>
      <point x="303" y="1094"/>
      <point x="337" y="1049"/>
      <point x="337" y="925" type="curve" smooth="yes"/>
      <point x="337" y="367" type="line" smooth="yes"/>
      <point x="337" y="143"/>
      <point x="495" y="-15"/>
      <point x="719" y="-15" type="curve" smooth="yes"/>
      <point x="873" y="-15"/>
      <point x="1001" y="61"/>
      <point x="1053" y="177" type="curve"/>
      <point x="1059" y="177" type="line"/>
      <point x="1059" y="-419" type="line"/>
      <point x="1105" y="-419" type="line"/>
      <point x="1105" y="1117" type="line"/>
      <point x="1059" y="1117" type="line"/>
      <point x="1059" y="367" type="line" smooth="yes"/>
      <point x="1059" y="172"/>
      <point x="916" y="32"/>
      <point x="719" y="32" type="curve" smooth="yes"/>
      <point x="521" y="32"/>
      <point x="384" y="169"/>
      <point x="384" y="367" type="curve" smooth="yes"/>
      <point x="384" y="925" type="line" smooth="yes"/>
      <point x="384" y="1076"/>
      <point x="327" y="1140"/>
      <point x="199" y="1140" type="curve" smooth="yes"/>
      <point x="180" y="1140"/>
      <point x="153" y="1139"/>
      <point x="128" y="1136" type="curve"/>
    </contour>
  </outline>
</glyph>
<glyph name="hhookmod" format="2">
  <advance height="2479" width="801"/>
  <unicode hex="02B1"/>
  <outline>
    <contour>
      <point x="179" y="1649" type="line" smooth="yes"/>
      <point x="179" y="1737"/>
      <point x="198" y="1760"/>
      <point x="256" y="1760" type="curve" smooth="yes"/>
      <point x="276" y="1760"/>
      <point x="294" y="1757"/>
      <point x="319" y="1751" type="curve"/>
      <point x="319" y="1798" type="line"/>
      <point x="295" y="1804"/>
      <point x="278" y="1807"/>
      <point x="256" y="1807" type="curve" smooth="yes"/>
      <point x="170" y="1807"/>
      <point x="135" y="1764"/>
      <point x="135" y="1649" type="curve" smooth="yes"/>
      <point x="135" y="655" type="line"/>
      <point x="179" y="655" type="line"/>
    </contour>
    <contour>
      <point x="173" y="1190" type="line"/>
      <point x="173" y="1289"/>
      <point x="272" y="1423"/>
      <point x="415" y="1423" type="curve" smooth="yes"/>
      <point x="529" y="1423"/>
      <point x="615" y="1335"/>
      <point x="615" y="1207" type="curve" smooth="yes"/>
      <point x="615" y="655" type="line"/>
      <point x="662" y="655" type="line"/>
      <point x="662" y="1207" type="line" smooth="yes"/>
      <point x="662" y="1361"/>
      <point x="559" y="1466"/>
      <point x="420" y="1466" type="curve" smooth="yes"/>
      <point x="304" y="1466"/>
      <point x="150" y="1388"/>
      <point x="150" y="1190" type="curve"/>
    </contour>
  </outline>
</glyph>
<glyph name="jmod" format="2">
  <advance height="2479" width="305"/>
  <unicode hex="02B2"/>
  <outline>
    <contour>
      <point x="128" y="1489" type="line"/>
      <point x="128" y="646" type="line" smooth="yes"/>
      <point x="128" y="561"/>
      <point x="70" y="509"/>
      <point x="-3" y="509" type="curve" smooth="yes"/>
      <point x="-9" y="509"/>
      <point x="-12" y="509"/>
      <point x="-17" y="509" type="curve"/>
      <point x="-20" y="468" type="line"/>
      <point x="-12" y="465"/>
      <point x="-12" y="465"/>
      <point x="-3" y="465" type="curve" smooth="yes"/>
      <point x="96" y="465"/>
      <point x="175" y="535"/>
      <point x="175" y="646" type="curve" smooth="yes"/>
      <point x="175" y="1489" type="line"/>
    </contour>
    <contour>
      <point x="151" y="1626" type="curve" smooth="yes"/>
      <point x="175" y="1626"/>
      <point x="192" y="1644"/>
      <point x="192" y="1664" type="curve" smooth="yes"/>
      <point x="192" y="1684"/>
      <point x="175" y="1702"/>
      <point x="151" y="1702" type="curve" smooth="yes"/>
      <point x="131" y="1702"/>
      <point x="113" y="1684"/>
      <point x="113" y="1664" type="curve" smooth="yes"/>
      <point x="113" y="1644"/>
      <point x="131" y="1626"/>
    </contour>
  </outline>
</glyph>
<glyph name="rmod" format="2">
  <advance height="2479" width="500"/>
  <unicode hex="02B3"/>
  <outline>
    <contour>
      <point x="128" y="745" type="line"/>
      <point x="172" y="745" type="line"/>
      <point x="172" y="1239" type="line" smooth="yes"/>
      <point x="172" y="1364"/>
      <point x="268" y="1455"/>
      <point x="393" y="1455" type="curve" smooth="yes"/>
      <point x="416" y="1455"/>
      <point x="442" y="1452"/>
      <point x="465" y="1443" type="curve"/>
      <point x="483" y="1484" type="line"/>
      <point x="457" y="1492"/>
      <point x="431" y="1498"/>
      <point x="396" y="1498" type="curve" smooth="yes"/>
      <point x="294" y="1498"/>
      <point x="209" y="1449"/>
      <point x="177" y="1370" type="curve"/>
      <point x="172" y="1370" type="line"/>
      <point x="172" y="1489" type="line"/>
      <point x="128" y="1489" type="line"/>
    </contour>
  </outline>
</glyph>
<glyph name="Rsmallinvertedmod" format="2">
  <advance height="2479" width="851"/>
  <unicode hex="02B6"/>
  <outline>
    <contour>
      <point x="493" y="1108" type="line"/>
      <point x="768" y="1446" type="line"/>
      <point x="708" y="1446" type="line"/>
      <point x="454" y="1135" type="line"/>
    </contour>
    <contour>
      <point x="390" y="652" type="line"/>
      <point x="572" y="650"/>
      <point x="694" y="751"/>
      <point x="695" y="905" type="curve" smooth="yes"/>
      <point x="695" y="1047"/>
      <point x="596" y="1146"/>
      <point x="457" y="1146" type="curve" smooth="yes"/>
      <point x="128" y="1146" type="line"/>
      <point x="128" y="1100" type="line"/>
      <point x="445" y="1100" type="line" smooth="yes"/>
      <point x="573" y="1100"/>
      <point x="648" y="1028"/>
      <point x="649" y="902" type="curve" smooth="yes"/>
      <point x="649" y="778"/>
      <point x="545" y="698"/>
      <point x="384" y="698" type="curve" smooth="yes"/>
      <point x="131" y="698" type="line"/>
      <point x="131" y="1446" type="line"/>
      <point x="84" y="1446" type="line"/>
      <point x="84" y="652" type="line"/>
    </contour>
  </outline>
</glyph>
<glyph name="wmod" format="2">
  <advance height="2479" width="1085"/>
  <unicode hex="02B7"/>
  <outline>
    <contour>
      <point x="288" y="745" type="line"/>
      <point x="343" y="745" type="line"/>
      <point x="541" y="1411" type="line"/>
      <point x="544" y="1411" type="line"/>
      <point x="742" y="745" type="line"/>
      <point x="797" y="745" type="line"/>
      <point x="1018" y="1489" type="line"/>
      <point x="969" y="1489" type="line"/>
      <point x="771" y="809" type="line"/>
      <point x="765" y="809" type="line"/>
      <point x="564" y="1489" type="line"/>
      <point x="521" y="1489" type="line"/>
      <point x="317" y="809" type="line"/>
      <point x="314" y="809" type="line"/>
      <point x="113" y="1489" type="line"/>
      <point x="67" y="1489" type="line"/>
    </contour>
  </outline>
</glyph>
<glyph name="ymod" format="2">
  <advance height="2479" width="721"/>
  <unicode hex="02B8"/>
  <outline>
    <contour>
      <point x="163" y="451" type="curve" smooth="yes"/>
      <point x="247" y="451"/>
      <point x="305" y="509"/>
      <point x="337" y="599" type="curve" smooth="yes"/>
      <point x="655" y="1489" type="line"/>
      <point x="608" y="1489" type="line"/>
      <point x="364" y="803" type="line"/>
      <point x="358" y="803" type="line"/>
      <point x="116" y="1489" type="line"/>
      <point x="67" y="1489" type="line"/>
      <point x="337" y="733" type="line"/>
      <point x="297" y="617" type="line" smooth="yes"/>
      <point x="256" y="503"/>
      <point x="189" y="471"/>
      <point x="96" y="509" type="curve"/>
      <point x="81" y="468" type="line"/>
      <point x="102" y="460"/>
      <point x="137" y="451"/>
    </contour>
  </outline>
</glyph>
<glyph name="commareversedmod" format="2">
  <advance height="2479" width="527"/>
  <unicode hex="02BD"/>
  <outline>
    <contour>
      <point x="303" y="992" type="curve"/>
      <point x="340" y="992" type="line"/>
      <point x="320" y="1103"/>
      <point x="285" y="1281"/>
      <point x="250" y="1478" type="curve" smooth="yes"/>
      <point x="236" y="1559" type="line"/>
      <point x="186" y="1559" type="line"/>
      <point x="201" y="1484" type="line" smooth="yes"/>
      <point x="228" y="1343"/>
      <point x="268" y="1101"/>
    </contour>
  </outline>
</glyph>
<glyph name="glottalstopreversedmod" format="2">
  <advance height="2479" width="742"/>
  <unicode hex="02C1"/>
  <outline>
    <contour>
      <point x="640" y="1539" type="line"/>
      <point x="620" y="1702"/>
      <point x="506" y="1808"/>
      <point x="352" y="1807" type="curve" smooth="yes"/>
      <point x="194" y="1805"/>
      <point x="102" y="1696"/>
      <point x="102" y="1511" type="curve" smooth="yes"/>
      <point x="102" y="1280" type="line" smooth="yes"/>
      <point x="102" y="1086"/>
      <point x="185" y="987"/>
      <point x="351" y="986" type="curve"/>
      <point x="355" y="986" type="line"/>
      <point x="355" y="1033" type="line"/>
      <point x="349" y="1033" type="line"/>
      <point x="214" y="1031"/>
      <point x="152" y="1105"/>
      <point x="148" y="1274" type="curve" smooth="yes"/>
      <point x="148" y="1519" type="line" smooth="yes"/>
      <point x="148" y="1672"/>
      <point x="224" y="1760"/>
      <point x="355" y="1760" type="curve" smooth="yes"/>
      <point x="481" y="1760"/>
      <point x="573" y="1675"/>
      <point x="593" y="1539" type="curve"/>
    </contour>
    <contour>
      <point x="323" y="1033" type="line"/>
      <point x="323" y="652" type="line"/>
      <point x="369" y="652" type="line"/>
      <point x="369" y="1033" type="line"/>
    </contour>
  </outline>
</glyph>
<glyph name="arrowheadleftmod" format="2">
  <advance height="2479" width="919"/>
  <unicode hex="02C2"/>
  <outline>
    <contour>
      <point x="131" y="940" type="line"/>
      <point x="209" y="973" type="line"/>
      <point x="838" y="1263" type="line"/>
      <point x="838" y="1313" type="line"/>
      <point x="131" y="988" type="line"/>
    </contour>
    <contour>
      <point x="838" y="611" type="line"/>
      <point x="838" y="662" type="line"/>
      <point x="209" y="951" type="line"/>
      <point x="131" y="985" type="line"/>
      <point x="131" y="937" type="line"/>
    </contour>
  </outline>
</glyph>
<glyph name="arrowheaddownmod" format="2">
  <advance height="2479" width="851"/>
  <unicode hex="02C5"/>
  <outline>
    <contour>
      <point x="403" y="596" type="line"/>
      <point x="451" y="596" type="line"/>
      <point x="777" y="1303" type="line"/>
      <point x="726" y="1303" type="line"/>
      <point x="436" y="675" type="line"/>
    </contour>
    <contour>
      <point x="400" y="596" type="line"/>
      <point x="448" y="596" type="line"/>
      <point x="415" y="675" type="line"/>
      <point x="125" y="1303" type="line"/>
      <point x="74" y="1303" type="line"/>
    </contour>
  </outline>
</glyph>
<glyph name="verticallinemod" format="2">
  <advance height="2479" width="244"/>
  <unicode hex="02C8"/>
  <outline>
    <contour>
      <point x="145" y="1542" type="line"/>
      <point x="99" y="1542" type="line"/>
      <point x="99" y="1164" type="line"/>
      <point x="145" y="1164" type="line"/>
    </contour>
  </outline>
</glyph>
<glyph name="colontriangularmod" format="2">
  <advance height="2479" width="487"/>
  <unicode hex="02D0"/>
  <outline>
    <contour>
      <point x="143" y="1082" type="line"/>
      <point x="239" y="913" type="line"/>
      <point x="256" y="913" type="line"/>
      <point x="352" y="1082" type="line"/>
    </contour>
    <contour>
      <point x="143" y="0" type="line"/>
      <point x="352" y="0" type="line"/>
      <point x="256" y="172" type="line"/>
      <point x="239" y="172" type="line"/>
    </contour>
  </outline>
</glyph>
<glyph name="downtackmod" format="2">
  <advance height="2479" width="666"/>
  <unicode hex="02D5"/>
  <outline>
    <contour>
      <point x="175" y="451" type="line"/>
      <point x="492" y="451" type="line"/>
      <point x="492" y="497" type="line"/>
      <point x="175" y="497" type="line"/>
    </contour>
    <contour>
      <point x="310" y="192" type="line"/>
      <point x="356" y="192" type="line"/>
      <point x="356" y="497" type="line"/>
      <point x="310" y="497" type="line"/>
    </contour>
  </outline>
</glyph>
<glyph name="minusmod" format="2">
  <advance height="2479" width="332"/>
  <unicode hex="02D7"/>
  <outline>
    <contour>
      <point x="-15" y="364" type="line"/>
      <point x="-15" y="317" type="line"/>
      <point x="346" y="317" type="line"/>
      <point x="346" y="364" type="line"/>
    </contour>
  </outline>
</glyph>
<glyph name="breve" format="2">
  <advance height="2479" width="849"/>
  <unicode hex="02D8"/>
  <anchor x="425" y="1303" name="_top"/>
  <anchor x="425" y="1609" name="mkmktop_acc"/>
  <outline>
    <contour>
      <point x="541" y="1489" type="line"/>
      <point x="541" y="1412"/>
      <point x="500" y="1370"/>
      <point x="425" y="1370" type="curve" smooth="yes"/>
      <point x="349" y="1370"/>
      <point x="308" y="1412"/>
      <point x="308" y="1489" type="curve"/>
      <point x="262" y="1489" type="line"/>
      <point x="262" y="1387"/>
      <point x="323" y="1324"/>
      <point x="425" y="1324" type="curve" smooth="yes"/>
      <point x="527" y="1324"/>
      <point x="588" y="1387"/>
      <point x="588" y="1489" type="curve"/>
    </contour>
  </outline>
</glyph>
<glyph name="dotaccent" format="2">
  <advance height="2479" width="372"/>
  <unicode hex="02D9"/>
  <anchor x="186" y="1303" name="_top"/>
  <outline>
    <contour>
      <point x="186" y="1321" type="curve" smooth="yes"/>
      <point x="212" y="1321"/>
      <point x="233" y="1342"/>
      <point x="233" y="1367" type="curve" smooth="yes"/>
      <point x="233" y="1393"/>
      <point x="212" y="1414"/>
      <point x="186" y="1414" type="curve" smooth="yes"/>
      <point x="161" y="1414"/>
      <point x="140" y="1393"/>
      <point x="140" y="1367" type="curve" smooth="yes"/>
      <point x="140" y="1342"/>
      <point x="161" y="1321"/>
    </contour>
  </outline>
</glyph>
<glyph name="ring" format="2">
  <advance height="2479" width="489"/>
  <unicode hex="02DA"/>
  <anchor x="244" y="1303" name="_top"/>
  <outline>
    <contour>
      <point x="244" y="1257" type="curve" smooth="yes"/>
      <point x="337" y="1257"/>
      <point x="410" y="1330"/>
      <point x="410" y="1423" type="curve" smooth="yes"/>
      <point x="410" y="1515"/>
      <point x="337" y="1588"/>
      <point x="244" y="1588" type="curve" smooth="yes"/>
      <point x="152" y="1588"/>
      <point x="79" y="1515"/>
      <point x="79" y="1423" type="curve" smooth="yes"/>
      <point x="79" y="1330"/>
      <point x="152" y="1257"/>
    </contour>
    <contour>
      <point x="244" y="1303" type="curve" smooth="yes"/>
      <point x="178" y="1303"/>
      <point x="125" y="1356"/>
      <point x="125" y="1423" type="curve" smooth="yes"/>
      <point x="125" y="1489"/>
      <point x="177" y="1542"/>
      <point x="244" y="1542" type="curve" smooth="yes"/>
      <point x="311" y="1542"/>
      <point x="364" y="1489"/>
      <point x="364" y="1423" type="curve" smooth="yes"/>
      <point x="364" y="1356"/>
      <point x="311" y="1303"/>
    </contour>
  </outline>
</glyph>
<glyph name="hungarumlaut" format="2">
  <advance height="2479" width="564"/>
  <unicode hex="02DD"/>
  <anchor x="329" y="1292" name="_top"/>
  <anchor x="329" y="1603" name="mkmktop_acc"/>
  <outline>
    <contour>
      <point x="365" y="1222" type="line"/>
      <point x="412" y="1222" type="line"/>
      <point x="685" y="1536" type="line"/>
      <point x="627" y="1536" type="line"/>
    </contour>
    <contour>
      <point x="151" y="1222" type="line"/>
      <point x="198" y="1222" type="line"/>
      <point x="413" y="1536" type="line"/>
      <point x="355" y="1536" type="line"/>
    </contour>
  </outline>
</glyph>
<glyph name="rhotichookmod" format="2">
  <advance height="2479" width="551"/>
  <unicode hex="02DE"/>
  <anchor x="20" y="634" name="_rhotichook"/>
  <outline>
    <contour>
      <point x="19" y="605" type="line"/>
      <point x="273" y="644" type="line"/>
      <point x="288" y="508"/>
      <point x="354" y="428"/>
      <point x="449" y="426" type="curve" smooth="yes"/>
      <point x="478" y="425"/>
      <point x="505" y="432"/>
      <point x="532" y="442" type="curve"/>
      <point x="521" y="481" type="line"/>
      <point x="504" y="476"/>
      <point x="482" y="471"/>
      <point x="458" y="471" type="curve" smooth="yes"/>
      <point x="373" y="474"/>
      <point x="323" y="543"/>
      <point x="307" y="698" type="curve"/>
      <point x="19" y="652" type="line"/>
    </contour>
  </outline>
</glyph>
<glyph name="gammamod-latin" format="2">
  <advance height="2479" width="768"/>
  <unicode hex="02E0"/>
  <outline>
    <contour>
      <point x="384" y="768" type="line"/>
      <point x="364" y="689" type="line"/>
      <point x="407" y="689" type="line"/>
      <point x="678" y="1446" type="line"/>
      <point x="628" y="1446" type="line"/>
    </contour>
    <contour>
      <point x="140" y="1446" type="line"/>
      <point x="90" y="1446" type="line"/>
      <point x="361" y="689" type="line"/>
      <point x="404" y="689" type="line"/>
      <point x="381" y="768" type="line"/>
    </contour>
    <contour>
      <point x="388" y="208" type="curve" smooth="yes"/>
      <point x="477" y="208"/>
      <point x="535" y="263"/>
      <point x="535" y="348" type="curve" smooth="yes"/>
      <point x="535" y="390"/>
      <point x="519" y="443"/>
      <point x="451" y="631" type="curve" smooth="yes"/>
      <point x="416" y="727" type="line"/>
      <point x="368" y="727" type="line"/>
      <point x="384" y="679" type="line" smooth="yes"/>
      <point x="464" y="464"/>
      <point x="489" y="381"/>
      <point x="489" y="340" type="curve" smooth="yes"/>
      <point x="489" y="289"/>
      <point x="448" y="255"/>
      <point x="388" y="255" type="curve" smooth="yes"/>
      <point x="329" y="255"/>
      <point x="287" y="289"/>
      <point x="287" y="340" type="curve" smooth="yes"/>
      <point x="287" y="377"/>
      <point x="307" y="439"/>
      <point x="396" y="679" type="curve" smooth="yes"/>
      <point x="413" y="727" type="line"/>
      <point x="364" y="727" type="line"/>
      <point x="321" y="612" type="line" smooth="yes"/>
      <point x="249" y="415"/>
      <point x="240" y="381"/>
      <point x="240" y="346" type="curve" smooth="yes"/>
      <point x="240" y="263"/>
      <point x="300" y="208"/>
    </contour>
  </outline>
</glyph>
<glyph name="lmod" format="2">
  <advance height="2479" width="300"/>
  <unicode hex="02E1"/>
  <outline>
    <contour>
      <point x="172" y="1737" type="line"/>
      <point x="128" y="1737" type="line"/>
      <point x="128" y="745" type="line"/>
      <point x="172" y="745" type="line"/>
    </contour>
  </outline>
</glyph>
<glyph name="tonebarhighmod" format="2">
  <advance height="2479" width="676"/>
  <unicode hex="02E6"/>
  <outline>
    <contour>
      <point x="500" y="1457" type="line"/>
      <point x="454" y="1457" type="line"/>
      <point x="454" y="0" type="line"/>
      <point x="500" y="0" type="line"/>
    </contour>
    <contour>
      <point x="483" y="1123" type="line"/>
      <point x="175" y="1123" type="line"/>
      <point x="175" y="1076" type="line"/>
      <point x="483" y="1076" type="line"/>
    </contour>
  </outline>
</glyph>
<glyph name="tonebarlowmod" format="2">
  <advance height="2479" width="676"/>
  <unicode hex="02E8"/>
  <outline>
    <contour>
      <point x="500" y="1457" type="line"/>
      <point x="454" y="1457" type="line"/>
      <point x="454" y="0" type="line"/>
      <point x="500" y="0" type="line"/>
    </contour>
    <contour>
      <point x="483" y="391" type="line"/>
      <point x="175" y="391" type="line"/>
      <point x="175" y="345" type="line"/>
      <point x="483" y="345" type="line"/>
    </contour>
  </outline>
</glyph>
<glyph name="voicingmod" format="2">
  <advance height="2479" width="694"/>
  <unicode hex="02EC"/>
  <outline>
    <contour>
      <point x="182" y="-131" type="line"/>
      <point x="131" y="-131" type="line"/>
      <point x="131" y="-140" type="line"/>
      <point x="320" y="-407" type="line"/>
      <point x="367" y="-407" type="line"/>
      <point x="570" y="-140" type="line"/>
      <point x="570" y="-131" type="line"/>
      <point x="519" y="-131" type="line"/>
      <point x="343" y="-361" type="line"/>
    </contour>
  </outline>
</glyph>
<glyph name="doubleapostrophemod" format="2">
  <advance height="2479" width="846"/>
  <unicode hex="02EE"/>
  <outline>
    <contour>
      <point x="349" y="1559" type="line"/>
      <point x="303" y="1559" type="line"/>
      <point x="303" y="1359" type="line" smooth="yes"/>
      <point x="303" y="1244"/>
      <point x="237" y="1107"/>
      <point x="140" y="1027" type="curve"/>
      <point x="166" y="992" type="line"/>
      <point x="282" y="1087"/>
      <point x="349" y="1240"/>
      <point x="349" y="1359" type="curve" smooth="yes"/>
    </contour>
    <contour>
      <point x="657" y="1559" type="line"/>
      <point x="611" y="1559" type="line"/>
      <point x="611" y="1359" type="line" smooth="yes"/>
      <point x="611" y="1244"/>
      <point x="545" y="1107"/>
      <point x="448" y="1027" type="curve"/>
      <point x="474" y="992" type="line"/>
      <point x="591" y="1087"/>
      <point x="657" y="1240"/>
      <point x="657" y="1359" type="curve" smooth="yes"/>
    </contour>
  </outline>
</glyph>
<glyph name="lowdownarrowheadmod" format="2">
  <advance height="2479" width="668"/>
  <unicode hex="02EF"/>
  <outline>
    <contour>
      <point x="314" y="-538" type="line"/>
      <point x="355" y="-538" type="line"/>
      <point x="294" y="-387" type="line"/>
      <point x="144" y="-73" type="line"/>
      <point x="93" y="-73" type="line"/>
    </contour>
    <contour>
      <point x="319" y="-538" type="line"/>
      <point x="361" y="-538" type="line"/>
      <point x="576" y="-73" type="line"/>
      <point x="525" y="-73" type="line"/>
      <point x="380" y="-387" type="line"/>
    </contour>
  </outline>
</glyph>
<glyph name="lowuparrowheadmod" format="2">
  <advance height="2479" width="668"/>
  <unicode hex="02F0"/>
  <outline>
    <contour>
      <point x="305" y="-227" type="line"/>
      <point x="355" y="-73" type="line"/>
      <point x="316" y="-73" type="line"/>
      <point x="134" y="-538" type="line"/>
      <point x="183" y="-538" type="line"/>
    </contour>
    <contour>
      <point x="483" y="-538" type="line"/>
      <point x="532" y="-538" type="line"/>
      <point x="362" y="-73" type="line"/>
      <point x="321" y="-73" type="line"/>
      <point x="369" y="-227" type="line"/>
    </contour>
  </outline>
</glyph>
<glyph name="lowringmod" format="2">
  <advance height="2479" width="332"/>
  <unicode hex="02F3"/>
  <anchor x="166" y="0" name="_bottom"/>
  <outline>
    <contour>
      <point x="0" y="-260" type="curve" smooth="yes"/>
      <point x="0" y="-353"/>
      <point x="73" y="-426"/>
      <point x="166" y="-426" type="curve" smooth="yes"/>
      <point x="258" y="-426"/>
      <point x="332" y="-353"/>
      <point x="332" y="-260" type="curve" smooth="yes"/>
      <point x="332" y="-168"/>
      <point x="258" y="-95"/>
      <point x="166" y="-95" type="curve" smooth="yes"/>
      <point x="73" y="-95"/>
      <point x="0" y="-168"/>
    </contour>
    <contour>
      <point x="47" y="-260" type="curve" smooth="yes"/>
      <point x="47" y="-194"/>
      <point x="99" y="-141"/>
      <point x="166" y="-141" type="curve" smooth="yes"/>
      <point x="232" y="-141"/>
      <point x="285" y="-193"/>
      <point x="285" y="-260" type="curve" smooth="yes"/>
      <point x="285" y="-327"/>
      <point x="233" y="-380"/>
      <point x="166" y="-380" type="curve" smooth="yes"/>
      <point x="100" y="-380"/>
      <point x="47" y="-327"/>
    </contour>
  </outline>
</glyph>
<glyph name="lowtildemod" format="2">
  <advance height="2479" width="851"/>
  <unicode hex="02F7"/>
  <outline>
    <contour>
      <point x="704" y="-225" type="line"/>
      <point x="708" y="-317"/>
      <point x="660" y="-390"/>
      <point x="576" y="-390" type="curve" smooth="yes"/>
      <point x="449" y="-390"/>
      <point x="425" y="-225"/>
      <point x="279" y="-225" type="curve" smooth="yes"/>
      <point x="181" y="-225"/>
      <point x="100" y="-300"/>
      <point x="102" y="-433" type="curve"/>
      <point x="148" y="-436" type="line"/>
      <point x="145" y="-345"/>
      <point x="193" y="-272"/>
      <point x="276" y="-272" type="curve" smooth="yes"/>
      <point x="400" y="-272"/>
      <point x="426" y="-436"/>
      <point x="572" y="-436" type="curve" smooth="yes"/>
      <point x="671" y="-437"/>
      <point x="753" y="-362"/>
      <point x="751" y="-228" type="curve"/>
    </contour>
  </outline>
</glyph>
<glyph name="endlowtonemod" format="2">
  <advance height="2479" width="325"/>
  <unicode hex="02FC"/>
  <outline>
    <contour>
      <point x="268" y="-390" type="line"/>
      <point x="314" y="-390" type="line"/>
      <point x="314" y="-64" type="line"/>
      <point x="268" y="-64" type="line"/>
    </contour>
    <contour>
      <point x="12" y="-390" type="line"/>
      <point x="314" y="-390" type="line"/>
      <point x="314" y="-343" type="line"/>
      <point x="12" y="-343" type="line"/>
    </contour>
  </outline>
</glyph>
<glyph name="shelfmod" format="2">
  <advance height="2479" width="848"/>
  <unicode hex="02FD"/>
  <outline>
    <contour>
      <point x="646" y="-422" type="line"/>
      <point x="198" y="-422" type="line"/>
      <point x="198" y="-468" type="line"/>
      <point x="646" y="-468" type="line"/>
    </contour>
    <contour>
      <point x="218" y="-137" type="line"/>
      <point x="172" y="-137" type="line"/>
      <point x="172" y="-468" type="line"/>
      <point x="218" y="-468" type="line"/>
    </contour>
    <contour>
      <point x="678" y="-137" type="line"/>
      <point x="631" y="-137" type="line"/>
      <point x="631" y="-468" type="line"/>
      <point x="678" y="-468" type="line"/>
    </contour>
  </outline>
</glyph>
<glyph name="brevecomb" format="2">
  <advance height="2479"/>
  <unicode hex="0306"/>
  <outline>
    <contour>
      <point x="-404" y="1489" type="line"/>
      <point x="-404" y="1412"/>
      <point x="-445" y="1370"/>
      <point x="-521" y="1370" type="curve" smooth="yes"/>
      <point x="-596" y="1370"/>
      <point x="-637" y="1412"/>
      <point x="-637" y="1489" type="curve"/>
      <point x="-684" y="1489" type="line"/>
      <point x="-684" y="1387"/>
      <point x="-623" y="1324"/>
      <point x="-521" y="1324" type="curve" smooth="yes"/>
      <point x="-419" y="1324"/>
      <point x="-358" y="1387"/>
      <point x="-358" y="1489" type="curve"/>
    </contour>
  </outline>
</glyph>
<glyph name="hookabovecomb" format="2">
  <advance height="2479"/>
  <unicode hex="0309"/>
  <anchor x="-497" y="1260" name="_top"/>
  <outline>
    <contour>
      <point x="-476" y="1216" type="line"/>
      <point x="-476" y="1316" type="line"/>
      <point x="-384" y="1324"/>
      <point x="-322" y="1383"/>
      <point x="-323" y="1475" type="curve" smooth="yes"/>
      <point x="-324" y="1575"/>
      <point x="-392" y="1642"/>
      <point x="-541" y="1644" type="curve"/>
      <point x="-548" y="1597" type="line"/>
      <point x="-428" y="1596"/>
      <point x="-373" y="1558"/>
      <point x="-372" y="1469" type="curve" smooth="yes"/>
      <point x="-372" y="1393"/>
      <point x="-411" y="1364"/>
      <point x="-522" y="1357" type="curve"/>
      <point x="-522" y="1216" type="line"/>
    </contour>
  </outline>
</glyph>
<glyph name="dblgravecomb" format="2">
  <advance height="2479"/>
  <unicode hex="030F"/>
  <anchor x="-559" y="1303" name="_top"/>
  <outline>
    <contour>
      <point x="-649" y="1280" type="line"/>
      <point x="-602" y="1280" type="line"/>
      <point x="-819" y="1594" type="line"/>
      <point x="-879" y="1594" type="line"/>
    </contour>
    <contour>
      <point x="-489" y="1280" type="line"/>
      <point x="-442" y="1280" type="line"/>
      <point x="-617" y="1594" type="line"/>
      <point x="-673" y="1594" type="line"/>
    </contour>
  </outline>
</glyph>
<glyph name="candraBinducomb" format="2">
  <advance height="2479"/>
  <unicode hex="0310"/>
  <outline>
    <contour>
      <point x="-521" y="1324" type="curve" smooth="yes"/>
      <point x="-419" y="1324"/>
      <point x="-358" y="1387"/>
      <point x="-358" y="1489" type="curve"/>
      <point x="-404" y="1489" type="line"/>
      <point x="-404" y="1412"/>
      <point x="-445" y="1370"/>
      <point x="-521" y="1370" type="curve" smooth="yes"/>
      <point x="-596" y="1370"/>
      <point x="-637" y="1412"/>
      <point x="-637" y="1489" type="curve"/>
      <point x="-684" y="1489" type="line"/>
      <point x="-684" y="1387"/>
      <point x="-623" y="1324"/>
    </contour>
    <contour>
      <point x="-521" y="1441" type="curve" smooth="yes"/>
      <point x="-495" y="1441"/>
      <point x="-474" y="1463"/>
      <point x="-474" y="1488" type="curve" smooth="yes"/>
      <point x="-474" y="1513"/>
      <point x="-495" y="1535"/>
      <point x="-521" y="1535" type="curve" smooth="yes"/>
      <point x="-546" y="1535"/>
      <point x="-567" y="1513"/>
      <point x="-567" y="1488" type="curve" smooth="yes"/>
      <point x="-567" y="1463"/>
      <point x="-546" y="1441"/>
    </contour>
  </outline>
</glyph>
<glyph name="lefttackbelowcomb" format="2">
  <advance height="2479"/>
  <unicode hex="0318"/>
  <outline>
    <contour>
      <point x="-445" y="-353" type="line"/>
      <point x="-399" y="-353" type="line"/>
      <point x="-399" y="-65" type="line"/>
      <point x="-445" y="-65" type="line"/>
    </contour>
    <contour>
      <point x="-687" y="-233" type="line"/>
      <point x="-399" y="-233" type="line"/>
      <point x="-399" y="-186" type="line"/>
      <point x="-687" y="-186" type="line"/>
    </contour>
  </outline>
</glyph>
<glyph name="righttackbelowcomb" format="2">
  <advance height="2479"/>
  <unicode hex="0319"/>
  <anchor x="-580" y="0" name="_bottom"/>
  <outline>
    <contour>
      <point x="-724" y="-353" type="line"/>
      <point x="-678" y="-353" type="line"/>
      <point x="-678" y="-65" type="line"/>
      <point x="-724" y="-65" type="line"/>
    </contour>
    <contour>
      <point x="-724" y="-233" type="line"/>
      <point x="-436" y="-233" type="line"/>
      <point x="-436" y="-186" type="line"/>
      <point x="-724" y="-186" type="line"/>
    </contour>
  </outline>
</glyph>
<glyph name="leftangleabovecomb" format="2">
  <advance height="2479"/>
  <unicode hex="031A"/>
  <outline>
    <contour>
      <point x="-570" y="1612" type="line"/>
      <point x="6" y="1612" type="line"/>
      <point x="6" y="1658" type="line"/>
      <point x="-570" y="1658" type="line"/>
    </contour>
    <contour>
      <point x="-20" y="1283" type="line"/>
      <point x="26" y="1283" type="line"/>
      <point x="26" y="1658" type="line"/>
      <point x="-20" y="1658" type="line"/>
    </contour>
  </outline>
</glyph>
<glyph name="retroflexhookcomb" format="2">
  <advance height="2479"/>
  <unicode hex="0322"/>
  <outline>
    <contour>
      <point x="-86" y="-454" type="curve" smooth="yes"/>
      <point x="-68" y="-454"/>
      <point x="-48" y="-451"/>
      <point x="-38" y="-447" type="curve"/>
      <point x="-38" y="-406" type="line"/>
      <point x="-48" y="-409"/>
      <point x="-60" y="-410"/>
      <point x="-73" y="-410" type="curve" smooth="yes"/>
      <point x="-142" y="-410"/>
      <point x="-174" y="-364"/>
      <point x="-173" y="-265" type="curve" smooth="yes"/>
      <point x="-172" y="61" type="line"/>
      <point x="-218" y="61" type="line"/>
      <point x="-218" y="-265" type="line" smooth="yes"/>
      <point x="-218" y="-388"/>
      <point x="-171" y="-454"/>
    </contour>
  </outline>
</glyph>
<glyph name="cedillacomb" format="2">
  <advance height="2479"/>
  <unicode hex="0327"/>
  <outline>
    <contour>
      <point x="-564" y="6" type="line"/>
      <point x="-585" y="-96" type="line"/>
      <point x="-479" y="-94"/>
      <point x="-424" y="-137"/>
      <point x="-423" y="-221" type="curve" smooth="yes"/>
      <point x="-423" y="-292"/>
      <point x="-466" y="-325"/>
      <point x="-575" y="-329" type="curve"/>
      <point x="-573" y="-375" type="line"/>
      <point x="-445" y="-371"/>
      <point x="-377" y="-324"/>
      <point x="-377" y="-221" type="curve" smooth="yes"/>
      <point x="-376" y="-131"/>
      <point x="-429" y="-68"/>
      <point x="-528" y="-52" type="curve"/>
      <point x="-518" y="6" type="line"/>
    </contour>
  </outline>
</glyph>
<glyph name="bridgebelowcomb" format="2">
  <advance height="2479"/>
  <unicode hex="032A"/>
  <anchor x="-602" y="0" name="_bottom"/>
  <outline>
    <contour>
      <point x="-838" y="-465" type="line"/>
      <point x="-791" y="-465" type="line"/>
      <point x="-791" y="-111" type="line"/>
      <point x="-838" y="-111" type="line"/>
    </contour>
    <contour>
      <point x="-812" y="-157" type="line"/>
      <point x="-399" y="-157" type="line"/>
      <point x="-399" y="-111" type="line"/>
      <point x="-812" y="-111" type="line"/>
    </contour>
    <contour>
      <point x="-413" y="-465" type="line"/>
      <point x="-367" y="-465" type="line"/>
      <point x="-367" y="-111" type="line"/>
      <point x="-413" y="-111" type="line"/>
    </contour>
  </outline>
</glyph>
<glyph name="dblarchinvertedbelowcomb" format="2">
  <advance height="2479"/>
  <unicode hex="032B"/>
  <outline>
    <contour>
      <point x="-797" y="-116" type="line"/>
      <point x="-797" y="-219"/>
      <point x="-736" y="-282"/>
      <point x="-653" y="-282" type="curve" smooth="yes"/>
      <point x="-561" y="-282"/>
      <point x="-500" y="-204"/>
      <point x="-500" y="-116" type="curve"/>
      <point x="-547" y="-116" type="line"/>
      <point x="-547" y="-193"/>
      <point x="-588" y="-236"/>
      <point x="-649" y="-236" type="curve" smooth="yes"/>
      <point x="-710" y="-236"/>
      <point x="-751" y="-193"/>
      <point x="-751" y="-116" type="curve"/>
    </contour>
    <contour>
      <point x="-547" y="-116" type="line"/>
      <point x="-547" y="-204"/>
      <point x="-486" y="-282"/>
      <point x="-394" y="-282" type="curve" smooth="yes"/>
      <point x="-311" y="-282"/>
      <point x="-250" y="-219"/>
      <point x="-250" y="-116" type="curve"/>
      <point x="-297" y="-116" type="line"/>
      <point x="-297" y="-193"/>
      <point x="-337" y="-236"/>
      <point x="-399" y="-236" type="curve" smooth="yes"/>
      <point x="-460" y="-236"/>
      <point x="-500" y="-193"/>
      <point x="-500" y="-116" type="curve"/>
    </contour>
  </outline>
</glyph>
<glyph name="caronbelowcomb" format="2">
  <advance height="2479"/>
  <unicode hex="032C"/>
  <outline>
    <contour>
      <point x="-524" y="-441" type="line"/>
      <point x="-512" y="-441" type="line"/>
      <point x="-244" y="-211" type="line"/>
      <point x="-244" y="-205" type="line"/>
      <point x="-303" y="-205" type="line"/>
      <point x="-518" y="-388" type="line"/>
      <point x="-732" y="-205" type="line"/>
      <point x="-791" y="-205" type="line"/>
      <point x="-791" y="-211" type="line"/>
    </contour>
  </outline>
</glyph>
<glyph name="brevebelowcomb" format="2">
  <advance height="2479"/>
  <unicode hex="032E"/>
  <anchor x="-518" y="3" name="_bottom"/>
  <outline>
    <contour>
      <point x="-409" y="-108" type="line"/>
      <point x="-409" y="-185"/>
      <point x="-449" y="-227"/>
      <point x="-525" y="-227" type="curve" smooth="yes"/>
      <point x="-601" y="-227"/>
      <point x="-641" y="-185"/>
      <point x="-641" y="-108" type="curve"/>
      <point x="-688" y="-108" type="line"/>
      <point x="-688" y="-210"/>
      <point x="-627" y="-273"/>
      <point x="-525" y="-273" type="curve" smooth="yes"/>
      <point x="-423" y="-273"/>
      <point x="-362" y="-210"/>
      <point x="-362" y="-108" type="curve"/>
    </contour>
  </outline>
</glyph>
<glyph name="breveinvertedbelowcomb" format="2">
  <advance height="2479"/>
  <unicode hex="032F"/>
  <outline>
    <contour>
      <point x="-356" y="-273" type="line"/>
      <point x="-356" y="-171"/>
      <point x="-417" y="-108"/>
      <point x="-519" y="-108" type="curve" smooth="yes"/>
      <point x="-621" y="-108"/>
      <point x="-682" y="-171"/>
      <point x="-682" y="-273" type="curve"/>
      <point x="-636" y="-273" type="line"/>
      <point x="-636" y="-196"/>
      <point x="-595" y="-154"/>
      <point x="-519" y="-154" type="curve" smooth="yes"/>
      <point x="-444" y="-154"/>
      <point x="-403" y="-196"/>
      <point x="-403" y="-273" type="curve"/>
    </contour>
  </outline>
</glyph>
<glyph name="dbllowlinecomb" format="2">
  <advance height="2479"/>
  <unicode hex="0333"/>
  <outline>
    <contour>
      <point x="-74" y="-127" type="line"/>
      <point x="-959" y="-127" type="line"/>
      <point x="-959" y="-173" type="line"/>
      <point x="-74" y="-173" type="line"/>
    </contour>
    <contour>
      <point x="-74" y="-365" type="line"/>
      <point x="-959" y="-365" type="line"/>
      <point x="-959" y="-412" type="line"/>
      <point x="-74" y="-412" type="line"/>
    </contour>
  </outline>
</glyph>
<glyph name="seagullbelowcomb" format="2">
  <advance height="2479"/>
  <unicode hex="033C"/>
  <outline>
    <contour>
      <point x="-489" y="-349" type="line"/>
      <point x="-489" y="-268"/>
      <point x="-441" y="-225"/>
      <point x="-361" y="-225" type="curve" smooth="yes"/>
      <point x="-280" y="-225"/>
      <point x="-233" y="-268"/>
      <point x="-233" y="-349" type="curve"/>
      <point x="-186" y="-349" type="line"/>
      <point x="-186" y="-244"/>
      <point x="-253" y="-179"/>
      <point x="-361" y="-179" type="curve" smooth="yes"/>
      <point x="-468" y="-179"/>
      <point x="-535" y="-244"/>
      <point x="-535" y="-349" type="curve"/>
    </contour>
    <contour>
      <point x="-791" y="-349" type="line"/>
      <point x="-791" y="-268"/>
      <point x="-744" y="-225"/>
      <point x="-663" y="-225" type="curve" smooth="yes"/>
      <point x="-583" y="-225"/>
      <point x="-535" y="-268"/>
      <point x="-535" y="-349" type="curve"/>
      <point x="-489" y="-349" type="line"/>
      <point x="-489" y="-244"/>
      <point x="-556" y="-179"/>
      <point x="-663" y="-179" type="curve" smooth="yes"/>
      <point x="-771" y="-179"/>
      <point x="-838" y="-244"/>
      <point x="-838" y="-349" type="curve"/>
    </contour>
  </outline>
</glyph>
<glyph name="tildeverticalcomb" format="2">
  <advance height="2479"/>
  <unicode hex="033E"/>
  <outline>
    <contour>
      <point x="-599" y="1145" type="line"/>
      <point x="-530" y="1158"/>
      <point x="-467" y="1208"/>
      <point x="-467" y="1280" type="curve" smooth="yes"/>
      <point x="-467" y="1367"/>
      <point x="-557" y="1415"/>
      <point x="-557" y="1479" type="curve" smooth="yes"/>
      <point x="-557" y="1524"/>
      <point x="-511" y="1556"/>
      <point x="-473" y="1565" type="curve"/>
      <point x="-471" y="1612" type="line"/>
      <point x="-540" y="1599"/>
      <point x="-604" y="1548"/>
      <point x="-604" y="1475" type="curve" smooth="yes"/>
      <point x="-604" y="1390"/>
      <point x="-513" y="1341"/>
      <point x="-513" y="1277" type="curve" smooth="yes"/>
      <point x="-513" y="1231"/>
      <point x="-561" y="1200"/>
      <point x="-598" y="1191" type="curve"/>
    </contour>
  </outline>
</glyph>
<glyph name="dbloverlinecomb" format="2">
  <advance height="2479"/>
  <unicode hex="033F"/>
  <outline>
    <contour>
      <point x="-74" y="1555" type="line"/>
      <point x="-959" y="1555" type="line"/>
      <point x="-959" y="1508" type="line"/>
      <point x="-74" y="1508" type="line"/>
    </contour>
    <contour>
      <point x="-74" y="1793" type="line"/>
      <point x="-959" y="1793" type="line"/>
      <point x="-959" y="1747" type="line"/>
      <point x="-74" y="1747" type="line"/>
    </contour>
  </outline>
</glyph>
<glyph name="gbridgeabovecomb" format="2">
  <advance height="2479"/>
  <unicode hex="0346"/>
  <outline>
    <contour>
      <point x="-823" y="1231" type="line"/>
      <point x="-777" y="1231" type="line"/>
      <point x="-777" y="1615" type="line"/>
      <point x="-823" y="1615" type="line"/>
    </contour>
    <contour>
      <point x="-797" y="1568" type="line"/>
      <point x="-384" y="1568" type="line"/>
      <point x="-384" y="1615" type="line"/>
      <point x="-797" y="1615" type="line"/>
    </contour>
    <contour>
      <point x="-399" y="1231" type="line"/>
      <point x="-352" y="1231" type="line"/>
      <point x="-352" y="1615" type="line"/>
      <point x="-399" y="1615" type="line"/>
    </contour>
  </outline>
</glyph>
<glyph name="leftanglebelowcomb" format="2">
  <advance height="2479"/>
  <unicode hex="0349"/>
  <outline>
    <contour>
      <point x="-396" y="-509" type="line"/>
      <point x="-349" y="-509" type="line"/>
      <point x="-349" y="-143" type="line"/>
      <point x="-396" y="-143" type="line"/>
    </contour>
    <contour>
      <point x="-719" y="-189" type="line"/>
      <point x="-349" y="-189" type="line"/>
      <point x="-349" y="-143" type="line"/>
      <point x="-719" y="-143" type="line"/>
    </contour>
  </outline>
</glyph>
<glyph name="nottildeabovecomb" format="2">
  <advance height="2479"/>
  <unicode hex="034A"/>
  <outline>
    <contour>
      <point x="-396" y="1306" type="curve" smooth="yes"/>
      <point x="-308" y="1306"/>
      <point x="-225" y="1366"/>
      <point x="-204" y="1455" type="curve"/>
      <point x="-250" y="1466" type="line"/>
      <point x="-265" y="1398"/>
      <point x="-329" y="1353"/>
      <point x="-396" y="1353" type="curve" smooth="yes"/>
      <point x="-503" y="1353"/>
      <point x="-546" y="1472"/>
      <point x="-681" y="1472" type="curve" smooth="yes"/>
      <point x="-780" y="1472"/>
      <point x="-859" y="1409"/>
      <point x="-873" y="1318" type="curve"/>
      <point x="-826" y="1312" type="line"/>
      <point x="-817" y="1378"/>
      <point x="-756" y="1425"/>
      <point x="-681" y="1425" type="curve" smooth="yes"/>
      <point x="-557" y="1425"/>
      <point x="-520" y="1306"/>
    </contour>
    <contour>
      <point x="-612" y="1226" type="line"/>
      <point x="-406" y="1505" type="line"/>
      <point x="-441" y="1536" type="line"/>
      <point x="-647" y="1257" type="line"/>
    </contour>
  </outline>
</glyph>
<glyph name="almostequaltoabovecomb" format="2">
  <advance height="2479"/>
  <unicode hex="034C"/>
  <outline>
    <contour>
      <point x="-207" y="1398" type="line"/>
      <point x="-229" y="1359"/>
      <point x="-286" y="1313"/>
      <point x="-358" y="1313" type="curve" smooth="yes"/>
      <point x="-459" y="1313"/>
      <point x="-503" y="1404"/>
      <point x="-637" y="1404" type="curve" smooth="yes"/>
      <point x="-736" y="1404"/>
      <point x="-808" y="1355"/>
      <point x="-829" y="1279" type="curve"/>
      <point x="-783" y="1273" type="line"/>
      <point x="-766" y="1324"/>
      <point x="-713" y="1357"/>
      <point x="-637" y="1357" type="curve" smooth="yes"/>
      <point x="-513" y="1357"/>
      <point x="-476" y="1267"/>
      <point x="-359" y="1267" type="curve" smooth="yes"/>
      <point x="-264" y="1267"/>
      <point x="-188" y="1327"/>
      <point x="-160" y="1386" type="curve"/>
    </contour>
    <contour>
      <point x="-207" y="1587" type="line"/>
      <point x="-229" y="1548"/>
      <point x="-286" y="1503"/>
      <point x="-358" y="1503" type="curve" smooth="yes"/>
      <point x="-459" y="1503"/>
      <point x="-503" y="1593"/>
      <point x="-637" y="1593" type="curve" smooth="yes"/>
      <point x="-736" y="1593"/>
      <point x="-808" y="1544"/>
      <point x="-829" y="1468" type="curve"/>
      <point x="-783" y="1462" type="line"/>
      <point x="-766" y="1513"/>
      <point x="-713" y="1546"/>
      <point x="-637" y="1546" type="curve" smooth="yes"/>
      <point x="-513" y="1546"/>
      <point x="-476" y="1456"/>
      <point x="-359" y="1456" type="curve" smooth="yes"/>
      <point x="-264" y="1456"/>
      <point x="-188" y="1516"/>
      <point x="-160" y="1575" type="curve"/>
    </contour>
  </outline>
</glyph>
<glyph name="arrowleftrightbelowcomb" format="2">
  <advance height="2479"/>
  <unicode hex="034D"/>
  <outline>
    <contour>
      <point x="-224" y="-292" type="line"/>
      <point x="-785" y="-292" type="line"/>
      <point x="-785" y="-339" type="line"/>
      <point x="-224" y="-339" type="line"/>
    </contour>
    <contour>
      <point x="-576" y="-553" type="line"/>
      <point x="-800" y="-295" type="line"/>
      <point x="-844" y="-314" type="line"/>
      <point x="-640" y="-553" type="line"/>
    </contour>
    <contour>
      <point x="-640" y="-81" type="line"/>
      <point x="-844" y="-314" type="line"/>
      <point x="-804" y="-340" type="line"/>
      <point x="-577" y="-81" type="line"/>
    </contour>
    <contour>
      <point x="-381" y="-553" type="line"/>
      <point x="-175" y="-314" type="line"/>
      <point x="-211" y="-288" type="line"/>
      <point x="-445" y="-553" type="line"/>
    </contour>
    <contour>
      <point x="-444" y="-81" type="line"/>
      <point x="-211" y="-343" type="line"/>
      <point x="-175" y="-314" type="line"/>
      <point x="-381" y="-81" type="line"/>
    </contour>
  </outline>
</glyph>
<glyph name="lefthalfringabovecomb" format="2">
  <advance height="2479"/>
  <unicode hex="0351"/>
  <outline>
    <contour>
      <point x="-340" y="1140" type="curve"/>
      <point x="-340" y="1187" type="line"/>
      <point x="-416" y="1187"/>
      <point x="-460" y="1225"/>
      <point x="-460" y="1292" type="curve" smooth="yes"/>
      <point x="-460" y="1358"/>
      <point x="-416" y="1396"/>
      <point x="-340" y="1396" type="curve"/>
      <point x="-340" y="1443" type="line"/>
      <point x="-441" y="1443"/>
      <point x="-506" y="1383"/>
      <point x="-506" y="1292" type="curve" smooth="yes"/>
      <point x="-506" y="1200"/>
      <point x="-441" y="1140"/>
    </contour>
  </outline>
</glyph>
<glyph name="xbelowcomb" format="2">
  <advance height="2479"/>
  <unicode hex="0353"/>
  <outline>
    <contour>
      <point x="-569" y="-527" type="line"/>
      <point x="-163" y="-100" type="line"/>
      <point x="-195" y="-65" type="line"/>
      <point x="-602" y="-493" type="line"/>
    </contour>
    <contour>
      <point x="-191" y="-524" type="line"/>
      <point x="-159" y="-489" type="line"/>
      <point x="-563" y="-64" type="line"/>
      <point x="-601" y="-99" type="line"/>
    </contour>
  </outline>
</glyph>
<glyph name="zigzagabovecomb" format="2">
  <advance height="2479"/>
  <unicode hex="035B"/>
  <outline>
    <contour>
      <point x="-544" y="1661" type="line"/>
      <point x="-618" y="1398" type="line"/>
      <point x="-412" y="1398" type="line"/>
      <point x="-473" y="1181" type="line"/>
      <point x="-425" y="1181" type="line"/>
      <point x="-351" y="1444" type="line"/>
      <point x="-557" y="1444" type="line"/>
      <point x="-496" y="1661" type="line"/>
    </contour>
  </outline>
</glyph>
<glyph name="breveinverteddoublecomb" format="2">
  <advance height="2479"/>
  <unicode hex="0361"/>
  <outline>
    <contour>
      <point x="695" y="1251" type="line"/>
      <point x="563" y="1394"/>
      <point x="297" y="1487"/>
      <point x="49" y="1487" type="curve" smooth="yes"/>
      <point x="-204" y="1487"/>
      <point x="-466" y="1389"/>
      <point x="-599" y="1251" type="curve"/>
      <point x="-551" y="1251" type="line"/>
      <point x="-415" y="1363"/>
      <point x="-162" y="1439"/>
      <point x="47" y="1440" type="curve" smooth="yes"/>
      <point x="260" y="1441"/>
      <point x="504" y="1363"/>
      <point x="647" y="1251" type="curve"/>
    </contour>
  </outline>
</glyph>
<glyph name="arrowdoublerightbelowcomb" format="2">
  <advance height="2479"/>
  <unicode hex="0362"/>
  <outline>
    <contour>
      <point x="742" y="-295" type="line"/>
      <point x="-524" y="-295" type="line"/>
      <point x="-524" y="-342" type="line"/>
      <point x="742" y="-342" type="line"/>
    </contour>
    <contour>
      <point x="477" y="-559" type="line"/>
      <point x="768" y="-346" type="line"/>
      <point x="768" y="-298" type="line"/>
      <point x="399" y="-559" type="line"/>
    </contour>
    <contour>
      <point x="399" y="-81" type="line"/>
      <point x="768" y="-339" type="line"/>
      <point x="768" y="-291" type="line"/>
      <point x="477" y="-81" type="line"/>
    </contour>
  </outline>
</glyph>
<glyph name="acomb" format="2">
  <advance height="2479"/>
  <unicode hex="0363"/>
  <outline>
    <contour>
      <point x="-345" y="1295" type="line" name="hr00"/>
      <point x="-343" y="1257"/>
      <point x="-340" y="1235"/>
      <point x="-333" y="1201" type="curve"/>
      <point x="-284" y="1201" type="line"/>
      <point x="-292" y="1236"/>
      <point x="-298" y="1284"/>
      <point x="-298" y="1327" type="curve" smooth="yes"/>
      <point x="-298" y="1568" type="line" smooth="yes"/>
      <point x="-298" y="1702"/>
      <point x="-372" y="1757"/>
      <point x="-471" y="1757" type="curve" smooth="yes"/>
      <point x="-580" y="1757"/>
      <point x="-663" y="1689"/>
      <point x="-665" y="1597" type="curve"/>
      <point x="-620" y="1588" type="line"/>
      <point x="-618" y="1664"/>
      <point x="-561" y="1711"/>
      <point x="-471" y="1711" type="curve" smooth="yes"/>
      <point x="-387" y="1711"/>
      <point x="-345" y="1667"/>
      <point x="-345" y="1556" type="curve" smooth="yes"/>
    </contour>
    <contour>
      <point x="-336" y="1495" type="line"/>
      <point x="-505" y="1495" type="line" smooth="yes"/>
      <point x="-615" y="1495"/>
      <point x="-688" y="1441"/>
      <point x="-688" y="1350" type="curve" smooth="yes"/>
      <point x="-688" y="1260"/>
      <point x="-624" y="1196"/>
      <point x="-525" y="1196" type="curve" smooth="yes"/>
      <point x="-447" y="1196"/>
      <point x="-365" y="1242"/>
      <point x="-333" y="1300" type="curve"/>
      <point x="-339" y="1338" type="line"/>
      <point x="-364" y="1293"/>
      <point x="-441" y="1242"/>
      <point x="-522" y="1242" type="curve" smooth="yes"/>
      <point x="-598" y="1242"/>
      <point x="-641" y="1286"/>
      <point x="-641" y="1348" type="curve" smooth="yes"/>
      <point x="-641" y="1414"/>
      <point x="-589" y="1449"/>
      <point x="-505" y="1449" type="curve" smooth="yes"/>
      <point x="-336" y="1449" type="line"/>
    </contour>
  </outline>
</glyph>
<glyph name="ecomb" format="2">
  <advance height="2479"/>
  <unicode hex="0364"/>
  <outline>
    <contour>
      <point x="-489" y="1187" type="curve" smooth="yes"/>
      <point x="-397" y="1187"/>
      <point x="-326" y="1229"/>
      <point x="-269" y="1303" type="curve"/>
      <point x="-300" y="1327" type="line"/>
      <point x="-343" y="1270"/>
      <point x="-406" y="1233"/>
      <point x="-487" y="1233" type="curve" smooth="yes"/>
      <point x="-604" y="1233"/>
      <point x="-671" y="1309"/>
      <point x="-671" y="1452" type="curve" smooth="yes"/>
      <point x="-671" y="1475" type="line" smooth="yes"/>
      <point x="-671" y="1622"/>
      <point x="-596" y="1713"/>
      <point x="-479" y="1713" type="curve" smooth="yes"/>
      <point x="-371" y="1713"/>
      <point x="-305" y="1628"/>
      <point x="-305" y="1529" type="curve" smooth="yes"/>
      <point x="-305" y="1511" type="line"/>
      <point x="-685" y="1511" type="line"/>
      <point x="-685" y="1465" type="line"/>
      <point x="-257" y="1465" type="line"/>
      <point x="-257" y="1491" type="line" smooth="yes"/>
      <point x="-257" y="1663"/>
      <point x="-343" y="1760"/>
      <point x="-477" y="1760" type="curve" smooth="yes"/>
      <point x="-624" y="1760"/>
      <point x="-717" y="1645"/>
      <point x="-717" y="1475" type="curve" smooth="yes"/>
      <point x="-717" y="1452" type="line" smooth="yes"/>
      <point x="-717" y="1287"/>
      <point x="-628" y="1187"/>
    </contour>
  </outline>
</glyph>
<glyph name="icomb" format="2">
  <advance height="2479"/>
  <unicode hex="0365"/>
  <outline>
    <contour>
      <point x="-467" y="1754" type="line"/>
      <point x="-513" y="1754" type="line"/>
      <point x="-513" y="1201" type="line"/>
      <point x="-467" y="1201" type="line"/>
    </contour>
    <contour>
      <point x="-537" y="1881" type="curve" smooth="yes"/>
      <point x="-537" y="1856"/>
      <point x="-516" y="1834"/>
      <point x="-490" y="1834" type="curve" smooth="yes"/>
      <point x="-465" y="1834"/>
      <point x="-444" y="1856"/>
      <point x="-444" y="1881" type="curve" smooth="yes"/>
      <point x="-444" y="1907"/>
      <point x="-465" y="1927"/>
      <point x="-490" y="1927" type="curve" smooth="yes"/>
      <point x="-516" y="1927"/>
      <point x="-537" y="1907"/>
    </contour>
  </outline>
</glyph>
<glyph name="ucomb" format="2">
  <advance height="2479"/>
  <unicode hex="0367"/>
  <anchor x="-492" y="1169" name="_marktop"/>
  <anchor x="-492" y="1818" name="_mkmktop"/>
  <outline>
    <contour>
      <point x="-332" y="1324" type="line"/>
      <point x="-319" y="1201" type="line"/>
      <point x="-285" y="1201" type="line"/>
      <point x="-285" y="1754" type="line"/>
      <point x="-332" y="1754" type="line"/>
    </contour>
    <contour>
      <point x="-332" y="1457" type="line"/>
      <point x="-332" y="1312"/>
      <point x="-384" y="1239"/>
      <point x="-509" y="1239" type="curve" smooth="yes"/>
      <point x="-623" y="1239"/>
      <point x="-652" y="1286"/>
      <point x="-652" y="1434" type="curve" smooth="yes"/>
      <point x="-652" y="1754" type="line"/>
      <point x="-698" y="1754" type="line"/>
      <point x="-698" y="1412" type="line" smooth="yes"/>
      <point x="-698" y="1268"/>
      <point x="-647" y="1193"/>
      <point x="-515" y="1193" type="curve" smooth="yes"/>
      <point x="-371" y="1193"/>
      <point x="-303" y="1289"/>
      <point x="-303" y="1460" type="curve"/>
    </contour>
  </outline>
</glyph>
<glyph name="tcomb" format="2">
  <advance height="2479"/>
  <unicode hex="036D"/>
  <outline>
    <contour>
      <point x="-340" y="1735" type="line"/>
      <point x="-605" y="1735" type="line"/>
      <point x="-605" y="1689" type="line"/>
      <point x="-340" y="1689" type="line"/>
    </contour>
    <contour>
      <point x="-497" y="1894" type="line"/>
      <point x="-497" y="1324" type="line" smooth="yes"/>
      <point x="-497" y="1244"/>
      <point x="-473" y="1204"/>
      <point x="-413" y="1204" type="curve" smooth="yes"/>
      <point x="-396" y="1204"/>
      <point x="-375" y="1207"/>
      <point x="-361" y="1212" type="curve"/>
      <point x="-361" y="1257" type="line"/>
      <point x="-380" y="1252"/>
      <point x="-394" y="1251"/>
      <point x="-403" y="1251" type="curve" smooth="yes"/>
      <point x="-437" y="1251"/>
      <point x="-451" y="1274"/>
      <point x="-451" y="1325" type="curve" smooth="yes"/>
      <point x="-451" y="1894" type="line"/>
    </contour>
  </outline>
</glyph>
<glyph name="Archaicsampi" format="2">
  <advance height="2479" width="1303"/>
  <unicode hex="0372"/>
  <outline>
    <contour>
      <point x="1158" y="1457" type="line" name="hr00"/>
      <point x="1111" y="1457" type="line"/>
      <point x="1111" y="902" type="line"/>
      <point x="1158" y="902" type="line"/>
    </contour>
    <contour>
      <point x="192" y="1457" type="line"/>
      <point x="145" y="1457" type="line"/>
      <point x="145" y="902" type="line"/>
      <point x="192" y="902" type="line"/>
    </contour>
    <contour>
      <point x="665" y="1489" type="line"/>
      <point x="618" y="1489" type="line"/>
      <point x="618" y="0" type="line"/>
      <point x="665" y="0" type="line"/>
    </contour>
    <contour>
      <point x="1158" y="1489" type="line"/>
      <point x="145" y="1489" type="line"/>
      <point x="145" y="1443" type="line"/>
      <point x="1158" y="1443" type="line"/>
    </contour>
  </outline>
</glyph>
<glyph name="archaicsampi" format="2">
  <advance height="2479" width="882"/>
  <unicode hex="0373"/>
  <outline>
    <contour>
      <point x="463" y="1489" type="line" name="hr00"/>
      <point x="416" y="1489" type="line"/>
      <point x="416" y="0" type="line"/>
      <point x="463" y="0" type="line"/>
    </contour>
    <contour>
      <point x="742" y="1489" type="line"/>
      <point x="140" y="1489" type="line"/>
      <point x="140" y="1443" type="line"/>
      <point x="742" y="1443" type="line"/>
    </contour>
    <contour>
      <point x="742" y="1489" type="line"/>
      <point x="695" y="1489" type="line"/>
      <point x="695" y="1117" type="line"/>
      <point x="742" y="1117" type="line"/>
    </contour>
    <contour>
      <point x="186" y="1489" type="line"/>
      <point x="140" y="1489" type="line"/>
      <point x="140" y="1117" type="line"/>
      <point x="186" y="1117" type="line"/>
    </contour>
  </outline>
</glyph>
<glyph name="sigmaLunateDottedReversedSymbol" format="2">
  <advance height="2479" width="1034"/>
  <unicode hex="037D"/>
  <outline>
    <contour>
      <point x="89" y="305" type="line"/>
      <point x="131" y="116"/>
      <point x="278" y="-23"/>
      <point x="492" y="-23" type="curve" smooth="yes"/>
      <point x="765" y="-23"/>
      <point x="945" y="196"/>
      <point x="945" y="524" type="curve" smooth="yes"/>
      <point x="945" y="579" type="line" smooth="yes"/>
      <point x="945" y="893"/>
      <point x="772" y="1132"/>
      <point x="497" y="1132" type="curve" smooth="yes"/>
      <point x="288" y="1132"/>
      <point x="128" y="993"/>
      <point x="87" y="756" type="curve"/>
      <point x="137" y="756" type="line"/>
      <point x="172" y="964"/>
      <point x="314" y="1085"/>
      <point x="497" y="1085" type="curve" smooth="yes"/>
      <point x="748" y="1085"/>
      <point x="899" y="863"/>
      <point x="899" y="579" type="curve" smooth="yes"/>
      <point x="899" y="524" type="line" smooth="yes"/>
      <point x="899" y="215"/>
      <point x="735" y="23"/>
      <point x="492" y="23" type="curve" smooth="yes"/>
      <point x="301" y="23"/>
      <point x="176" y="144"/>
      <point x="138" y="305" type="curve"/>
    </contour>
    <contour>
      <point x="527" y="495" type="curve" smooth="yes"/>
      <point x="556" y="495"/>
      <point x="579" y="518"/>
      <point x="579" y="547" type="curve" smooth="yes"/>
      <point x="579" y="576"/>
      <point x="556" y="599"/>
      <point x="527" y="599" type="curve" smooth="yes"/>
      <point x="497" y="599"/>
      <point x="474" y="576"/>
      <point x="474" y="547" type="curve" smooth="yes"/>
      <point x="474" y="518"/>
      <point x="497" y="495"/>
    </contour>
  </outline>
</glyph>
<glyph name="Xi" format="2">
  <advance height="2479" width="870"/>
  <unicode hex="039E"/>
  <outline>
    <contour>
      <point x="3" y="0" type="line"/>
      <point x="870" y="0" type="line"/>
      <point x="870" y="47" type="line"/>
      <point x="3" y="47" type="line"/>
    </contour>
    <contour>
      <point x="52" y="736" type="line"/>
      <point x="803" y="736" type="line"/>
      <point x="803" y="783" type="line"/>
      <point x="52" y="783" type="line"/>
    </contour>
    <contour>
      <point x="-20" y="1443" type="line"/>
      <point x="887" y="1443" type="line"/>
      <point x="887" y="1489" type="line"/>
      <point x="-20" y="1489" type="line"/>
    </contour>
  </outline>
</glyph>
<glyph name="Sigma" format="2">
  <advance height="2479" width="1274"/>
  <unicode hex="03A3"/>
  <outline>
    <contour>
      <point x="116" y="0" type="line"/>
      <point x="1158" y="0" type="line"/>
      <point x="1158" y="47" type="line"/>
      <point x="182" y="47" type="line"/>
      <point x="780" y="732" type="line"/>
      <point x="780" y="755" type="line"/>
      <point x="183" y="1443" type="line"/>
      <point x="1117" y="1443" type="line"/>
      <point x="1117" y="1489" type="line"/>
      <point x="116" y="1489" type="line"/>
      <point x="116" y="1449" type="line"/>
      <point x="729" y="745" type="line"/>
      <point x="116" y="41" type="line"/>
    </contour>
  </outline>
</glyph>
<glyph name="Phi" format="2">
  <advance height="2479" width="1334"/>
  <unicode hex="03A6"/>
  <outline>
    <contour>
      <point x="698" y="209" type="line" smooth="yes"/>
      <point x="1012" y="209"/>
      <point x="1248" y="433"/>
      <point x="1248" y="743" type="curve" smooth="yes"/>
      <point x="1248" y="1055"/>
      <point x="1015" y="1277"/>
      <point x="698" y="1277" type="curve" smooth="yes"/>
      <point x="637" y="1277" type="line"/>
      <point x="327" y="1279"/>
      <point x="87" y="1054"/>
      <point x="87" y="743" type="curve" smooth="yes"/>
      <point x="87" y="433"/>
      <point x="323" y="209"/>
      <point x="637" y="209" type="curve" smooth="yes"/>
    </contour>
    <contour>
      <point x="637" y="256" type="line" smooth="yes"/>
      <point x="330" y="256"/>
      <point x="134" y="474"/>
      <point x="134" y="743" type="curve" smooth="yes"/>
      <point x="134" y="1014"/>
      <point x="323" y="1231"/>
      <point x="640" y="1231" type="curve" smooth="yes"/>
      <point x="698" y="1231" type="line"/>
      <point x="1005" y="1232"/>
      <point x="1203" y="1012"/>
      <point x="1201" y="743" type="curve" smooth="yes"/>
      <point x="1200" y="473"/>
      <point x="1004" y="256"/>
      <point x="698" y="256" type="curve" smooth="yes"/>
    </contour>
    <contour>
      <point x="691" y="1489" type="line"/>
      <point x="644" y="1489" type="line"/>
      <point x="644" y="-1" type="line"/>
      <point x="691" y="-1" type="line"/>
    </contour>
  </outline>
</glyph>
